<svg xmlns="http://www.w3.org/2000/svg" width="1440" height="900"><path d="M673,565L657,522L565,650Z" fill="#47acc1" stroke="#47acc1" stroke-width="1.51"/><path d="M657,522L464,493L565,650Z" fill="#52b2c1" stroke="#52b2c1" stroke-width="1.51"/><path d="M565,650L594,723L673,565Z" fill="#47a6bf" stroke="#47a6bf" stroke-width="1.51"/><path d="M374,780L594,723L565,650Z" fill="#559fb9" stroke="#559fb9" stroke-width="1.51"/><path d="M657,522L528,426L464,493Z" fill="#59bac1" stroke="#59bac1" stroke-width="1.51"/><path d="M464,493L363,560L565,650Z" fill="#5eb5be" stroke="#5eb5be" stroke-width="1.51"/><path d="M309,435L363,560L464,493Z" fill="#71c1be" stroke="#71c1be" stroke-width="1.51"/><path d="M594,723L698,803L673,565Z" fill="#419cbd" stroke="#419cbd" stroke-width="1.51"/><path d="M631,910L698,803L594,723Z" fill="#448cb4" stroke="#448cb4" stroke-width="1.51"/><path d="M673,565L844,474L657,522Z" fill="#3caec4" stroke="#3caec4" stroke-width="1.51"/><path d="M657,522L593,246L528,426Z" fill="#5ebfc1" stroke="#5ebfc1" stroke-width="1.51"/><path d="M868,697L846,554L673,565Z" fill="#30a0c2" stroke="#30a0c2" stroke-width="1.51"/><path d="M528,426L431,365L464,493Z" fill="#67c2bf" stroke="#67c2bf" stroke-width="1.51"/><path d="M593,246L431,365L528,426Z" fill="#6fc5be" stroke="#6fc5be" stroke-width="1.51"/><path d="M846,554L844,474L673,565Z" fill="#37a8c3" stroke="#37a8c3" stroke-width="1.51"/><path d="M363,560L374,780L565,650Z" fill="#60abbb" stroke="#60abbb" stroke-width="1.51"/><path d="M698,803L868,697L673,565Z" fill="#3399be" stroke="#3399be" stroke-width="1.51"/><path d="M1043,515L899,340L844,474Z" fill="#38a7c3" stroke="#38a7c3" stroke-width="1.51"/><path d="M363,560L282,817L374,780Z" fill="#71a7b7" stroke="#71a7b7" stroke-width="1.51"/><path d="M431,365L309,435L464,493Z" fill="#73c6be" stroke="#73c6be" stroke-width="1.51"/><path d="M664,222L593,246L657,522Z" fill="#64c1c0" stroke="#64c1c0" stroke-width="1.51"/><path d="M431,365L271,229L309,435Z" fill="#89cfbc" stroke="#89cfbc" stroke-width="1.51"/><path d="M698,803L745,941L868,697Z" fill="#3585b5" stroke="#3585b5" stroke-width="1.51"/><path d="M374,780L631,910L594,723Z" fill="#5291b4" stroke="#5291b4" stroke-width="1.51"/><path d="M844,474L664,222L657,522Z" fill="#4bb9c3" stroke="#4bb9c3" stroke-width="1.51"/><path d="M844,474L899,340L664,222Z" fill="#54b6c1" stroke="#54b6c1" stroke-width="1.51"/><path d="M1043,515L844,474L846,554Z" fill="#31a1c2" stroke="#31a1c2" stroke-width="1.51"/><path d="M374,780L372,935L631,910Z" fill="#5c8baf" stroke="#5c8baf" stroke-width="1.51"/><path d="M135,703L282,817L363,560Z" fill="#7dafb8" stroke="#7dafb8" stroke-width="1.51"/><path d="M631,910L745,941L698,803Z" fill="#4081b1" stroke="#4081b1" stroke-width="1.51"/><path d="M667,1145L745,941L631,910Z" fill="#4374aa" stroke="#4374aa" stroke-width="1.51"/><path d="M664,222L624,153L593,246Z" fill="#7ecabd" stroke="#7ecabd" stroke-width="1.51"/><path d="M380,75L271,229L431,365Z" fill="#9ad6b9" stroke="#9ad6b9" stroke-width="1.51"/><path d="M646,139L624,153L664,222Z" fill="#85cdbc" stroke="#85cdbc" stroke-width="1.51"/><path d="M282,817L372,935L374,780Z" fill="#7095b0" stroke="#7095b0" stroke-width="1.51"/><path d="M309,435L166,554L363,560Z" fill="#81c4bd" stroke="#81c4bd" stroke-width="1.51"/><path d="M159,295L166,554L309,435Z" fill="#91d0bc" stroke="#91d0bc" stroke-width="1.51"/><path d="M890,63L646,139L664,222Z" fill="#85cabd" stroke="#85cabd" stroke-width="1.51"/><path d="M868,697L1043,515L846,554Z" fill="#2899c1" stroke="#2899c1" stroke-width="1.51"/><path d="M1069,545L1043,515L868,697Z" fill="#2494c0" stroke="#2494c0" stroke-width="1.51"/><path d="M380,75L593,246L624,153Z" fill="#92d3bb" stroke="#92d3bb" stroke-width="1.51"/><path d="M380,75L431,365L593,246Z" fill="#88d0ba" stroke="#88d0ba" stroke-width="1.51"/><path d="M166,554L135,703L363,560Z" fill="#86bdbc" stroke="#86bdbc" stroke-width="1.51"/><path d="M282,817L281,1011L372,935Z" fill="#748cab" stroke="#748cab" stroke-width="1.51"/><path d="M1111,259L992,186L899,340Z" fill="#5eadbd" stroke="#5eadbd" stroke-width="1.51"/><path d="M1039,782L1069,545L868,697Z" fill="#2088bd" stroke="#2088bd" stroke-width="1.51"/><path d="M949,988L1039,782L868,697Z" fill="#2777b3" stroke="#2777b3" stroke-width="1.51"/><path d="M271,229L159,295L309,435Z" fill="#99d5ba" stroke="#99d5ba" stroke-width="1.51"/><path d="M166,554L68,647L135,703Z" fill="#8ebdbb" stroke="#8ebdbb" stroke-width="1.51"/><path d="M166,1002L281,1011L282,817Z" fill="#7e8da9" stroke="#7e8da9" stroke-width="1.51"/><path d="M51,383L68,647L166,554Z" fill="#96cabc" stroke="#96cabc" stroke-width="1.51"/><path d="M166,1002L282,817L54,858Z" fill="#8796ab" stroke="#8796ab" stroke-width="1.51"/><path d="M372,935L485,1114L631,910Z" fill="#5a7ca9" stroke="#5a7ca9" stroke-width="1.51"/><path d="M634,-56L380,75L624,153Z" fill="#a3d8b9" stroke="#a3d8b9" stroke-width="1.51"/><path d="M271,229L43,201L159,295Z" fill="#afdfb7" stroke="#afdfb7" stroke-width="1.51"/><path d="M745,941L949,988L868,697Z" fill="#3278b1" stroke="#3278b1" stroke-width="1.51"/><path d="M667,1145L906,1010L745,941Z" fill="#376ca4" stroke="#376ca4" stroke-width="1.51"/><path d="M906,1010L949,988L745,941Z" fill="#356aac" stroke="#356aac" stroke-width="1.51"/><path d="M363,1106L485,1114L372,935Z" fill="#607b9d" stroke="#607b9d" stroke-width="1.51"/><path d="M899,340L890,63L664,222Z" fill="#72bfbe" stroke="#72bfbe" stroke-width="1.51"/><path d="M646,139L634,-56L624,153Z" fill="#99d4bb" stroke="#99d4bb" stroke-width="1.51"/><path d="M1111,259L899,340L1043,515Z" fill="#48a4be" stroke="#48a4be" stroke-width="1.51"/><path d="M949,988L1053,897L1039,782Z" fill="#286aae" stroke="#286aae" stroke-width="1.51"/><path d="M1213,663L1206,474L1069,545Z" fill="#2b85b9" stroke="#2b85b9" stroke-width="1.51"/><path d="M159,295L51,383L166,554Z" fill="#9bd4bb" stroke="#9bd4bb" stroke-width="1.51"/><path d="M43,201L51,383L159,295Z" fill="#acddb8" stroke="#acddb8" stroke-width="1.51"/><path d="M485,1114L667,1145L631,910Z" fill="#48739e" stroke="#48739e" stroke-width="1.51"/><path d="M906,1010L998,1049L949,988Z" fill="#2b62a4" stroke="#2b62a4" stroke-width="1.51"/><path d="M687,1292L803,1217L667,1145Z" fill="#2d658d" stroke="#2d658d" stroke-width="1.51"/><path d="M281,1011L363,1106L372,935Z" fill="#6e81a2" stroke="#6e81a2" stroke-width="1.51"/><path d="M992,186L890,63L899,340Z" fill="#71b8bd" stroke="#71b8bd" stroke-width="1.51"/><path d="M380,75L273,69L271,229Z" fill="#b4e1b6" stroke="#b4e1b6" stroke-width="1.51"/><path d="M321,-19L273,69L380,75Z" fill="#bde4b5" stroke="#bde4b5" stroke-width="1.51"/><path d="M281,1011L181,1169L363,1106Z" fill="#6e7d93" stroke="#6e7d93" stroke-width="1.51"/><path d="M54,858L282,817L135,703Z" fill="#88a4b1" stroke="#88a4b1" stroke-width="1.51"/><path d="M1206,474L1043,515L1069,545Z" fill="#3090bc" stroke="#3090bc" stroke-width="1.51"/><path d="M1206,474L1111,259L1043,515Z" fill="#3f96bb" stroke="#3f96bb" stroke-width="1.51"/><path d="M992,186L969,28L890,63Z" fill="#88bebb" stroke="#88bebb" stroke-width="1.51"/><path d="M2,747L135,703L68,647Z" fill="#91b4b6" stroke="#91b4b6" stroke-width="1.51"/><path d="M2,747L54,858L135,703Z" fill="#90a9b2" stroke="#90a9b2" stroke-width="1.51"/><path d="M-134,551L2,747L68,647Z" fill="#9abfb9" stroke="#9abfb9" stroke-width="1.51"/><path d="M1213,663L1069,545L1039,782Z" fill="#227fb8" stroke="#227fb8" stroke-width="1.51"/><path d="M803,1217L998,1049L906,1010Z" fill="#285f97" stroke="#285f97" stroke-width="1.51"/><path d="M949,988L998,1049L1053,897Z" fill="#2b61aa" stroke="#2b61aa" stroke-width="1.51"/><path d="M714,-86L634,-56L646,139Z" fill="#a0d6bb" stroke="#a0d6bb" stroke-width="1.51"/><path d="M1188,772L1039,782L1053,897Z" fill="#246bae" stroke="#246bae" stroke-width="1.51"/><path d="M1188,772L1213,663L1039,782Z" fill="#2370b1" stroke="#2370b1" stroke-width="1.51"/><path d="M1145,978L1188,772L1053,897Z" fill="#265fa9" stroke="#265fa9" stroke-width="1.51"/><path d="M328,-72L321,-19L380,75Z" fill="#c0e5b5" stroke="#c0e5b5" stroke-width="1.51"/><path d="M273,69L43,201L271,229Z" fill="#bae4b6" stroke="#bae4b6" stroke-width="1.51"/><path d="M-48,168L43,201L76,5Z" fill="#cfecb4" stroke="#cfecb4" stroke-width="1.51"/><path d="M51,383L-86,441L68,647Z" fill="#9ed0bc" stroke="#9ed0bc" stroke-width="1.51"/><path d="M890,63L714,-86L646,139Z" fill="#96d0bc" stroke="#96d0bc" stroke-width="1.51"/><path d="M1159,-34L969,28L992,186Z" fill="#8ab6b8" stroke="#8ab6b8" stroke-width="1.51"/><path d="M634,-56L328,-72L380,75Z" fill="#b4e0b7" stroke="#b4e0b7" stroke-width="1.51"/><path d="M909,-42L714,-86L890,63Z" fill="#9acbbb" stroke="#9acbbb" stroke-width="1.51"/><path d="M54,858L95,1034L166,1002Z" fill="#8b8fa7" stroke="#8b8fa7" stroke-width="1.51"/><path d="M166,1002L181,1169L281,1011Z" fill="#7b8399" stroke="#7b8399" stroke-width="1.51"/><path d="M3,978L95,1034L54,858Z" fill="#9091a8" stroke="#9091a8" stroke-width="1.51"/><path d="M667,1145L803,1217L906,1010Z" fill="#2d6393" stroke="#2d6393" stroke-width="1.51"/><path d="M596,1311L667,1145L485,1114Z" fill="#3f6a8b" stroke="#3f6a8b" stroke-width="1.51"/><path d="M363,1106L425,1232L485,1114Z" fill="#53728b" stroke="#53728b" stroke-width="1.51"/><path d="M181,1169L425,1232L363,1106Z" fill="#617688" stroke="#617688" stroke-width="1.51"/><path d="M998,1049L1145,978L1053,897Z" fill="#2a5aa7" stroke="#2a5aa7" stroke-width="1.51"/><path d="M1188,772L1282,682L1213,663Z" fill="#236db0" stroke="#236db0" stroke-width="1.51"/><path d="M1144,1038L1145,978L998,1049Z" fill="#26549e" stroke="#26549e" stroke-width="1.51"/><path d="M-114,348L-86,441L51,383Z" fill="#acdbba" stroke="#acdbba" stroke-width="1.51"/><path d="M969,28L909,-42L890,63Z" fill="#93c3bb" stroke="#93c3bb" stroke-width="1.51"/><path d="M321,-19L76,5L273,69Z" fill="#cdebb4" stroke="#cdebb4" stroke-width="1.51"/><path d="M428,-212L328,-72L634,-56Z" fill="#bbe3b9" stroke="#bbe3b9" stroke-width="1.51"/><path d="M1425,834L1282,682L1188,772Z" fill="#255fa9" stroke="#255fa9" stroke-width="1.51"/><path d="M1213,663L1282,682L1206,474Z" fill="#2679b5" stroke="#2679b5" stroke-width="1.51"/><path d="M1206,474L1245,314L1111,259Z" fill="#4d94b6" stroke="#4d94b6" stroke-width="1.51"/><path d="M1111,259L1249,80L992,186Z" fill="#73a7b6" stroke="#73a7b6" stroke-width="1.51"/><path d="M969,28L1159,-34L909,-42Z" fill="#94bcb9" stroke="#94bcb9" stroke-width="1.51"/><path d="M1342,327L1245,314L1206,474Z" fill="#4a8bb4" stroke="#4a8bb4" stroke-width="1.51"/><path d="M-62,1047L3,978L-161,1021Z" fill="#948ea2" stroke="#948ea2" stroke-width="1.51"/><path d="M-175,890L3,978L54,858Z" fill="#9799aa" stroke="#9799aa" stroke-width="1.51"/><path d="M1374,970L1425,834L1188,772Z" fill="#2551a2" stroke="#2551a2" stroke-width="1.51"/><path d="M1040,1297L1144,1038L998,1049Z" fill="#1d4f8d" stroke="#1d4f8d" stroke-width="1.51"/><path d="M153,1178L181,1169L95,1034Z" fill="#797f8d" stroke="#797f8d" stroke-width="1.51"/><path d="M95,1034L181,1169L166,1002Z" fill="#7f8497" stroke="#7f8497" stroke-width="1.51"/><path d="M-86,441L-134,551L68,647Z" fill="#a1ccbb" stroke="#a1ccbb" stroke-width="1.51"/><path d="M803,1217L1040,1297L998,1049Z" fill="#1d568b" stroke="#1d568b" stroke-width="1.51"/><path d="M596,1311L687,1292L667,1145Z" fill="#37688c" stroke="#37688c" stroke-width="1.51"/><path d="M-86,441L-204,543L-134,551Z" fill="#a5d1c2" stroke="#a5d1c2" stroke-width="1.51"/><path d="M43,201L-114,348L51,383Z" fill="#b2deb8" stroke="#b2deb8" stroke-width="1.51"/><path d="M-48,168L-114,348L43,201Z" fill="#bfe4b6" stroke="#bfe4b6" stroke-width="1.51"/><path d="M-52,1300L596,1311L425,1232Z" fill="#617688" stroke="#617688" stroke-width="1.51"/><path d="M425,1232L596,1311L485,1114Z" fill="#486d89" stroke="#486d89" stroke-width="1.51"/><path d="M181,1169L153,1178L425,1232Z" fill="#6a7987" stroke="#6a7987" stroke-width="1.51"/><path d="M-62,1047L153,1178L95,1034Z" fill="#838594" stroke="#838594" stroke-width="1.51"/><path d="M76,5L43,201L273,69Z" fill="#cdebb4" stroke="#cdebb4" stroke-width="1.51"/><path d="M328,-72L76,5L321,-19Z" fill="#d0ecb4" stroke="#d0ecb4" stroke-width="1.51"/><path d="M714,-86L592,-237L634,-56Z" fill="#addbbf" stroke="#addbbf" stroke-width="1.51"/><path d="M909,-42L758,-181L714,-86Z" fill="#a4d1bd" stroke="#a4d1bd" stroke-width="1.51"/><path d="M1245,314L1249,80L1111,259Z" fill="#699ab3" stroke="#699ab3" stroke-width="1.51"/><path d="M909,-42L953,-204L758,-181Z" fill="#a3ccc1" stroke="#a3ccc1" stroke-width="1.51"/><path d="M1410,436L1342,327L1206,474Z" fill="#4384b2" stroke="#4384b2" stroke-width="1.51"/><path d="M-269,470L-204,543L-86,441Z" fill="#a8d5c5" stroke="#a8d5c5" stroke-width="1.51"/><path d="M-299,738L-175,890L2,747Z" fill="#9cabb8" stroke="#9cabb8" stroke-width="1.51"/><path d="M-269,470L-86,441L-114,348Z" fill="#acdac3" stroke="#acdac3" stroke-width="1.51"/><path d="M328,-72L254,-191L76,5Z" fill="#d8efb3" stroke="#d8efb3" stroke-width="1.51"/><path d="M592,-237L428,-212L634,-56Z" fill="#b7e0c1" stroke="#b7e0c1" stroke-width="1.51"/><path d="M3,978L-62,1047L95,1034Z" fill="#8e8ba0" stroke="#8e8ba0" stroke-width="1.51"/><path d="M-175,890L54,858L2,747Z" fill="#97a3ae" stroke="#97a3ae" stroke-width="1.51"/><path d="M758,-181L592,-237L714,-86Z" fill="#acdac4" stroke="#acdac4" stroke-width="1.51"/><path d="M1342,327L1249,80L1245,314Z" fill="#6392b1" stroke="#6392b1" stroke-width="1.51"/><path d="M-299,738L2,747L-134,551Z" fill="#9ebcbe" stroke="#9ebcbe" stroke-width="1.51"/><path d="M1249,80L1159,-34L992,186Z" fill="#87abb4" stroke="#87abb4" stroke-width="1.51"/><path d="M1342,327L1410,75L1249,80Z" fill="#7693ad" stroke="#7693ad" stroke-width="1.51"/><path d="M1282,682L1410,436L1206,474Z" fill="#327cb3" stroke="#327cb3" stroke-width="1.51"/><path d="M1538,486L1410,436L1541,626Z" fill="#386dab" stroke="#386dab" stroke-width="1.51"/><path d="M428,-212L254,-191L328,-72Z" fill="#cdebbd" stroke="#cdebbd" stroke-width="1.51"/><path d="M592,-237L254,-191L428,-212Z" fill="#c5e7c4" stroke="#c5e7c4" stroke-width="1.51"/><path d="M1374,970L1188,772L1145,978Z" fill="#2553a3" stroke="#2553a3" stroke-width="1.51"/><path d="M687,1292L1040,1297L803,1217Z" fill="#255d8c" stroke="#255d8c" stroke-width="1.51"/><path d="M596,1311L1040,1297L687,1292Z" fill="#2a628c" stroke="#2a628c" stroke-width="1.51"/><path d="M1159,-34L953,-204L909,-42Z" fill="#9dc0ba" stroke="#9dc0ba" stroke-width="1.51"/><path d="M758,-181L953,-204L592,-237Z" fill="#a9d5c9" stroke="#a9d5c9" stroke-width="1.51"/><path d="M-204,543L-299,738L-134,551Z" fill="#a2c7c6" stroke="#a2c7c6" stroke-width="1.51"/><path d="M-227,263L-269,470L-114,348Z" fill="#b5dec4" stroke="#b5dec4" stroke-width="1.51"/><path d="M-48,168L-227,263L-114,348Z" fill="#bfe4bc" stroke="#bfe4bc" stroke-width="1.51"/><path d="M76,5L-64,0L-48,168Z" fill="#dbf1b2" stroke="#dbf1b2" stroke-width="1.51"/><path d="M22,-113L-64,0L76,5Z" fill="#e4f4b2" stroke="#e4f4b2" stroke-width="1.51"/><path d="M-171,83L-227,263L-48,168Z" fill="#d0ecbc" stroke="#d0ecbc" stroke-width="1.51"/><path d="M1374,970L1145,978L1309,1104Z" fill="#234497" stroke="#234497" stroke-width="1.51"/><path d="M-62,1047L-52,1300L153,1178Z" fill="#7e8086" stroke="#7e8086" stroke-width="1.51"/><path d="M-175,890L-161,1021L3,978Z" fill="#9993ab" stroke="#9993ab" stroke-width="1.51"/><path d="M-299,738L-161,1021L-175,890Z" fill="#9c9fb7" stroke="#9c9fb7" stroke-width="1.51"/><path d="M1309,1104L1145,978L1144,1038Z" fill="#224996" stroke="#224996" stroke-width="1.51"/><path d="M1410,436L1453,363L1342,327Z" fill="#4c80ae" stroke="#4c80ae" stroke-width="1.51"/><path d="M1538,486L1453,363L1410,436Z" fill="#4277ad" stroke="#4277ad" stroke-width="1.51"/><path d="M254,-191L22,-113L76,5Z" fill="#e2f4b4" stroke="#e2f4b4" stroke-width="1.51"/><path d="M1288,1256L1309,1104L1144,1038Z" fill="#193e84" stroke="#193e84" stroke-width="1.51"/><path d="M-216,24L-171,83L-64,0Z" fill="#e4f5b9" stroke="#e4f5b9" stroke-width="1.51"/><path d="M-64,0L-171,83L-48,168Z" fill="#ddf2b6" stroke="#ddf2b6" stroke-width="1.51"/><path d="M-269,470L-299,738L-204,543Z" fill="#a4cbca" stroke="#a4cbca" stroke-width="1.51"/><path d="M1425,834L1541,626L1282,682Z" fill="#285ca7" stroke="#285ca7" stroke-width="1.51"/><path d="M1374,970L1460,881L1425,834Z" fill="#26459c" stroke="#26459c" stroke-width="1.51"/><path d="M1532,1116L1460,881L1374,970Z" fill="#253794" stroke="#253794" stroke-width="1.51"/><path d="M1159,-34L1069,-243L953,-204Z" fill="#9ebbbf" stroke="#9ebbbf" stroke-width="1.51"/><path d="M953,-204L1069,-243L592,-237Z" fill="#a6ceca" stroke="#a6ceca" stroke-width="1.51"/><path d="M1234,-149L1069,-243L1159,-34Z" fill="#9cb1b9" stroke="#9cb1b9" stroke-width="1.51"/><path d="M1312,-57L1159,-34L1249,80Z" fill="#8fa3b0" stroke="#8fa3b0" stroke-width="1.51"/><path d="M1460,881L1503,815L1425,834Z" fill="#26479d" stroke="#26479d" stroke-width="1.51"/><path d="M1410,75L1312,-57L1249,80Z" fill="#8b9bad" stroke="#8b9bad" stroke-width="1.51"/><path d="M1541,626L1410,436L1282,682Z" fill="#306dae" stroke="#306dae" stroke-width="1.51"/><path d="M1503,815L1541,626L1425,834Z" fill="#2850a1" stroke="#2850a1" stroke-width="1.51"/><path d="M1410,75L1342,327L1522,135Z" fill="#728aaa" stroke="#728aaa" stroke-width="1.51"/><path d="M1309,1104L1532,1116L1374,970Z" fill="#1f368a" stroke="#1f368a" stroke-width="1.51"/><path d="M1676,984L1628,780L1503,815Z" fill="#203e8e" stroke="#203e8e" stroke-width="1.51"/><path d="M1040,1297L1190,1317L1144,1038Z" fill="#194784" stroke="#194784" stroke-width="1.51"/><path d="M596,1311L1190,1317L1040,1297Z" fill="#1e578b" stroke="#1e578b" stroke-width="1.51"/><path d="M1522,135L1342,327L1453,363Z" fill="#5d82ab" stroke="#5d82ab" stroke-width="1.51"/><path d="M1312,-57L1234,-149L1159,-34Z" fill="#98a7af" stroke="#98a7af" stroke-width="1.51"/><path d="M-187,1257L-52,1300L-62,1047Z" fill="#848289" stroke="#848289" stroke-width="1.51"/><path d="M153,1178L-52,1300L425,1232Z" fill="#737c87" stroke="#737c87" stroke-width="1.51"/><path d="M-187,1257L-62,1047L-161,1021Z" fill="#8b8796" stroke="#8b8796" stroke-width="1.51"/><path d="M-73,-155L-216,24L-64,0Z" fill="#ebf8b6" stroke="#ebf8b6" stroke-width="1.51"/><path d="M-171,83L-216,24L-227,263Z" fill="#daf0bf" stroke="#daf0bf" stroke-width="1.51"/><path d="M-227,263L-253,-144L-269,470Z" fill="#ceebc4" stroke="#ceebc4" stroke-width="1.51"/><path d="M1190,1317L1288,1256L1144,1038Z" fill="#173f80" stroke="#173f80" stroke-width="1.51"/><path d="M22,-113L-73,-155L-64,0Z" fill="#ecf8b1" stroke="#ecf8b1" stroke-width="1.51"/><path d="M254,-191L-73,-155L22,-113Z" fill="#e8f6b9" stroke="#e8f6b9" stroke-width="1.51"/><path d="M-253,-144L-73,-155L254,-191Z" fill="#eff9ba" stroke="#eff9ba" stroke-width="1.51"/><path d="M1731,255L1522,135L1453,363Z" fill="#5d7b9f" stroke="#5d7b9f" stroke-width="1.51"/><path d="M1410,75L1345,-135L1312,-57Z" fill="#939aab" stroke="#939aab" stroke-width="1.51"/><path d="M1312,-57L1345,-135L1234,-149Z" fill="#99a2b0" stroke="#99a2b0" stroke-width="1.51"/><path d="M1546,25L1345,-135L1410,75Z" fill="#9093a9" stroke="#9093a9" stroke-width="1.51"/><path d="M1234,-149L1513,-248L1069,-243Z" fill="#9da6bb" stroke="#9da6bb" stroke-width="1.51"/><path d="M-299,738L-187,1257L-161,1021Z" fill="#9990ae" stroke="#9990ae" stroke-width="1.51"/><path d="M1503,815L1628,780L1541,626Z" fill="#254f9a" stroke="#254f9a" stroke-width="1.51"/><path d="M1698,548L1672,403L1538,486Z" fill="#33699a" stroke="#33699a" stroke-width="1.51"/><path d="M1538,486L1672,403L1453,363Z" fill="#4172a4" stroke="#4172a4" stroke-width="1.51"/><path d="M1676,984L1503,815L1460,881Z" fill="#233c92" stroke="#233c92" stroke-width="1.51"/><path d="M1288,1256L1532,1116L1309,1104Z" fill="#18327a" stroke="#18327a" stroke-width="1.51"/><path d="M1586,1219L1532,1116L1288,1256Z" fill="#172a76" stroke="#172a76" stroke-width="1.51"/><path d="M1698,548L1538,486L1541,626Z" fill="#2e649f" stroke="#2e649f" stroke-width="1.51"/><path d="M1680,115L1546,25L1522,135Z" fill="#7c859b" stroke="#7c859b" stroke-width="1.51"/><path d="M1522,135L1546,25L1410,75Z" fill="#858aa7" stroke="#858aa7" stroke-width="1.51"/><path d="M-73,-155L-253,-144L-216,24Z" fill="#f2fabc" stroke="#f2fabc" stroke-width="1.51"/><path d="M-216,24L-253,-144L-227,263Z" fill="#e6f5c0" stroke="#e6f5c0" stroke-width="1.51"/><path d="M-269,470L-253,-144L-299,738Z" fill="#b7e0c9" stroke="#b7e0c9" stroke-width="1.51"/><path d="M592,-237L-253,-144L254,-191Z" fill="#e0f3be" stroke="#e0f3be" stroke-width="1.51"/><path d="M1676,984L1698,548L1628,780Z" fill="#1c458b" stroke="#1c458b" stroke-width="1.51"/><path d="M1628,780L1698,548L1541,626Z" fill="#235898" stroke="#235898" stroke-width="1.51"/><path d="M1532,1116L1676,984L1460,881Z" fill="#21308b" stroke="#21308b" stroke-width="1.51"/><path d="M1731,255L1453,363L1672,403Z" fill="#4b729b" stroke="#4b729b" stroke-width="1.51"/><path d="M1731,255L1680,115L1522,135Z" fill="#6a7c95" stroke="#6a7c95" stroke-width="1.51"/><path d="M1546,25L1513,-248L1345,-135Z" fill="#9892ab" stroke="#9892ab" stroke-width="1.51"/><path d="M1698,548L1731,255L1672,403Z" fill="#3b6a92" stroke="#3b6a92" stroke-width="1.51"/><path d="M1702,1040L1731,255L1698,548Z" fill="#1f588f" stroke="#1f588f" stroke-width="1.51"/><path d="M1532,1116L1702,1040L1676,984Z" fill="#182978" stroke="#182978" stroke-width="1.51"/><path d="M1190,1317L1586,1219L1288,1256Z" fill="#17337b" stroke="#17337b" stroke-width="1.51"/><path d="M1676,984L1702,1040L1698,548Z" fill="#1b3983" stroke="#1b3983" stroke-width="1.51"/><path d="M1650,1228L1702,1040L1532,1116Z" fill="#12246b" stroke="#12246b" stroke-width="1.51"/><path d="M1731,255L1682,5L1680,115Z" fill="#6e7c8e" stroke="#6e7c8e" stroke-width="1.51"/><path d="M1680,115L1682,5L1546,25Z" fill="#7e8395" stroke="#7e8395" stroke-width="1.51"/><path d="M1635,-228L1513,-248L1546,25Z" fill="#948da4" stroke="#948da4" stroke-width="1.51"/><path d="M1345,-135L1513,-248L1234,-149Z" fill="#9b9db4" stroke="#9b9db4" stroke-width="1.51"/><path d="M1586,1219L1650,1228L1532,1116Z" fill="#11246a" stroke="#11246a" stroke-width="1.51"/><path d="M1190,1317L1650,1228L1586,1219Z" fill="#172a76" stroke="#172a76" stroke-width="1.51"/><path d="M1682,5L1635,-228L1546,25Z" fill="#8b8896" stroke="#8b8896" stroke-width="1.51"/></svg>