<svg xmlns="http://www.w3.org/2000/svg" width="1440" height="900"><path d="M633,515L506,674L663,612Z" fill="#6bbf74" stroke="#6bbf74" stroke-width="1.51"/><path d="M633,515L457,584L506,674Z" fill="#73c279" stroke="#73c279" stroke-width="1.51"/><path d="M633,515L423,497L457,584Z" fill="#7dc77f" stroke="#7dc77f" stroke-width="1.51"/><path d="M506,674L528,777L663,612Z" fill="#66b870" stroke="#66b870" stroke-width="1.51"/><path d="M395,785L528,777L506,674Z" fill="#6ab772" stroke="#6ab772" stroke-width="1.51"/><path d="M395,785L506,674L293,639Z" fill="#74bd7b" stroke="#74bd7b" stroke-width="1.51"/><path d="M633,515L697,401L423,497Z" fill="#7dc87e" stroke="#7dc87e" stroke-width="1.51"/><path d="M903,592L697,401L633,515Z" fill="#6bbf71" stroke="#6bbf71" stroke-width="1.51"/><path d="M293,639L506,674L457,584Z" fill="#77c37e" stroke="#77c37e" stroke-width="1.51"/><path d="M528,777L782,791L663,612Z" fill="#5bb167" stroke="#5bb167" stroke-width="1.51"/><path d="M395,785L476,848L528,777Z" fill="#67b26e" stroke="#67b26e" stroke-width="1.51"/><path d="M423,497L293,639L457,584Z" fill="#81c885" stroke="#81c885" stroke-width="1.51"/><path d="M765,872L782,791L528,777Z" fill="#51a85e" stroke="#51a85e" stroke-width="1.51"/><path d="M663,612L903,592L633,515Z" fill="#62bb6d" stroke="#62bb6d" stroke-width="1.51"/><path d="M782,791L903,592L663,612Z" fill="#53b164" stroke="#53b164" stroke-width="1.51"/><path d="M782,791L852,788L903,592Z" fill="#48a95d" stroke="#48a95d" stroke-width="1.51"/><path d="M499,955L765,872L528,777Z" fill="#57a661" stroke="#57a661" stroke-width="1.51"/><path d="M423,497L210,435L293,639Z" fill="#8dcf8e" stroke="#8dcf8e" stroke-width="1.51"/><path d="M561,212L355,310L423,497Z" fill="#9ad695" stroke="#9ad695" stroke-width="1.51"/><path d="M765,872L852,788L782,791Z" fill="#46a258" stroke="#46a258" stroke-width="1.51"/><path d="M697,401L561,212L423,497Z" fill="#8dcf8a" stroke="#8dcf8a" stroke-width="1.51"/><path d="M927,398L813,329L697,401Z" fill="#75c479" stroke="#75c479" stroke-width="1.51"/><path d="M679,204L606,225L697,401Z" fill="#90d18c" stroke="#90d18c" stroke-width="1.51"/><path d="M476,848L499,955L528,777Z" fill="#60ab68" stroke="#60ab68" stroke-width="1.51"/><path d="M342,1049L499,955L476,848Z" fill="#60a666" stroke="#60a666" stroke-width="1.51"/><path d="M250,848L476,848L395,785Z" fill="#6cb274" stroke="#6cb274" stroke-width="1.51"/><path d="M355,310L265,364L423,497Z" fill="#9bd696" stroke="#9bd696" stroke-width="1.51"/><path d="M606,225L561,212L697,401Z" fill="#93d28e" stroke="#93d28e" stroke-width="1.51"/><path d="M265,364L210,435L423,497Z" fill="#9ad596" stroke="#9ad596" stroke-width="1.51"/><path d="M293,639L214,783L395,785Z" fill="#79bd7f" stroke="#79bd7f" stroke-width="1.51"/><path d="M71,533L214,783L293,639Z" fill="#87c98d" stroke="#87c98d" stroke-width="1.51"/><path d="M813,329L783,256L697,401Z" fill="#80c980" stroke="#80c980" stroke-width="1.51"/><path d="M606,225L679,204L561,212Z" fill="#9bd696" stroke="#9bd696" stroke-width="1.51"/><path d="M783,256L679,204L697,401Z" fill="#89ce87" stroke="#89ce87" stroke-width="1.51"/><path d="M214,783L250,848L395,785Z" fill="#75b77b" stroke="#75b77b" stroke-width="1.51"/><path d="M903,592L927,398L697,401Z" fill="#67bd6f" stroke="#67bd6f" stroke-width="1.51"/><path d="M813,329L962,246L783,256Z" fill="#7fc881" stroke="#7fc881" stroke-width="1.51"/><path d="M903,592L988,567L927,398Z" fill="#56b566" stroke="#56b566" stroke-width="1.51"/><path d="M1062,701L988,567L903,592Z" fill="#42ab5d" stroke="#42ab5d" stroke-width="1.51"/><path d="M988,567L996,429L927,398Z" fill="#5bb769" stroke="#5bb769" stroke-width="1.51"/><path d="M927,398L962,246L813,329Z" fill="#74c37a" stroke="#74c37a" stroke-width="1.51"/><path d="M561,212L456,130L355,310Z" fill="#a8dca1" stroke="#a8dca1" stroke-width="1.51"/><path d="M133,173L113,346L265,364Z" fill="#b3e1ad" stroke="#b3e1ad" stroke-width="1.51"/><path d="M528,7L456,130L561,212Z" fill="#addea7" stroke="#addea7" stroke-width="1.51"/><path d="M499,955L569,1065L765,872Z" fill="#4f9e59" stroke="#4f9e59" stroke-width="1.51"/><path d="M988,902L1062,701L852,788Z" fill="#359c52" stroke="#359c52" stroke-width="1.51"/><path d="M342,1049L569,1065L499,955Z" fill="#599c5f" stroke="#599c5f" stroke-width="1.51"/><path d="M210,435L71,533L293,639Z" fill="#95d195" stroke="#95d195" stroke-width="1.51"/><path d="M167,1032L342,1049L250,848Z" fill="#6ca970" stroke="#6ca970" stroke-width="1.51"/><path d="M66,464L71,533L210,435Z" fill="#a0d79e" stroke="#a0d79e" stroke-width="1.51"/><path d="M113,346L210,435L265,364Z" fill="#a8dba2" stroke="#a8dba2" stroke-width="1.51"/><path d="M250,848L342,1049L476,848Z" fill="#68ac6e" stroke="#68ac6e" stroke-width="1.51"/><path d="M91,879L250,848L214,783Z" fill="#7ab87f" stroke="#7ab87f" stroke-width="1.51"/><path d="M852,788L1062,701L903,592Z" fill="#40a75a" stroke="#40a75a" stroke-width="1.51"/><path d="M1230,389L1199,316L996,429Z" fill="#5eb169" stroke="#5eb169" stroke-width="1.51"/><path d="M943,945L852,788L765,872Z" fill="#3d9b52" stroke="#3d9b52" stroke-width="1.51"/><path d="M246,125L265,364L355,310Z" fill="#afdfa8" stroke="#afdfa8" stroke-width="1.51"/><path d="M113,346L66,464L210,435Z" fill="#a7dba3" stroke="#a7dba3" stroke-width="1.51"/><path d="M569,1065L704,1087L765,872Z" fill="#469652" stroke="#469652" stroke-width="1.51"/><path d="M824,1163L704,1087L779,1226Z" fill="#387f44" stroke="#387f44" stroke-width="1.51"/><path d="M888,1114L943,945L765,872Z" fill="#34914a" stroke="#34914a" stroke-width="1.51"/><path d="M1097,172L962,246L1199,316Z" fill="#72bc79" stroke="#72bc79" stroke-width="1.51"/><path d="M996,429L962,246L927,398Z" fill="#6bbe74" stroke="#6bbe74" stroke-width="1.51"/><path d="M783,256L746,16L679,204Z" fill="#96d393" stroke="#96d393" stroke-width="1.51"/><path d="M528,7L397,47L456,130Z" fill="#b7e2b0" stroke="#b7e2b0" stroke-width="1.51"/><path d="M943,945L988,902L852,788Z" fill="#34974e" stroke="#34974e" stroke-width="1.51"/><path d="M-4,715L214,783L71,533Z" fill="#8bc891" stroke="#8bc891" stroke-width="1.51"/><path d="M24,817L91,879L214,783Z" fill="#80ba85" stroke="#80ba85" stroke-width="1.51"/><path d="M456,130L246,125L355,310Z" fill="#b2e1ab" stroke="#b2e1ab" stroke-width="1.51"/><path d="M456,130L397,47L246,125Z" fill="#bbe4b4" stroke="#bbe4b4" stroke-width="1.51"/><path d="M528,7L561,212L679,204Z" fill="#a4da9f" stroke="#a4da9f" stroke-width="1.51"/><path d="M-21,542L-4,715L71,533Z" fill="#98d19b" stroke="#98d19b" stroke-width="1.51"/><path d="M746,16L528,7L679,204Z" fill="#a6daa1" stroke="#a6daa1" stroke-width="1.51"/><path d="M-4,715L24,817L214,783Z" fill="#85c08b" stroke="#85c08b" stroke-width="1.51"/><path d="M66,464L-21,542L71,533Z" fill="#a0d6a0" stroke="#a0d6a0" stroke-width="1.51"/><path d="M-53,432L-21,542L66,464Z" fill="#a7daa5" stroke="#a7daa5" stroke-width="1.51"/><path d="M-53,432L66,464L113,346Z" fill="#acdda8" stroke="#acdda8" stroke-width="1.51"/><path d="M91,879L167,1032L250,848Z" fill="#76b17a" stroke="#76b17a" stroke-width="1.51"/><path d="M824,1163L888,1114L704,1087Z" fill="#358245" stroke="#358245" stroke-width="1.51"/><path d="M133,1104L167,1032L-25,1059Z" fill="#72a274" stroke="#72a274" stroke-width="1.51"/><path d="M246,125L133,173L265,364Z" fill="#b9e3b2" stroke="#b9e3b2" stroke-width="1.51"/><path d="M0,14L133,173L246,125Z" fill="#cbebc4" stroke="#cbebc4" stroke-width="1.51"/><path d="M929,57L746,16L783,256Z" fill="#95d194" stroke="#95d194" stroke-width="1.51"/><path d="M397,47L313,37L246,125Z" fill="#c1e7ba" stroke="#c1e7ba" stroke-width="1.51"/><path d="M350,-140L313,37L397,47Z" fill="#c6e9bf" stroke="#c6e9bf" stroke-width="1.51"/><path d="M943,945L1003,1013L988,902Z" fill="#288e46" stroke="#288e46" stroke-width="1.51"/><path d="M988,902L1117,906L1062,701Z" fill="#2c934b" stroke="#2c934b" stroke-width="1.51"/><path d="M888,1114L1003,1013L943,945Z" fill="#298843" stroke="#298843" stroke-width="1.51"/><path d="M704,1087L563,1319L779,1226Z" fill="#408348" stroke="#408348" stroke-width="1.51"/><path d="M704,1087L888,1114L765,872Z" fill="#3b904b" stroke="#3b904b" stroke-width="1.51"/><path d="M704,1087L569,1065L563,1319Z" fill="#46864e" stroke="#46864e" stroke-width="1.51"/><path d="M-21,542L-180,564L-4,715Z" fill="#9bd29f" stroke="#9bd29f" stroke-width="1.51"/><path d="M-87,213L-53,432L113,346Z" fill="#bae3b5" stroke="#bae3b5" stroke-width="1.51"/><path d="M1003,1013L1117,906L988,902Z" fill="#258c44" stroke="#258c44" stroke-width="1.51"/><path d="M1230,389L996,429L988,567Z" fill="#55b064" stroke="#55b064" stroke-width="1.51"/><path d="M962,246L929,57L783,256Z" fill="#85ca89" stroke="#85ca89" stroke-width="1.51"/><path d="M1097,172L929,57L962,246Z" fill="#80c686" stroke="#80c686" stroke-width="1.51"/><path d="M1117,906L1170,822L1062,701Z" fill="#2a924a" stroke="#2a924a" stroke-width="1.51"/><path d="M167,1032L265,1193L342,1049Z" fill="#669a69" stroke="#669a69" stroke-width="1.51"/><path d="M-25,1059L167,1032L91,879Z" fill="#77ac7a" stroke="#77ac7a" stroke-width="1.51"/><path d="M824,1163L1075,1231L888,1114Z" fill="#27783d" stroke="#27783d" stroke-width="1.51"/><path d="M1246,1097L1117,906L1003,1013Z" fill="#1c803c" stroke="#1c803c" stroke-width="1.51"/><path d="M1288,926L1170,822L1117,906Z" fill="#1f8741" stroke="#1f8741" stroke-width="1.51"/><path d="M468,1270L569,1065L342,1049Z" fill="#559059" stroke="#559059" stroke-width="1.51"/><path d="M133,1104L265,1193L167,1032Z" fill="#6a9a6c" stroke="#6a9a6c" stroke-width="1.51"/><path d="M1199,316L962,246L996,429Z" fill="#69ba72" stroke="#69ba72" stroke-width="1.51"/><path d="M1059,-15L896,-8L929,57Z" fill="#91ce96" stroke="#91ce96" stroke-width="1.51"/><path d="M929,57L896,-8L746,16Z" fill="#99d39a" stroke="#99d39a" stroke-width="1.51"/><path d="M746,16L719,-136L528,7Z" fill="#afdeaa" stroke="#afdeaa" stroke-width="1.51"/><path d="M265,1193L468,1270L342,1049Z" fill="#5b8e5e" stroke="#5b8e5e" stroke-width="1.51"/><path d="M1230,389L988,567L1272,621Z" fill="#48a65b" stroke="#48a65b" stroke-width="1.51"/><path d="M1272,621L988,567L1062,701Z" fill="#3aa357" stroke="#3aa357" stroke-width="1.51"/><path d="M1170,822L1272,621L1062,701Z" fill="#2f974e" stroke="#2f974e" stroke-width="1.51"/><path d="M133,1104L141,1184L265,1193Z" fill="#67946a" stroke="#67946a" stroke-width="1.51"/><path d="M265,1193L-134,1268L468,1270Z" fill="#669369" stroke="#669369" stroke-width="1.51"/><path d="M-25,1059L141,1184L133,1104Z" fill="#6f9c72" stroke="#6f9c72" stroke-width="1.51"/><path d="M-134,1268L563,1319L468,1270Z" fill="#5f9062" stroke="#5f9062" stroke-width="1.51"/><path d="M468,1270L563,1319L569,1065Z" fill="#4d8853" stroke="#4d8853" stroke-width="1.51"/><path d="M896,-8L719,-136L746,16Z" fill="#a5d8a3" stroke="#a5d8a3" stroke-width="1.51"/><path d="M528,7L350,-140L397,47Z" fill="#c2e6bb" stroke="#c2e6bb" stroke-width="1.51"/><path d="M-53,432L-180,564L-21,542Z" fill="#a7d9a7" stroke="#a7d9a7" stroke-width="1.51"/><path d="M-4,715L-194,757L24,817Z" fill="#8ec493" stroke="#8ec493" stroke-width="1.51"/><path d="M-128,956L-25,1059L91,879Z" fill="#7eb182" stroke="#7eb182" stroke-width="1.51"/><path d="M-293,497L-180,564L-53,432Z" fill="#addbab" stroke="#addbab" stroke-width="1.51"/><path d="M896,-8L940,-219L719,-136Z" fill="#a5d7a5" stroke="#a5d7a5" stroke-width="1.51"/><path d="M1097,172L1059,-15L929,57Z" fill="#88c88d" stroke="#88c88d" stroke-width="1.51"/><path d="M1199,316L1157,134L1097,172Z" fill="#73ba79" stroke="#73ba79" stroke-width="1.51"/><path d="M1382,340L1157,134L1199,316Z" fill="#68b26f" stroke="#68b26f" stroke-width="1.51"/><path d="M1230,389L1382,340L1199,316Z" fill="#5bab65" stroke="#5bab65" stroke-width="1.51"/><path d="M1272,621L1303,459L1230,389Z" fill="#47a259" stroke="#47a259" stroke-width="1.51"/><path d="M133,173L-87,213L113,346Z" fill="#c0e6ba" stroke="#c0e6ba" stroke-width="1.51"/><path d="M-95,133L-87,213L133,173Z" fill="#ccebc5" stroke="#ccebc5" stroke-width="1.51"/><path d="M-128,956L91,879L24,817Z" fill="#82b887" stroke="#82b887" stroke-width="1.51"/><path d="M47,-101L0,14L246,125Z" fill="#d5eecd" stroke="#d5eecd" stroke-width="1.51"/><path d="M513,-236L350,-140L528,7Z" fill="#c5e8c0" stroke="#c5e8c0" stroke-width="1.51"/><path d="M-180,564L-194,757L-4,715Z" fill="#97cd9c" stroke="#97cd9c" stroke-width="1.51"/><path d="M350,-140L323,-153L313,37Z" fill="#cdebc7" stroke="#cdebc7" stroke-width="1.51"/><path d="M513,-236L323,-153L350,-140Z" fill="#cdebc8" stroke="#cdebc8" stroke-width="1.51"/><path d="M1157,134L1059,-15L1097,172Z" fill="#81c287" stroke="#81c287" stroke-width="1.51"/><path d="M-194,757L-128,956L24,817Z" fill="#8abd8f" stroke="#8abd8f" stroke-width="1.51"/><path d="M1272,621L1468,591L1303,459Z" fill="#399950" stroke="#399950" stroke-width="1.51"/><path d="M1170,822L1338,781L1272,621Z" fill="#278f48" stroke="#278f48" stroke-width="1.51"/><path d="M1288,926L1338,781L1170,822Z" fill="#1f8641" stroke="#1f8641" stroke-width="1.51"/><path d="M1288,926L1117,906L1246,1097Z" fill="#167d3a" stroke="#167d3a" stroke-width="1.51"/><path d="M1075,1231L1003,1013L888,1114Z" fill="#217a3c" stroke="#217a3c" stroke-width="1.51"/><path d="M-87,213L-193,214L-53,432Z" fill="#c3e7be" stroke="#c3e7be" stroke-width="1.51"/><path d="M0,14L-95,133L133,173Z" fill="#d1edca" stroke="#d1edca" stroke-width="1.51"/><path d="M-194,757L-156,946L-128,956Z" fill="#89ba8e" stroke="#89ba8e" stroke-width="1.51"/><path d="M-288,1061L-158,1223L-25,1059Z" fill="#7ba07e" stroke="#7ba07e" stroke-width="1.51"/><path d="M47,-101L246,125L313,37Z" fill="#cdecc6" stroke="#cdecc6" stroke-width="1.51"/><path d="M779,1226L1075,1231L824,1163Z" fill="#2b793e" stroke="#2b793e" stroke-width="1.51"/><path d="M563,1319L1075,1231L779,1226Z" fill="#347d42" stroke="#347d42" stroke-width="1.51"/><path d="M940,-219L513,-236L719,-136Z" fill="#b3dfb1" stroke="#b3dfb1" stroke-width="1.51"/><path d="M719,-136L513,-236L528,7Z" fill="#bbe3b6" stroke="#bbe3b6" stroke-width="1.51"/><path d="M1468,591L1395,665L1479,688Z" fill="#268c45" stroke="#268c45" stroke-width="1.51"/><path d="M1338,781L1395,665L1272,621Z" fill="#288f48" stroke="#288f48" stroke-width="1.51"/><path d="M-180,564L-293,497L-194,757Z" fill="#a1d5a5" stroke="#a1d5a5" stroke-width="1.51"/><path d="M-95,133L-193,214L-87,213Z" fill="#cfecc9" stroke="#cfecc9" stroke-width="1.51"/><path d="M-257,188L-193,214L-240,50Z" fill="#d6efd1" stroke="#d6efd1" stroke-width="1.51"/><path d="M1075,1231L1246,1097L1003,1013Z" fill="#1a7438" stroke="#1a7438" stroke-width="1.51"/><path d="M1479,688L1395,665L1338,781Z" fill="#238943" stroke="#238943" stroke-width="1.51"/><path d="M1303,459L1382,340L1230,389Z" fill="#53a65f" stroke="#53a65f" stroke-width="1.51"/><path d="M1157,134L1194,3L1059,-15Z" fill="#85c28a" stroke="#85c28a" stroke-width="1.51"/><path d="M1497,366L1382,340L1524,445Z" fill="#4e9d58" stroke="#4e9d58" stroke-width="1.51"/><path d="M1059,-15L1027,-160L896,-8Z" fill="#95ce9a" stroke="#95ce9a" stroke-width="1.51"/><path d="M1404,54L1194,3L1157,134Z" fill="#7dba82" stroke="#7dba82" stroke-width="1.51"/><path d="M-193,214L-293,497L-53,432Z" fill="#bbe2b6" stroke="#bbe2b6" stroke-width="1.51"/><path d="M-288,1061L-128,956L-156,946Z" fill="#84b187" stroke="#84b187" stroke-width="1.51"/><path d="M-240,50L-193,214L-95,133Z" fill="#d7efd1" stroke="#d7efd1" stroke-width="1.51"/><path d="M323,-153L47,-101L313,37Z" fill="#d4eecd" stroke="#d4eecd" stroke-width="1.51"/><path d="M88,-190L47,-101L323,-153Z" fill="#dcf2d6" stroke="#dcf2d6" stroke-width="1.51"/><path d="M1194,3L1027,-160L1059,-15Z" fill="#8fc895" stroke="#8fc895" stroke-width="1.51"/><path d="M1027,-160L940,-219L896,-8Z" fill="#9cd2a0" stroke="#9cd2a0" stroke-width="1.51"/><path d="M1395,665L1468,591L1272,621Z" fill="#2c924a" stroke="#2c924a" stroke-width="1.51"/><path d="M1479,688L1338,781L1549,885Z" fill="#19803c" stroke="#19803c" stroke-width="1.51"/><path d="M1549,885L1338,781L1288,926Z" fill="#157d39" stroke="#157d39" stroke-width="1.51"/><path d="M1075,1231L1205,1232L1246,1097Z" fill="#146a32" stroke="#146a32" stroke-width="1.51"/><path d="M563,1319L1205,1232L1075,1231Z" fill="#25773c" stroke="#25773c" stroke-width="1.51"/><path d="M-240,50L-95,133L0,14Z" fill="#dbf1d5" stroke="#dbf1d5" stroke-width="1.51"/><path d="M513,-236L88,-190L323,-153Z" fill="#d4eecf" stroke="#d4eecf" stroke-width="1.51"/><path d="M-193,214L-257,188L-293,497Z" fill="#c7e8c2" stroke="#c7e8c2" stroke-width="1.51"/><path d="M-62,-115L0,14L47,-101Z" fill="#e1f4db" stroke="#e1f4db" stroke-width="1.51"/><path d="M1549,885L1288,926L1430,1158Z" fill="#05702f" stroke="#05702f" stroke-width="1.51"/><path d="M88,-190L-62,-115L47,-101Z" fill="#e3f4de" stroke="#e3f4de" stroke-width="1.51"/><path d="M1382,340L1404,54L1157,134Z" fill="#6fb174" stroke="#6fb174" stroke-width="1.51"/><path d="M1524,445L1382,340L1303,459Z" fill="#4c9f58" stroke="#4c9f58" stroke-width="1.51"/><path d="M1524,445L1303,459L1468,591Z" fill="#3f9850" stroke="#3f9850" stroke-width="1.51"/><path d="M-288,1061L-156,946L-194,757Z" fill="#89b88d" stroke="#89b88d" stroke-width="1.51"/><path d="M-288,1061L-25,1059L-128,956Z" fill="#80ac83" stroke="#80ac83" stroke-width="1.51"/><path d="M-25,1059L-134,1268L141,1184Z" fill="#729874" stroke="#729874" stroke-width="1.51"/><path d="M141,1184L-134,1268L265,1193Z" fill="#6c956f" stroke="#6c956f" stroke-width="1.51"/><path d="M-62,-115L-240,50L0,14Z" fill="#e1f3dc" stroke="#e1f3dc" stroke-width="1.51"/><path d="M1598,423L1524,445L1711,531Z" fill="#3e8c4a" stroke="#3e8c4a" stroke-width="1.51"/><path d="M-158,1223L-134,1268L-25,1059Z" fill="#769979" stroke="#769979" stroke-width="1.51"/><path d="M-158,1223L-288,1061L-134,1268Z" fill="#799b7c" stroke="#799b7c" stroke-width="1.51"/><path d="M-293,497L-288,1061L-194,757Z" fill="#94c69b" stroke="#94c69b" stroke-width="1.51"/><path d="M1027,-160L1229,-245L940,-219Z" fill="#9acda0" stroke="#9acda0" stroke-width="1.51"/><path d="M1194,3L1229,-245L1027,-160Z" fill="#91c697" stroke="#91c697" stroke-width="1.51"/><path d="M1481,139L1404,54L1382,340Z" fill="#69aa6e" stroke="#69aa6e" stroke-width="1.51"/><path d="M1481,139L1382,340L1497,366Z" fill="#5ca363" stroke="#5ca363" stroke-width="1.51"/><path d="M1404,54L1342,-67L1194,3Z" fill="#80b884" stroke="#80b884" stroke-width="1.51"/><path d="M1704,345L1481,139L1497,366Z" fill="#589b5e" stroke="#589b5e" stroke-width="1.51"/><path d="M1470,-69L1394,-156L1342,-67Z" fill="#83b687" stroke="#83b687" stroke-width="1.51"/><path d="M1711,531L1524,445L1468,591Z" fill="#378c48" stroke="#378c48" stroke-width="1.51"/><path d="M1430,1158L1288,926L1246,1097Z" fill="#0c6e30" stroke="#0c6e30" stroke-width="1.51"/><path d="M1205,1232L1376,1231L1246,1097Z" fill="#0e642d" stroke="#0e642d" stroke-width="1.51"/><path d="M563,1319L1376,1231L1205,1232Z" fill="#1c7137" stroke="#1c7137" stroke-width="1.51"/><path d="M1376,1231L1430,1158L1246,1097Z" fill="#09602a" stroke="#09602a" stroke-width="1.51"/><path d="M1524,445L1598,423L1497,366Z" fill="#479652" stroke="#479652" stroke-width="1.51"/><path d="M1711,531L1468,591L1479,688Z" fill="#298843" stroke="#298843" stroke-width="1.51"/><path d="M1394,-156L1229,-245L1342,-67Z" fill="#8abc8f" stroke="#8abc8f" stroke-width="1.51"/><path d="M1342,-67L1229,-245L1194,3Z" fill="#8bbf90" stroke="#8bbf90" stroke-width="1.51"/><path d="M940,-219L1229,-245L513,-236Z" fill="#a7d8aa" stroke="#a7d8aa" stroke-width="1.51"/><path d="M1376,1231L1456,1205L1430,1158Z" fill="#045c27" stroke="#045c27" stroke-width="1.51"/><path d="M1430,1158L1593,1054L1549,885Z" fill="#006528" stroke="#006528" stroke-width="1.51"/><path d="M-62,-115L-168,-245L-240,50Z" fill="#eaf7e5" stroke="#eaf7e5" stroke-width="1.51"/><path d="M88,-190L-168,-245L-62,-115Z" fill="#eaf7e5" stroke="#eaf7e5" stroke-width="1.51"/><path d="M513,-236L-168,-245L88,-190Z" fill="#e1f3dc" stroke="#e1f3dc" stroke-width="1.51"/><path d="M1229,-245L-168,-245L513,-236Z" fill="#c6e8c2" stroke="#c6e8c2" stroke-width="1.51"/><path d="M1456,1205L1521,1156L1430,1158Z" fill="#015a24" stroke="#015a24" stroke-width="1.51"/><path d="M1709,797L1711,531L1479,688Z" fill="#1f7b3c" stroke="#1f7b3c" stroke-width="1.51"/><path d="M1470,-69L1404,54L1592,36Z" fill="#77ad7a" stroke="#77ad7a" stroke-width="1.51"/><path d="M1470,-69L1342,-67L1404,54Z" fill="#7eb382" stroke="#7eb382" stroke-width="1.51"/><path d="M1592,36L1404,54L1481,139Z" fill="#71aa74" stroke="#71aa74" stroke-width="1.51"/><path d="M1521,1156L1593,1054L1430,1158Z" fill="#005b24" stroke="#005b24" stroke-width="1.51"/><path d="M1598,423L1704,345L1497,366Z" fill="#4a9253" stroke="#4a9253" stroke-width="1.51"/><path d="M1709,797L1479,688L1549,885Z" fill="#157636" stroke="#157636" stroke-width="1.51"/><path d="M1715,981L1709,797L1549,885Z" fill="#0a672d" stroke="#0a672d" stroke-width="1.51"/><path d="M1711,531L1704,345L1598,423Z" fill="#40894b" stroke="#40894b" stroke-width="1.51"/><path d="M1470,-69L1558,-165L1394,-156Z" fill="#82b285" stroke="#82b285" stroke-width="1.51"/><path d="M1649,100L1592,36L1481,139Z" fill="#6ca36f" stroke="#6ca36f" stroke-width="1.51"/><path d="M1704,345L1649,100L1481,139Z" fill="#609b64" stroke="#609b64" stroke-width="1.51"/><path d="M1593,1054L1715,981L1549,885Z" fill="#016328" stroke="#016328" stroke-width="1.51"/><path d="M1709,797L1715,981L1711,531Z" fill="#156d33" stroke="#156d33" stroke-width="1.51"/><path d="M1599,1235L1715,981L1593,1054Z" fill="#005522" stroke="#005522" stroke-width="1.51"/><path d="M1521,1156L1599,1235L1593,1054Z" fill="#005321" stroke="#005321" stroke-width="1.51"/><path d="M1456,1205L1599,1235L1521,1156Z" fill="#005622" stroke="#005622" stroke-width="1.51"/><path d="M1376,1231L1599,1235L1456,1205Z" fill="#015924" stroke="#015924" stroke-width="1.51"/><path d="M563,1319L1599,1235L1376,1231Z" fill="#146a32" stroke="#146a32" stroke-width="1.51"/><path d="M1592,36L1558,-165L1470,-69Z" fill="#7bab7f" stroke="#7bab7f" stroke-width="1.51"/><path d="M1394,-156L1668,-244L1229,-245Z" fill="#88b68c" stroke="#88b68c" stroke-width="1.51"/><path d="M1668,-244L1558,-165L1592,36Z" fill="#7ca67f" stroke="#7ca67f" stroke-width="1.51"/><path d="M1558,-165L1668,-244L1394,-156Z" fill="#82ad85" stroke="#82ad85" stroke-width="1.51"/><path d="M1649,100L1668,-244L1592,36Z" fill="#75a177" stroke="#75a177" stroke-width="1.51"/><path d="M1704,345L1668,-244L1649,100Z" fill="#6b9b6e" stroke="#6b9b6e" stroke-width="1.51"/></svg>