<svg xmlns="http://www.w3.org/2000/svg" width="1440" height="900"><path d="M879,390L659,373L745,610Z" fill="#939393" stroke="#939393" stroke-width="1.51"/><path d="M659,373L580,389L745,610Z" fill="#999999" stroke="#999999" stroke-width="1.51"/><path d="M745,610L921,651L879,390Z" fill="#858585" stroke="#858585" stroke-width="1.51"/><path d="M745,610L788,721L921,651Z" fill="#7d7d7d" stroke="#7d7d7d" stroke-width="1.51"/><path d="M525,654L788,721L745,610Z" fill="#868686" stroke="#868686" stroke-width="1.51"/><path d="M921,651L1125,447L879,390Z" fill="#828282" stroke="#828282" stroke-width="1.51"/><path d="M788,721L979,668L921,651Z" fill="#777777" stroke="#777777" stroke-width="1.51"/><path d="M479,572L525,654L745,610Z" fill="#919191" stroke="#919191" stroke-width="1.51"/><path d="M580,389L479,572L745,610Z" fill="#979797" stroke="#979797" stroke-width="1.51"/><path d="M879,390L787,144L659,373Z" fill="#a0a0a0" stroke="#a0a0a0" stroke-width="1.51"/><path d="M659,373L474,129L580,389Z" fill="#afafaf" stroke="#afafaf" stroke-width="1.51"/><path d="M979,668L1125,447L921,651Z" fill="#787878" stroke="#787878" stroke-width="1.51"/><path d="M879,390L859,81L787,144Z" fill="#a4a4a4" stroke="#a4a4a4" stroke-width="1.51"/><path d="M979,668L1122,612L1125,447Z" fill="#757575" stroke="#757575" stroke-width="1.51"/><path d="M479,572L387,679L525,654Z" fill="#979797" stroke="#979797" stroke-width="1.51"/><path d="M323,291L377,577L479,572Z" fill="#a9a9a9" stroke="#a9a9a9" stroke-width="1.51"/><path d="M323,291L479,572L580,389Z" fill="#ababab" stroke="#ababab" stroke-width="1.51"/><path d="M1133,124L859,81L879,390Z" fill="#9d9d9d" stroke="#9d9d9d" stroke-width="1.51"/><path d="M377,577L387,679L479,572Z" fill="#9c9c9c" stroke="#9c9c9c" stroke-width="1.51"/><path d="M525,654L710,977L788,721Z" fill="#7c7c7c" stroke="#7c7c7c" stroke-width="1.51"/><path d="M859,81L712,38L787,144Z" fill="#b0b0b0" stroke="#b0b0b0" stroke-width="1.51"/><path d="M787,144L474,129L659,373Z" fill="#b1b1b1" stroke="#b1b1b1" stroke-width="1.51"/><path d="M712,38L474,129L787,144Z" fill="#b8b8b8" stroke="#b8b8b8" stroke-width="1.51"/><path d="M474,129L323,291L580,389Z" fill="#bababa" stroke="#bababa" stroke-width="1.51"/><path d="M377,577L118,543L387,679Z" fill="#a3a3a3" stroke="#a3a3a3" stroke-width="1.51"/><path d="M474,129L238,211L323,291Z" fill="#c4c4c4" stroke="#c4c4c4" stroke-width="1.51"/><path d="M712,38L544,38L474,129Z" fill="#c0c0c0" stroke="#c0c0c0" stroke-width="1.51"/><path d="M1125,447L1133,124L879,390Z" fill="#8d8d8d" stroke="#8d8d8d" stroke-width="1.51"/><path d="M859,81L844,-300L712,38Z" fill="#b7b7b7" stroke="#b7b7b7" stroke-width="1.51"/><path d="M1382,282L1133,124L1125,447Z" fill="#868686" stroke="#868686" stroke-width="1.51"/><path d="M1013,1037L1156,805L979,668Z" fill="#616161" stroke="#616161" stroke-width="1.51"/><path d="M979,668L1156,805L1122,612Z" fill="#6a6a6a" stroke="#6a6a6a" stroke-width="1.51"/><path d="M420,888L710,977L525,654Z" fill="#7f7f7f" stroke="#7f7f7f" stroke-width="1.51"/><path d="M1013,1037L979,668L788,721Z" fill="#6a6a6a" stroke="#6a6a6a" stroke-width="1.51"/><path d="M1122,612L1304,556L1125,447Z" fill="#717171" stroke="#717171" stroke-width="1.51"/><path d="M387,679L420,888L525,654Z" fill="#8f8f8f" stroke="#8f8f8f" stroke-width="1.51"/><path d="M417,993L420,888L175,1005Z" fill="#7d7d7d" stroke="#7d7d7d" stroke-width="1.51"/><path d="M1133,124L1005,-19L859,81Z" fill="#a4a4a4" stroke="#a4a4a4" stroke-width="1.51"/><path d="M712,38L652,-200L544,38Z" fill="#c2c2c2" stroke="#c2c2c2" stroke-width="1.51"/><path d="M1156,805L1304,556L1122,612Z" fill="#666666" stroke="#666666" stroke-width="1.51"/><path d="M1133,124L1044,-16L1005,-19Z" fill="#a1a1a1" stroke="#a1a1a1" stroke-width="1.51"/><path d="M323,291L118,543L377,577Z" fill="#b0b0b0" stroke="#b0b0b0" stroke-width="1.51"/><path d="M175,117L238,211L474,129Z" fill="#cbcbcb" stroke="#cbcbcb" stroke-width="1.51"/><path d="M710,977L813,1058L788,721Z" fill="#686868" stroke="#686868" stroke-width="1.51"/><path d="M544,1093L813,1058L710,977Z" fill="#5e5e5e" stroke="#5e5e5e" stroke-width="1.51"/><path d="M813,1058L1013,1037L788,721Z" fill="#5f5f5f" stroke="#5f5f5f" stroke-width="1.51"/><path d="M420,888L544,1093L710,977Z" fill="#6d6d6d" stroke="#6d6d6d" stroke-width="1.51"/><path d="M175,1005L420,888L387,679Z" fill="#8b8b8b" stroke="#8b8b8b" stroke-width="1.51"/><path d="M1304,556L1382,282L1125,447Z" fill="#757575" stroke="#757575" stroke-width="1.51"/><path d="M1133,124L1252,-49L1044,-16Z" fill="#9c9c9c" stroke="#9c9c9c" stroke-width="1.51"/><path d="M37,382L118,543L323,291Z" fill="#bcbcbc" stroke="#bcbcbc" stroke-width="1.51"/><path d="M1013,1037L1071,1044L1156,805Z" fill="#505050" stroke="#505050" stroke-width="1.51"/><path d="M1156,805L1400,732L1304,556Z" fill="#5d5d5d" stroke="#5d5d5d" stroke-width="1.51"/><path d="M852,1239L1071,1044L1013,1037Z" fill="#474747" stroke="#474747" stroke-width="1.51"/><path d="M417,993L544,1093L420,888Z" fill="#737373" stroke="#737373" stroke-width="1.51"/><path d="M813,1058L852,1239L1013,1037Z" fill="#4c4c4c" stroke="#4c4c4c" stroke-width="1.51"/><path d="M844,-300L859,81L1005,-19Z" fill="#b2b2b2" stroke="#b2b2b2" stroke-width="1.51"/><path d="M844,-300L652,-200L712,38Z" fill="#c1c1c1" stroke="#c1c1c1" stroke-width="1.51"/><path d="M297,-150L175,117L474,129Z" fill="#d2d2d2" stroke="#d2d2d2" stroke-width="1.51"/><path d="M238,211L37,382L323,291Z" fill="#c5c5c5" stroke="#c5c5c5" stroke-width="1.51"/><path d="M297,-150L474,129L544,38Z" fill="#cdcdcd" stroke="#cdcdcd" stroke-width="1.51"/><path d="M1304,556L1493,578L1382,282Z" fill="#666666" stroke="#666666" stroke-width="1.51"/><path d="M1403,909L1400,732L1156,805Z" fill="#515151" stroke="#515151" stroke-width="1.51"/><path d="M1382,282L1403,178L1133,124Z" fill="#868686" stroke="#868686" stroke-width="1.51"/><path d="M1558,328L1403,178L1382,282Z" fill="#747474" stroke="#747474" stroke-width="1.51"/><path d="M1081,-243L844,-300L1005,-19Z" fill="#b2b2b2" stroke="#b2b2b2" stroke-width="1.51"/><path d="M1403,178L1252,-49L1133,124Z" fill="#919191" stroke="#919191" stroke-width="1.51"/><path d="M118,543L65,656L387,679Z" fill="#a6a6a6" stroke="#a6a6a6" stroke-width="1.51"/><path d="M-115,550L65,656L118,543Z" fill="#b1b1b1" stroke="#b1b1b1" stroke-width="1.51"/><path d="M175,117L37,382L238,211Z" fill="#cccccc" stroke="#cccccc" stroke-width="1.51"/><path d="M1400,732L1493,578L1304,556Z" fill="#5a5a5a" stroke="#5a5a5a" stroke-width="1.51"/><path d="M-73,235L6,399L37,382Z" fill="#c9c9c9" stroke="#c9c9c9" stroke-width="1.51"/><path d="M37,382L6,399L118,543Z" fill="#bcbcbc" stroke="#bcbcbc" stroke-width="1.51"/><path d="M1081,-243L1005,-19L1044,-16Z" fill="#a9a9a9" stroke="#a9a9a9" stroke-width="1.51"/><path d="M844,-300L520,-266L652,-200Z" fill="#c9c9c9" stroke="#c9c9c9" stroke-width="1.51"/><path d="M652,-200L520,-266L544,38Z" fill="#cccccc" stroke="#cccccc" stroke-width="1.51"/><path d="M544,1093L852,1239L813,1058Z" fill="#535353" stroke="#535353" stroke-width="1.51"/><path d="M520,-266L297,-150L544,38Z" fill="#d4d4d4" stroke="#d4d4d4" stroke-width="1.51"/><path d="M175,117L-73,235L37,382Z" fill="#d0d0d0" stroke="#d0d0d0" stroke-width="1.51"/><path d="M1204,1110L1403,909L1156,805Z" fill="#494949" stroke="#494949" stroke-width="1.51"/><path d="M1400,732L1609,778L1493,578Z" fill="#4b4b4b" stroke="#4b4b4b" stroke-width="1.51"/><path d="M1204,1110L1156,805L1071,1044Z" fill="#4a4a4a" stroke="#4a4a4a" stroke-width="1.51"/><path d="M852,1239L1204,1110L1071,1044Z" fill="#414141" stroke="#414141" stroke-width="1.51"/><path d="M1252,-49L1081,-243L1044,-16Z" fill="#a4a4a4" stroke="#a4a4a4" stroke-width="1.51"/><path d="M544,1093L404,1234L852,1239Z" fill="#575757" stroke="#575757" stroke-width="1.51"/><path d="M417,993L404,1234L544,1093Z" fill="#666666" stroke="#666666" stroke-width="1.51"/><path d="M65,656L175,1005L387,679Z" fill="#979797" stroke="#979797" stroke-width="1.51"/><path d="M1403,178L1443,-7L1252,-49Z" fill="#8b8b8b" stroke="#8b8b8b" stroke-width="1.51"/><path d="M1493,578L1558,328L1382,282Z" fill="#656565" stroke="#656565" stroke-width="1.51"/><path d="M1252,-49L1296,-318L1081,-243Z" fill="#a4a4a4" stroke="#a4a4a4" stroke-width="1.51"/><path d="M1588,81L1443,-7L1403,178Z" fill="#7d7d7d" stroke="#7d7d7d" stroke-width="1.51"/><path d="M175,1005L404,1234L417,993Z" fill="#6f6f6f" stroke="#6f6f6f" stroke-width="1.51"/><path d="M520,-266L292,-238L297,-150Z" fill="#dcdcdc" stroke="#dcdcdc" stroke-width="1.51"/><path d="M297,-150L45,-14L175,117Z" fill="#dcdcdc" stroke="#dcdcdc" stroke-width="1.51"/><path d="M5,-79L45,-14L297,-150Z" fill="#e2e2e2" stroke="#e2e2e2" stroke-width="1.51"/><path d="M45,-14L-73,235L175,117Z" fill="#d9d9d9" stroke="#d9d9d9" stroke-width="1.51"/><path d="M6,399L-115,550L118,543Z" fill="#b9b9b9" stroke="#b9b9b9" stroke-width="1.51"/><path d="M65,656L-62,932L175,1005Z" fill="#959595" stroke="#959595" stroke-width="1.51"/><path d="M-240,250L-115,550L6,399Z" fill="#c7c7c7" stroke="#c7c7c7" stroke-width="1.51"/><path d="M-115,550L-106,653L65,656Z" fill="#b0b0b0" stroke="#b0b0b0" stroke-width="1.51"/><path d="M1558,328L1588,81L1403,178Z" fill="#727272" stroke="#727272" stroke-width="1.51"/><path d="M1676,525L1633,291L1558,328Z" fill="#5c5c5c" stroke="#5c5c5c" stroke-width="1.51"/><path d="M1676,525L1558,328L1493,578Z" fill="#565656" stroke="#565656" stroke-width="1.51"/><path d="M1403,909L1609,778L1400,732Z" fill="#454545" stroke="#454545" stroke-width="1.51"/><path d="M1539,992L1609,778L1403,909Z" fill="#393939" stroke="#393939" stroke-width="1.51"/><path d="M1204,1110L1458,1056L1403,909Z" fill="#373737" stroke="#373737" stroke-width="1.51"/><path d="M1348,1178L1458,1056L1204,1110Z" fill="#313131" stroke="#313131" stroke-width="1.51"/><path d="M1633,291L1588,81L1558,328Z" fill="#6a6a6a" stroke="#6a6a6a" stroke-width="1.51"/><path d="M1443,-7L1296,-318L1252,-49Z" fill="#969696" stroke="#969696" stroke-width="1.51"/><path d="M1666,699L1676,525L1493,578Z" fill="#4a4a4a" stroke="#4a4a4a" stroke-width="1.51"/><path d="M852,1239L1348,1178L1204,1110Z" fill="#383838" stroke="#383838" stroke-width="1.51"/><path d="M1609,778L1666,699L1493,578Z" fill="#454545" stroke="#454545" stroke-width="1.51"/><path d="M1760,870L1666,699L1609,778Z" fill="#383838" stroke="#383838" stroke-width="1.51"/><path d="M45,-14L-300,42L-73,235Z" fill="#e1e1e1" stroke="#e1e1e1" stroke-width="1.51"/><path d="M202,-321L5,-79L297,-150Z" fill="#e5e5e5" stroke="#e5e5e5" stroke-width="1.51"/><path d="M1458,1056L1539,992L1403,909Z" fill="#333333" stroke="#333333" stroke-width="1.51"/><path d="M1667,1126L1539,992L1458,1056Z" fill="#252525" stroke="#252525" stroke-width="1.51"/><path d="M-106,653L-62,932L65,656Z" fill="#a4a4a4" stroke="#a4a4a4" stroke-width="1.51"/><path d="M175,1005L149,1225L404,1234Z" fill="#6c6c6c" stroke="#6c6c6c" stroke-width="1.51"/><path d="M1591,-353L1296,-318L1443,-7Z" fill="#8f8f8f" stroke="#8f8f8f" stroke-width="1.51"/><path d="M1081,-243L1296,-318L844,-300Z" fill="#afafaf" stroke="#afafaf" stroke-width="1.51"/><path d="M292,-238L202,-321L297,-150Z" fill="#e2e2e2" stroke="#e2e2e2" stroke-width="1.51"/><path d="M520,-266L202,-321L292,-238Z" fill="#e0e0e0" stroke="#e0e0e0" stroke-width="1.51"/><path d="M844,-300L202,-321L520,-266Z" fill="#d5d5d5" stroke="#d5d5d5" stroke-width="1.51"/><path d="M1591,-353L202,-321L844,-300Z" fill="#bebebe" stroke="#bebebe" stroke-width="1.51"/><path d="M-22,1071L149,1225L175,1005Z" fill="#777777" stroke="#777777" stroke-width="1.51"/><path d="M-62,932L-22,1071L175,1005Z" fill="#848484" stroke="#848484" stroke-width="1.51"/><path d="M-62,932L-241,941L-22,1071Z" fill="#8d8d8d" stroke="#8d8d8d" stroke-width="1.51"/><path d="M-106,653L-223,696L-62,932Z" fill="#a6a6a6" stroke="#a6a6a6" stroke-width="1.51"/><path d="M-115,550L-223,696L-106,653Z" fill="#b2b2b2" stroke="#b2b2b2" stroke-width="1.51"/><path d="M-367,611L-223,696L-115,550Z" fill="#b6b6b6" stroke="#b6b6b6" stroke-width="1.51"/><path d="M-240,250L6,399L-73,235Z" fill="#d1d1d1" stroke="#d1d1d1" stroke-width="1.51"/><path d="M-300,42L-240,250L-73,235Z" fill="#dedede" stroke="#dedede" stroke-width="1.51"/><path d="M1666,699L1882,552L1676,525Z" fill="#434343" stroke="#434343" stroke-width="1.51"/><path d="M1929,386L1804,198L1633,291Z" fill="#595959" stroke="#595959" stroke-width="1.51"/><path d="M1633,291L1804,198L1588,81Z" fill="#686868" stroke="#686868" stroke-width="1.51"/><path d="M1539,992L1760,870L1609,778Z" fill="#333333" stroke="#333333" stroke-width="1.51"/><path d="M1667,1126L1760,870L1539,992Z" fill="#262626" stroke="#262626" stroke-width="1.51"/><path d="M1588,81L1757,-40L1443,-7Z" fill="#777777" stroke="#777777" stroke-width="1.51"/><path d="M1929,386L1633,291L1676,525Z" fill="#525252" stroke="#525252" stroke-width="1.51"/><path d="M-223,696L-241,941L-62,932Z" fill="#9e9e9e" stroke="#9e9e9e" stroke-width="1.51"/><path d="M-22,1071L-193,1183L149,1225Z" fill="#767676" stroke="#767676" stroke-width="1.51"/><path d="M-367,611L-241,941L-223,696Z" fill="#ababab" stroke="#ababab" stroke-width="1.51"/><path d="M-240,250L-367,611L-115,550Z" fill="#c3c3c3" stroke="#c3c3c3" stroke-width="1.51"/><path d="M-300,42L-321,218L-240,250Z" fill="#e0e0e0" stroke="#e0e0e0" stroke-width="1.51"/><path d="M-300,42L45,-14L5,-79Z" fill="#e7e7e7" stroke="#e7e7e7" stroke-width="1.51"/><path d="M1804,198L1757,-40L1588,81Z" fill="#6b6b6b" stroke="#6b6b6b" stroke-width="1.51"/><path d="M1348,1178L1667,1126L1458,1056Z" fill="#242424" stroke="#242424" stroke-width="1.51"/><path d="M1935,784L1882,552L1666,699Z" fill="#383838" stroke="#383838" stroke-width="1.51"/><path d="M1804,198L1972,70L1757,-40Z" fill="#656565" stroke="#656565" stroke-width="1.51"/><path d="M1935,784L1666,699L1760,870Z" fill="#323232" stroke="#323232" stroke-width="1.51"/><path d="M-321,218L-367,611L-240,250Z" fill="#d0d0d0" stroke="#d0d0d0" stroke-width="1.51"/><path d="M-160,-285L-300,42L5,-79Z" fill="#eeeeee" stroke="#eeeeee" stroke-width="1.51"/><path d="M1296,-318L1591,-353L844,-300Z" fill="#a6a6a6" stroke="#a6a6a6" stroke-width="1.51"/><path d="M1716,-226L1591,-353L1443,-7Z" fill="#828282" stroke="#828282" stroke-width="1.51"/><path d="M1882,552L1929,386L1676,525Z" fill="#464646" stroke="#464646" stroke-width="1.51"/><path d="M1978,-67L1716,-226L1757,-40Z" fill="#6f6f6f" stroke="#6f6f6f" stroke-width="1.51"/><path d="M1757,-40L1716,-226L1443,-7Z" fill="#7a7a7a" stroke="#7a7a7a" stroke-width="1.51"/><path d="M202,-321L-160,-285L5,-79Z" fill="#ededed" stroke="#ededed" stroke-width="1.51"/><path d="M-367,611L-193,1183L-241,941Z" fill="#999999" stroke="#999999" stroke-width="1.51"/><path d="M-241,941L-193,1183L-22,1071Z" fill="#838383" stroke="#838383" stroke-width="1.51"/><path d="M1882,552L1935,784L1929,386Z" fill="#3f3f3f" stroke="#3f3f3f" stroke-width="1.51"/><path d="M1974,876L1935,784L1760,870Z" fill="#2c2c2c" stroke="#2c2c2c" stroke-width="1.51"/><path d="M202,-321L-208,-333L-160,-285Z" fill="#f3f3f3" stroke="#f3f3f3" stroke-width="1.51"/><path d="M-160,-285L-208,-333L-300,42Z" fill="#f4f4f4" stroke="#f4f4f4" stroke-width="1.51"/><path d="M1591,-353L-208,-333L202,-321Z" fill="#d6d6d6" stroke="#d6d6d6" stroke-width="1.51"/><path d="M1929,386L1972,70L1804,198Z" fill="#5c5c5c" stroke="#5c5c5c" stroke-width="1.51"/><path d="M1974,876L1972,70L1929,386Z" fill="#494949" stroke="#494949" stroke-width="1.51"/><path d="M1935,784L1974,876L1929,386Z" fill="#373737" stroke="#373737" stroke-width="1.51"/><path d="M2028,1172L1974,876L1760,870Z" fill="#1f1f1f" stroke="#1f1f1f" stroke-width="1.51"/><path d="M1972,70L1978,-67L1757,-40Z" fill="#696969" stroke="#696969" stroke-width="1.51"/><path d="M1716,-226L1887,-345L1591,-353Z" fill="#7c7c7c" stroke="#7c7c7c" stroke-width="1.51"/><path d="M2028,1172L1978,-67L1972,70Z" fill="#4e4e4e" stroke="#4e4e4e" stroke-width="1.51"/><path d="M1978,-67L1887,-345L1716,-226Z" fill="#727272" stroke="#727272" stroke-width="1.51"/><path d="M1974,876L2028,1172L1972,70Z" fill="#363636" stroke="#363636" stroke-width="1.51"/><path d="M1667,1126L2028,1172L1760,870Z" fill="#171717" stroke="#171717" stroke-width="1.51"/><path d="M1348,1178L2028,1172L1667,1126Z" fill="#171717" stroke="#171717" stroke-width="1.51"/><path d="M852,1239L2028,1172L1348,1178Z" fill="#252525" stroke="#252525" stroke-width="1.51"/></svg>