<svg xmlns="http://www.w3.org/2000/svg" width="1440" height="900"><path d="M741,567L842,576L766,462Z" fill="#42e5e9" stroke="#42e5e9" stroke-width="1.51"/><path d="M842,576L935,493L766,462Z" fill="#46e2e7" stroke="#46e2e7" stroke-width="1.51"/><path d="M842,576L958,550L935,493Z" fill="#53d7e2" stroke="#53d7e2" stroke-width="1.51"/><path d="M842,576L885,688L958,550Z" fill="#5ad0dd" stroke="#5ad0dd" stroke-width="1.51"/><path d="M741,567L885,688L842,576Z" fill="#55d6e1" stroke="#55d6e1" stroke-width="1.51"/><path d="M935,493L941,311L766,462Z" fill="#3ee4eb" stroke="#3ee4eb" stroke-width="1.51"/><path d="M998,312L941,311L935,493Z" fill="#4ad8e8" stroke="#4ad8e8" stroke-width="1.51"/><path d="M766,462L546,598L741,567Z" fill="#39e7ec" stroke="#39e7ec" stroke-width="1.51"/><path d="M741,567L753,817L885,688Z" fill="#5dcedc" stroke="#5dcedc" stroke-width="1.51"/><path d="M486,450L546,598L766,462Z" fill="#2fe7f1" stroke="#2fe7f1" stroke-width="1.51"/><path d="M1137,417L998,312L935,493Z" fill="#51d5e4" stroke="#51d5e4" stroke-width="1.51"/><path d="M527,720L753,817L741,567Z" fill="#57d0e0" stroke="#57d0e0" stroke-width="1.51"/><path d="M958,550L1102,523L935,493Z" fill="#59d2df" stroke="#59d2df" stroke-width="1.51"/><path d="M1016,768L1102,523L958,550Z" fill="#65c2d6" stroke="#65c2d6" stroke-width="1.51"/><path d="M1016,768L958,550L885,688Z" fill="#65c1d6" stroke="#65c1d6" stroke-width="1.51"/><path d="M634,247L486,450L766,462Z" fill="#18eaf5" stroke="#18eaf5" stroke-width="1.51"/><path d="M704,214L634,247L766,462Z" fill="#19e7f6" stroke="#19e7f6" stroke-width="1.51"/><path d="M704,214L766,462L941,311Z" fill="#31e3f1" stroke="#31e3f1" stroke-width="1.51"/><path d="M983,178L704,214L941,311Z" fill="#3fd2ef" stroke="#3fd2ef" stroke-width="1.51"/><path d="M961,883L1016,768L885,688Z" fill="#6eb1cd" stroke="#6eb1cd" stroke-width="1.51"/><path d="M546,598L527,720L741,567Z" fill="#4cd6e7" stroke="#4cd6e7" stroke-width="1.51"/><path d="M420,680L527,720L546,598Z" fill="#52c9e5" stroke="#52c9e5" stroke-width="1.51"/><path d="M704,214L669,200L634,247Z" fill="#1dddf8" stroke="#1dddf8" stroke-width="1.51"/><path d="M756,39L669,200L704,214Z" fill="#1dd9f8" stroke="#1dd9f8" stroke-width="1.51"/><path d="M753,817L783,882L885,688Z" fill="#68bed4" stroke="#68bed4" stroke-width="1.51"/><path d="M505,915L783,882L753,817Z" fill="#5bbad6" stroke="#5bbad6" stroke-width="1.51"/><path d="M1102,523L1137,417L935,493Z" fill="#59d2df" stroke="#59d2df" stroke-width="1.51"/><path d="M486,450L413,510L546,598Z" fill="#35ddf1" stroke="#35ddf1" stroke-width="1.51"/><path d="M206,449L413,510L184,314Z" fill="#1ed6f9" stroke="#1ed6f9" stroke-width="1.51"/><path d="M467,229L486,450L634,247Z" fill="#1ddcf8" stroke="#1ddcf8" stroke-width="1.51"/><path d="M998,312L983,178L941,311Z" fill="#4ccce9" stroke="#4ccce9" stroke-width="1.51"/><path d="M1199,230L983,178L998,312Z" fill="#54c1e5" stroke="#54c1e5" stroke-width="1.51"/><path d="M783,882L961,883L885,688Z" fill="#6bb4cf" stroke="#6bb4cf" stroke-width="1.51"/><path d="M413,510L420,680L546,598Z" fill="#46d1eb" stroke="#46d1eb" stroke-width="1.51"/><path d="M527,720L505,915L753,817Z" fill="#61bbd9" stroke="#61bbd9" stroke-width="1.51"/><path d="M783,882L932,915L961,883Z" fill="#63a9cc" stroke="#63a9cc" stroke-width="1.51"/><path d="M587,72L467,229L634,247Z" fill="#1dd2fa" stroke="#1dd2fa" stroke-width="1.51"/><path d="M420,680L445,819L527,720Z" fill="#5abde0" stroke="#5abde0" stroke-width="1.51"/><path d="M783,882L863,1073L932,915Z" fill="#5aa4cb" stroke="#5aa4cb" stroke-width="1.51"/><path d="M983,178L908,80L704,214Z" fill="#3dccf1" stroke="#3dccf1" stroke-width="1.51"/><path d="M669,200L587,72L634,247Z" fill="#1dd6f9" stroke="#1dd6f9" stroke-width="1.51"/><path d="M1188,831L1270,560L1102,523Z" fill="#6fafcc" stroke="#6fafcc" stroke-width="1.51"/><path d="M1102,523L1270,560L1137,417Z" fill="#63c4d7" stroke="#63c4d7" stroke-width="1.51"/><path d="M1137,417L1199,230L998,312Z" fill="#59c4e1" stroke="#59c4e1" stroke-width="1.51"/><path d="M1188,831L1102,523L1016,768Z" fill="#71aecb" stroke="#71aecb" stroke-width="1.51"/><path d="M1188,831L1016,768L961,883Z" fill="#72a2c6" stroke="#72a2c6" stroke-width="1.51"/><path d="M445,819L505,915L527,720Z" fill="#60b4da" stroke="#60b4da" stroke-width="1.51"/><path d="M908,80L756,39L704,214Z" fill="#30cff5" stroke="#30cff5" stroke-width="1.51"/><path d="M1091,1058L1188,831L961,883Z" fill="#6893c1" stroke="#6893c1" stroke-width="1.51"/><path d="M908,80L881,34L756,39Z" fill="#41c2f2" stroke="#41c2f2" stroke-width="1.51"/><path d="M1098,-26L881,34L908,80Z" fill="#50b4ec" stroke="#50b4ec" stroke-width="1.51"/><path d="M1098,-26L908,80L983,178Z" fill="#4eb7eb" stroke="#4eb7eb" stroke-width="1.51"/><path d="M756,39L587,72L669,200Z" fill="#1dd2fa" stroke="#1dd2fa" stroke-width="1.51"/><path d="M1278,383L1199,230L1137,417Z" fill="#60bddb" stroke="#60bddb" stroke-width="1.51"/><path d="M1270,560L1278,383L1137,417Z" fill="#63c5d8" stroke="#63c5d8" stroke-width="1.51"/><path d="M630,1082L765,1059L783,882Z" fill="#4aaad1" stroke="#4aaad1" stroke-width="1.51"/><path d="M932,915L1091,1058L961,883Z" fill="#6197c5" stroke="#6197c5" stroke-width="1.51"/><path d="M765,1059L863,1073L783,882Z" fill="#51a4cd" stroke="#51a4cd" stroke-width="1.51"/><path d="M1439,362L1375,341L1278,383Z" fill="#58b1d6" stroke="#58b1d6" stroke-width="1.51"/><path d="M1188,831L1340,657L1270,560Z" fill="#71a1c6" stroke="#71a1c6" stroke-width="1.51"/><path d="M195,818L307,923L445,819Z" fill="#59a4db" stroke="#59a4db" stroke-width="1.51"/><path d="M445,819L410,944L505,915Z" fill="#56a8d8" stroke="#56a8d8" stroke-width="1.51"/><path d="M413,510L239,590L420,680Z" fill="#46caed" stroke="#46caed" stroke-width="1.51"/><path d="M206,449L239,590L413,510Z" fill="#35d0f3" stroke="#35d0f3" stroke-width="1.51"/><path d="M505,915L630,1082L783,882Z" fill="#50abd3" stroke="#50abd3" stroke-width="1.51"/><path d="M307,923L410,944L445,819Z" fill="#55a3d9" stroke="#55a3d9" stroke-width="1.51"/><path d="M184,314L413,510L486,450Z" fill="#1ddcf8" stroke="#1ddcf8" stroke-width="1.51"/><path d="M587,72L337,174L467,229Z" fill="#1bc9fb" stroke="#1bc9fb" stroke-width="1.51"/><path d="M1199,230L1184,96L983,178Z" fill="#57b4e3" stroke="#57b4e3" stroke-width="1.51"/><path d="M1316,91L1184,96L1199,230Z" fill="#5ea7dd" stroke="#5ea7dd" stroke-width="1.51"/><path d="M817,1271L1017,1195L863,1073Z" fill="#4187c2" stroke="#4187c2" stroke-width="1.51"/><path d="M361,1077L630,1082L505,915Z" fill="#439ad3" stroke="#439ad3" stroke-width="1.51"/><path d="M184,314L486,450L467,229Z" fill="#1dd4f9" stroke="#1dd4f9" stroke-width="1.51"/><path d="M1278,383L1375,341L1199,230Z" fill="#5eb3d9" stroke="#5eb3d9" stroke-width="1.51"/><path d="M1439,362L1278,383L1270,560Z" fill="#5bbbd6" stroke="#5bbbd6" stroke-width="1.51"/><path d="M1188,831L1390,700L1340,657Z" fill="#7197c2" stroke="#7197c2" stroke-width="1.51"/><path d="M863,1073L1091,1058L932,915Z" fill="#5893c4" stroke="#5893c4" stroke-width="1.51"/><path d="M1340,657L1435,646L1270,560Z" fill="#68a3c9" stroke="#68a3c9" stroke-width="1.51"/><path d="M1382,921L1390,700L1188,831Z" fill="#728abb" stroke="#728abb" stroke-width="1.51"/><path d="M1184,96L1098,-26L983,178Z" fill="#54afe5" stroke="#54afe5" stroke-width="1.51"/><path d="M477,-112L502,-71L488,-141Z" fill="#41abfd" stroke="#41abfd" stroke-width="1.51"/><path d="M1316,91L1166,18L1184,96Z" fill="#5ea0de" stroke="#5ea0de" stroke-width="1.51"/><path d="M1166,18L1098,-26L1184,96Z" fill="#5ca2e2" stroke="#5ca2e2" stroke-width="1.51"/><path d="M410,944L361,1077L505,915Z" fill="#499bd5" stroke="#499bd5" stroke-width="1.51"/><path d="M195,818L445,819L420,680Z" fill="#5cb1df" stroke="#5cb1df" stroke-width="1.51"/><path d="M195,818L420,680L239,590Z" fill="#53b7e5" stroke="#53b7e5" stroke-width="1.51"/><path d="M337,174L184,314L467,229Z" fill="#1ac8fc" stroke="#1ac8fc" stroke-width="1.51"/><path d="M1390,700L1435,646L1340,657Z" fill="#6899c4" stroke="#6899c4" stroke-width="1.51"/><path d="M1091,1058L1249,999L1188,831Z" fill="#6785bb" stroke="#6785bb" stroke-width="1.51"/><path d="M1390,700L1535,818L1435,646Z" fill="#658cbe" stroke="#658cbe" stroke-width="1.51"/><path d="M1375,341L1316,91L1199,230Z" fill="#5ba9da" stroke="#5ba9da" stroke-width="1.51"/><path d="M1435,646L1439,362L1270,560Z" fill="#5eadcf" stroke="#5eadcf" stroke-width="1.51"/><path d="M587,72L355,-40L337,174Z" fill="#1fbdfd" stroke="#1fbdfd" stroke-width="1.51"/><path d="M337,174L250,78L184,314Z" fill="#14befd" stroke="#14befd" stroke-width="1.51"/><path d="M756,39L502,-71L587,72Z" fill="#33c3fb" stroke="#33c3fb" stroke-width="1.51"/><path d="M502,-71L779,-229L488,-141Z" fill="#48acfb" stroke="#48acfb" stroke-width="1.51"/><path d="M1091,1058L1161,1084L1249,999Z" fill="#5d7cb8" stroke="#5d7cb8" stroke-width="1.51"/><path d="M1017,1195L1161,1084L1091,1058Z" fill="#527bba" stroke="#527bba" stroke-width="1.51"/><path d="M1017,1195L1091,1058L863,1073Z" fill="#4e85bf" stroke="#4e85bf" stroke-width="1.51"/><path d="M88,567L239,590L206,449Z" fill="#3cc6f3" stroke="#3cc6f3" stroke-width="1.51"/><path d="M88,567L195,818L239,590Z" fill="#50b4e9" stroke="#50b4e9" stroke-width="1.51"/><path d="M1451,119L1316,91L1375,341Z" fill="#529ed8" stroke="#529ed8" stroke-width="1.51"/><path d="M1166,18L1208,-222L1098,-26Z" fill="#6394e2" stroke="#6394e2" stroke-width="1.51"/><path d="M307,923L361,1077L410,944Z" fill="#4796d6" stroke="#4796d6" stroke-width="1.51"/><path d="M183,1134L361,1077L307,923Z" fill="#3a8ad4" stroke="#3a8ad4" stroke-width="1.51"/><path d="M279,18L250,78L337,174Z" fill="#0eb7fe" stroke="#0eb7fe" stroke-width="1.51"/><path d="M817,1271L863,1073L765,1059Z" fill="#3f92c7" stroke="#3f92c7" stroke-width="1.51"/><path d="M817,1271L765,1059L636,1267Z" fill="#3296cb" stroke="#3296cb" stroke-width="1.51"/><path d="M1387,1031L1382,921L1249,999Z" fill="#5d74b4" stroke="#5d74b4" stroke-width="1.51"/><path d="M1249,999L1382,921L1188,831Z" fill="#6a82b8" stroke="#6a82b8" stroke-width="1.51"/><path d="M1387,1031L1249,999L1237,1171Z" fill="#576eb2" stroke="#576eb2" stroke-width="1.51"/><path d="M68,344L206,449L184,314Z" fill="#28c8fb" stroke="#28c8fb" stroke-width="1.51"/><path d="M26,496L88,567L206,449Z" fill="#3fc4f6" stroke="#3fc4f6" stroke-width="1.51"/><path d="M502,-71L756,39L779,-229Z" fill="#44bafa" stroke="#44bafa" stroke-width="1.51"/><path d="M502,-71L355,-40L587,72Z" fill="#34b6fc" stroke="#34b6fc" stroke-width="1.51"/><path d="M477,-112L355,-40L502,-71Z" fill="#3bacfd" stroke="#3bacfd" stroke-width="1.51"/><path d="M355,-40L279,18L337,174Z" fill="#20b4fe" stroke="#20b4fe" stroke-width="1.51"/><path d="M779,-229L756,39L881,34Z" fill="#4ab9f5" stroke="#4ab9f5" stroke-width="1.51"/><path d="M477,-112L317,-112L355,-40Z" fill="#3ba7fd" stroke="#3ba7fd" stroke-width="1.51"/><path d="M636,1267L765,1059L630,1082Z" fill="#3498cd" stroke="#3498cd" stroke-width="1.51"/><path d="M147,55L184,314L250,78Z" fill="#0fb6fe" stroke="#0fb6fe" stroke-width="1.51"/><path d="M147,55L68,344L184,314Z" fill="#26b9fd" stroke="#26b9fd" stroke-width="1.51"/><path d="M942,-260L881,34L1098,-26Z" fill="#5aa4ec" stroke="#5aa4ec" stroke-width="1.51"/><path d="M942,-260L779,-229L881,34Z" fill="#58a6f2" stroke="#58a6f2" stroke-width="1.51"/><path d="M361,1077L636,1267L630,1082Z" fill="#2f8fce" stroke="#2f8fce" stroke-width="1.51"/><path d="M68,344L26,496L206,449Z" fill="#33c9fa" stroke="#33c9fa" stroke-width="1.51"/><path d="M88,567L84,832L195,818Z" fill="#5ba4e3" stroke="#5ba4e3" stroke-width="1.51"/><path d="M1316,91L1318,-54L1166,18Z" fill="#5e96dd" stroke="#5e96dd" stroke-width="1.51"/><path d="M1439,362L1451,119L1375,341Z" fill="#50a3d6" stroke="#50a3d6" stroke-width="1.51"/><path d="M1592,267L1451,119L1439,362Z" fill="#489bd5" stroke="#489bd5" stroke-width="1.51"/><path d="M65,847L84,832L-48,626Z" fill="#6198e1" stroke="#6198e1" stroke-width="1.51"/><path d="M195,818L81,1058L307,923Z" fill="#4b92d9" stroke="#4b92d9" stroke-width="1.51"/><path d="M1633,626L1582,480L1435,646Z" fill="#5496c6" stroke="#5496c6" stroke-width="1.51"/><path d="M1237,1171L1249,999L1161,1084Z" fill="#5a73b4" stroke="#5a73b4" stroke-width="1.51"/><path d="M1460,1L1318,-54L1316,91Z" fill="#558dda" stroke="#558dda" stroke-width="1.51"/><path d="M1366,1197L1237,1171L1531,1300Z" fill="#425cad" stroke="#425cad" stroke-width="1.51"/><path d="M1017,1195L1237,1171L1161,1084Z" fill="#4f72b6" stroke="#4f72b6" stroke-width="1.51"/><path d="M636,1267L652,1297L817,1271Z" fill="#3096cb" stroke="#3096cb" stroke-width="1.51"/><path d="M378,1305L652,1297L636,1267Z" fill="#2b8dcd" stroke="#2b8dcd" stroke-width="1.51"/><path d="M1435,646L1582,480L1439,362Z" fill="#52a8cf" stroke="#52a8cf" stroke-width="1.51"/><path d="M1535,818L1390,700L1382,921Z" fill="#6a81b8" stroke="#6a81b8" stroke-width="1.51"/><path d="M1208,-222L1092,-206L1098,-26Z" fill="#658ce4" stroke="#658ce4" stroke-width="1.51"/><path d="M1527,999L1535,818L1382,921Z" fill="#5a71b4" stroke="#5a71b4" stroke-width="1.51"/><path d="M279,18L147,55L250,78Z" fill="#19aeff" stroke="#19aeff" stroke-width="1.51"/><path d="M355,-40L317,-112L279,18Z" fill="#32a8fe" stroke="#32a8fe" stroke-width="1.51"/><path d="M488,-141L317,-112L477,-112Z" fill="#40a5fd" stroke="#40a5fd" stroke-width="1.51"/><path d="M143,-205L317,-112L488,-141Z" fill="#3e99fe" stroke="#3e99fe" stroke-width="1.51"/><path d="M1092,-206L942,-260L1098,-26Z" fill="#6293e9" stroke="#6293e9" stroke-width="1.51"/><path d="M84,832L65,847L195,818Z" fill="#5d97dd" stroke="#5d97dd" stroke-width="1.51"/><path d="M-48,626L84,832L88,567Z" fill="#59a6e8" stroke="#59a6e8" stroke-width="1.51"/><path d="M138,47L147,55L279,18Z" fill="#1daaff" stroke="#1daaff" stroke-width="1.51"/><path d="M-153,542L-48,626L26,496Z" fill="#53adf2" stroke="#53adf2" stroke-width="1.51"/><path d="M143,-205L138,47L279,18Z" fill="#2d9fff" stroke="#2d9fff" stroke-width="1.51"/><path d="M-109,143L-112,272L68,344Z" fill="#3cabfd" stroke="#3cabfd" stroke-width="1.51"/><path d="M1582,480L1616,449L1439,362Z" fill="#47a7d1" stroke="#47a7d1" stroke-width="1.51"/><path d="M1633,626L1616,449L1582,480Z" fill="#499aca" stroke="#499aca" stroke-width="1.51"/><path d="M1616,449L1592,267L1439,362Z" fill="#45a0d2" stroke="#45a0d2" stroke-width="1.51"/><path d="M1451,119L1460,1L1316,91Z" fill="#4d90d9" stroke="#4d90d9" stroke-width="1.51"/><path d="M1535,818L1633,626L1435,646Z" fill="#5d89be" stroke="#5d89be" stroke-width="1.51"/><path d="M1318,-54L1208,-222L1166,18Z" fill="#668bde" stroke="#668bde" stroke-width="1.51"/><path d="M1592,176L1460,1L1451,119Z" fill="#418cd7" stroke="#418cd7" stroke-width="1.51"/><path d="M-132,470L26,496L68,344Z" fill="#40bffa" stroke="#40bffa" stroke-width="1.51"/><path d="M26,496L-48,626L88,567Z" fill="#4fb4f1" stroke="#4fb4f1" stroke-width="1.51"/><path d="M1325,-244L1208,-222L1318,-54Z" fill="#647bdd" stroke="#647bdd" stroke-width="1.51"/><path d="M1092,-206L1208,-222L942,-260Z" fill="#6687e7" stroke="#6687e7" stroke-width="1.51"/><path d="M361,1077L378,1305L636,1267Z" fill="#2787ce" stroke="#2787ce" stroke-width="1.51"/><path d="M81,1058L183,1134L307,923Z" fill="#3984d5" stroke="#3984d5" stroke-width="1.51"/><path d="M81,1058L195,818L65,847Z" fill="#528eda" stroke="#528eda" stroke-width="1.51"/><path d="M1592,267L1592,176L1451,119Z" fill="#4091d4" stroke="#4091d4" stroke-width="1.51"/><path d="M1707,23L1592,176L1592,267Z" fill="#3386d2" stroke="#3386d2" stroke-width="1.51"/><path d="M1707,23L1592,267L1616,449Z" fill="#378ed1" stroke="#378ed1" stroke-width="1.51"/><path d="M1387,1031L1527,999L1382,921Z" fill="#566cb2" stroke="#566cb2" stroke-width="1.51"/><path d="M1535,818L1743,729L1633,626Z" fill="#577cb9" stroke="#577cb9" stroke-width="1.51"/><path d="M1547,1064L1527,999L1387,1031Z" fill="#4a62af" stroke="#4a62af" stroke-width="1.51"/><path d="M1237,1171L1366,1197L1387,1031Z" fill="#4c64af" stroke="#4c64af" stroke-width="1.51"/><path d="M1531,1300L1237,1171L1017,1195Z" fill="#4e65b0" stroke="#4e65b0" stroke-width="1.51"/><path d="M1531,1300L1017,1195L817,1271Z" fill="#4c72b6" stroke="#4c72b6" stroke-width="1.51"/><path d="M183,1134L378,1305L361,1077Z" fill="#1e7dcf" stroke="#1e7dcf" stroke-width="1.51"/><path d="M183,1134L178,1302L378,1305Z" fill="#1979d0" stroke="#1979d0" stroke-width="1.51"/><path d="M6,1005L81,1058L65,847Z" fill="#4b80d7" stroke="#4b80d7" stroke-width="1.51"/><path d="M48,1197L178,1302L183,1134Z" fill="#1b71d0" stroke="#1b71d0" stroke-width="1.51"/><path d="M-113,893L6,1005L65,847Z" fill="#5581d9" stroke="#5581d9" stroke-width="1.51"/><path d="M1366,1197L1547,1064L1387,1031Z" fill="#465fae" stroke="#465fae" stroke-width="1.51"/><path d="M1679,993L1743,729L1535,818Z" fill="#536bb1" stroke="#536bb1" stroke-width="1.51"/><path d="M-112,272L-132,470L68,344Z" fill="#42b4fb" stroke="#42b4fb" stroke-width="1.51"/><path d="M-48,626L-134,774L65,847Z" fill="#6294e3" stroke="#6294e3" stroke-width="1.51"/><path d="M1460,1L1325,-244L1318,-54Z" fill="#597edb" stroke="#597edb" stroke-width="1.51"/><path d="M1208,-222L1325,-244L942,-260Z" fill="#697de2" stroke="#697de2" stroke-width="1.51"/><path d="M1583,-144L1325,-244L1460,1Z" fill="#5172d8" stroke="#5172d8" stroke-width="1.51"/><path d="M-109,143L68,344L147,55Z" fill="#2fabfe" stroke="#2fabfe" stroke-width="1.51"/><path d="M-304,450L-153,542L-132,470Z" fill="#54aaf7" stroke="#54aaf7" stroke-width="1.51"/><path d="M-132,470L-153,542L26,496Z" fill="#4fb2f6" stroke="#4fb2f6" stroke-width="1.51"/><path d="M-153,542L-134,774L-48,626Z" fill="#5e9ceb" stroke="#5e9ceb" stroke-width="1.51"/><path d="M1633,626L1743,729L1616,449Z" fill="#4c8ac2" stroke="#4c8ac2" stroke-width="1.51"/><path d="M1679,993L1535,818L1527,999Z" fill="#4e66b0" stroke="#4e66b0" stroke-width="1.51"/><path d="M138,47L-109,143L147,55Z" fill="#27a4ff" stroke="#27a4ff" stroke-width="1.51"/><path d="M317,-112L143,-205L279,18Z" fill="#359bff" stroke="#359bff" stroke-width="1.51"/><path d="M779,-229L143,-205L488,-141Z" fill="#489efd" stroke="#489efd" stroke-width="1.51"/><path d="M942,-260L143,-205L779,-229Z" fill="#51a4fc" stroke="#51a4fc" stroke-width="1.51"/><path d="M-134,774L-113,893L65,847Z" fill="#6286dd" stroke="#6286dd" stroke-width="1.51"/><path d="M-112,272L-201,297L-132,470Z" fill="#48aafc" stroke="#48aafc" stroke-width="1.51"/><path d="M-44,-17L-109,143L138,47Z" fill="#319bff" stroke="#319bff" stroke-width="1.51"/><path d="M48,1197L183,1134L81,1058Z" fill="#2872d2" stroke="#2872d2" stroke-width="1.51"/><path d="M48,1197L81,1058L-42,1172Z" fill="#2869d1" stroke="#2869d1" stroke-width="1.51"/><path d="M1547,1064L1660,1024L1527,999Z" fill="#425bad" stroke="#425bad" stroke-width="1.51"/><path d="M1741,1205L1660,1024L1547,1064Z" fill="#2e4da8" stroke="#2e4da8" stroke-width="1.51"/><path d="M143,-205L-44,-17L138,47Z" fill="#3693ff" stroke="#3693ff" stroke-width="1.51"/><path d="M1660,1024L1679,993L1527,999Z" fill="#415bad" stroke="#415bad" stroke-width="1.51"/><path d="M-42,1172L81,1058L6,1005Z" fill="#3870d3" stroke="#3870d3" stroke-width="1.51"/><path d="M-109,143L-201,297L-112,272Z" fill="#42a0fd" stroke="#42a0fd" stroke-width="1.51"/><path d="M-153,542L-201,809L-134,774Z" fill="#648fe6" stroke="#648fe6" stroke-width="1.51"/><path d="M-255,61L-201,297L-109,143Z" fill="#3f96fe" stroke="#3f96fe" stroke-width="1.51"/><path d="M1707,23L1460,1L1592,176Z" fill="#3881d5" stroke="#3881d5" stroke-width="1.51"/><path d="M1707,23L1583,-144L1460,1Z" fill="#3e74d5" stroke="#3e74d5" stroke-width="1.51"/><path d="M-213,1064L-42,1172L6,1005Z" fill="#3b67d3" stroke="#3b67d3" stroke-width="1.51"/><path d="M-134,774L-201,809L-113,893Z" fill="#657fdd" stroke="#657fdd" stroke-width="1.51"/><path d="M-304,450L-201,809L-153,542Z" fill="#5e99ee" stroke="#5e99ee" stroke-width="1.51"/><path d="M1743,729L1707,23L1616,449Z" fill="#3798ce" stroke="#3798ce" stroke-width="1.51"/><path d="M48,1197L-278,1300L178,1302Z" fill="#2463d0" stroke="#2463d0" stroke-width="1.51"/><path d="M-213,1064L6,1005L-113,893Z" fill="#4c70d7" stroke="#4c70d7" stroke-width="1.51"/><path d="M1660,1024L1741,1205L1679,993Z" fill="#2d4da8" stroke="#2d4da8" stroke-width="1.51"/><path d="M1366,1197L1531,1300L1547,1064Z" fill="#3754aa" stroke="#3754aa" stroke-width="1.51"/><path d="M652,1297L1531,1300L817,1271Z" fill="#477dbd" stroke="#477dbd" stroke-width="1.51"/><path d="M378,1305L1531,1300L652,1297Z" fill="#3d8bc5" stroke="#3d8bc5" stroke-width="1.51"/><path d="M-201,297L-304,450L-132,470Z" fill="#4faafb" stroke="#4faafb" stroke-width="1.51"/><path d="M-255,61L-304,450L-201,297Z" fill="#4a9afd" stroke="#4a9afd" stroke-width="1.51"/><path d="M-280,916L-113,893L-201,809Z" fill="#6076db" stroke="#6076db" stroke-width="1.51"/><path d="M-280,916L-213,1064L-113,893Z" fill="#536bd8" stroke="#536bd8" stroke-width="1.51"/><path d="M-304,450L-280,916L-201,809Z" fill="#6783e5" stroke="#6783e5" stroke-width="1.51"/><path d="M-223,-20L-109,143L-44,-17Z" fill="#3a8dff" stroke="#3a8dff" stroke-width="1.51"/><path d="M-223,-20L-255,61L-109,143Z" fill="#3c8aff" stroke="#3c8aff" stroke-width="1.51"/><path d="M-144,-208L-223,-20L-44,-17Z" fill="#407cff" stroke="#407cff" stroke-width="1.51"/><path d="M1707,23L1689,-220L1583,-144Z" fill="#3664d3" stroke="#3664d3" stroke-width="1.51"/><path d="M1583,-144L1689,-220L1325,-244Z" fill="#4a62d6" stroke="#4a62d6" stroke-width="1.51"/><path d="M1531,1300L1741,1205L1547,1064Z" fill="#264aa7" stroke="#264aa7" stroke-width="1.51"/><path d="M1679,993L1741,1205L1743,729Z" fill="#3b56ab" stroke="#3b56ab" stroke-width="1.51"/><path d="M143,-205L-144,-208L-44,-17Z" fill="#3f7fff" stroke="#3f7fff" stroke-width="1.51"/><path d="M-214,-223L-144,-208L143,-205Z" fill="#4370ff" stroke="#4370ff" stroke-width="1.51"/><path d="M-144,-208L-214,-223L-223,-20Z" fill="#446eff" stroke="#446eff" stroke-width="1.51"/><path d="M-223,-20L-214,-223L-255,61Z" fill="#4276ff" stroke="#4276ff" stroke-width="1.51"/><path d="M942,-260L-214,-223L143,-205Z" fill="#428dfe" stroke="#428dfe" stroke-width="1.51"/><path d="M-213,1064L-278,1300L-42,1172Z" fill="#2755d0" stroke="#2755d0" stroke-width="1.51"/><path d="M-42,1172L-278,1300L48,1197Z" fill="#265dd0" stroke="#265dd0" stroke-width="1.51"/><path d="M178,1302L-278,1300L378,1305Z" fill="#1f6dd0" stroke="#1f6dd0" stroke-width="1.51"/><path d="M-280,916L-278,1300L-213,1064Z" fill="#3a55d3" stroke="#3a55d3" stroke-width="1.51"/><path d="M-304,450L-278,1300L-280,916Z" fill="#5e6bdb" stroke="#5e6bdb" stroke-width="1.51"/></svg>