<svg xmlns="http://www.w3.org/2000/svg" width="1440" height="900"><path d="M673,565L657,522L565,650Z" fill="#9895c7" stroke="#9895c7" stroke-width="1.51"/><path d="M657,522L464,493L565,650Z" fill="#9e9cca" stroke="#9e9cca" stroke-width="1.51"/><path d="M565,650L594,723L673,565Z" fill="#9591c4" stroke="#9591c4" stroke-width="1.51"/><path d="M374,780L594,723L565,650Z" fill="#968ec3" stroke="#968ec3" stroke-width="1.51"/><path d="M657,522L528,426L464,493Z" fill="#a6a3cd" stroke="#a6a3cd" stroke-width="1.51"/><path d="M464,493L363,560L565,650Z" fill="#a3a2cd" stroke="#a3a2cd" stroke-width="1.51"/><path d="M309,435L363,560L464,493Z" fill="#aeacd2" stroke="#aeacd2" stroke-width="1.51"/><path d="M594,723L698,803L673,565Z" fill="#8f87bf" stroke="#8f87bf" stroke-width="1.51"/><path d="M631,910L698,803L594,723Z" fill="#897ab8" stroke="#897ab8" stroke-width="1.51"/><path d="M673,565L844,474L657,522Z" fill="#9893c5" stroke="#9893c5" stroke-width="1.51"/><path d="M657,522L593,246L528,426Z" fill="#aaa7d0" stroke="#aaa7d0" stroke-width="1.51"/><path d="M868,697L846,554L673,565Z" fill="#8d89c0" stroke="#8d89c0" stroke-width="1.51"/><path d="M528,426L431,365L464,493Z" fill="#aeacd2" stroke="#aeacd2" stroke-width="1.51"/><path d="M593,246L431,365L528,426Z" fill="#b3b1d6" stroke="#b3b1d6" stroke-width="1.51"/><path d="M846,554L844,474L673,565Z" fill="#938fc3" stroke="#938fc3" stroke-width="1.51"/><path d="M363,560L374,780L565,650Z" fill="#9e99c9" stroke="#9e99c9" stroke-width="1.51"/><path d="M698,803L868,697L673,565Z" fill="#8a82bd" stroke="#8a82bd" stroke-width="1.51"/><path d="M1043,515L899,340L844,474Z" fill="#938ec3" stroke="#938ec3" stroke-width="1.51"/><path d="M363,560L282,817L374,780Z" fill="#a098c9" stroke="#a098c9" stroke-width="1.51"/><path d="M431,365L309,435L464,493Z" fill="#b2b1d5" stroke="#b2b1d5" stroke-width="1.51"/><path d="M664,222L593,246L657,522Z" fill="#adabd1" stroke="#adabd1" stroke-width="1.51"/><path d="M431,365L271,229L309,435Z" fill="#bdbddb" stroke="#bdbddb" stroke-width="1.51"/><path d="M698,803L745,941L868,697Z" fill="#8171b4" stroke="#8171b4" stroke-width="1.51"/><path d="M374,780L631,910L594,723Z" fill="#9081bd" stroke="#9081bd" stroke-width="1.51"/><path d="M844,474L664,222L657,522Z" fill="#a29eca" stroke="#a29eca" stroke-width="1.51"/><path d="M844,474L899,340L664,222Z" fill="#a29fcc" stroke="#a29fcc" stroke-width="1.51"/><path d="M1043,515L844,474L846,554Z" fill="#8e89c1" stroke="#8e89c1" stroke-width="1.51"/><path d="M374,780L372,935L631,910Z" fill="#907ebc" stroke="#907ebc" stroke-width="1.51"/><path d="M135,703L282,817L363,560Z" fill="#a69fcd" stroke="#a69fcd" stroke-width="1.51"/><path d="M631,910L745,941L698,803Z" fill="#826eb2" stroke="#826eb2" stroke-width="1.51"/><path d="M667,1145L745,941L631,910Z" fill="#7d62ad" stroke="#7d62ad" stroke-width="1.51"/><path d="M664,222L624,153L593,246Z" fill="#b8b7d8" stroke="#b8b7d8" stroke-width="1.51"/><path d="M380,75L271,229L431,365Z" fill="#c6c6e1" stroke="#c6c6e1" stroke-width="1.51"/><path d="M646,139L624,153L664,222Z" fill="#bab8d9" stroke="#bab8d9" stroke-width="1.51"/><path d="M282,817L372,935L374,780Z" fill="#9987c1" stroke="#9987c1" stroke-width="1.51"/><path d="M309,435L166,554L363,560Z" fill="#b2b0d5" stroke="#b2b0d5" stroke-width="1.51"/><path d="M159,295L166,554L309,435Z" fill="#bdbbda" stroke="#bdbbda" stroke-width="1.51"/><path d="M890,63L646,139L664,222Z" fill="#b7b5d7" stroke="#b7b5d7" stroke-width="1.51"/><path d="M868,697L1043,515L846,554Z" fill="#8783bd" stroke="#8783bd" stroke-width="1.51"/><path d="M1069,545L1043,515L868,697Z" fill="#837fbb" stroke="#837fbb" stroke-width="1.51"/><path d="M380,75L593,246L624,153Z" fill="#c1c1de" stroke="#c1c1de" stroke-width="1.51"/><path d="M380,75L431,365L593,246Z" fill="#bfc0de" stroke="#bfc0de" stroke-width="1.51"/><path d="M166,554L135,703L363,560Z" fill="#aeabd3" stroke="#aeabd3" stroke-width="1.51"/><path d="M282,817L281,1011L372,935Z" fill="#9780be" stroke="#9780be" stroke-width="1.51"/><path d="M1111,259L992,186L899,340Z" fill="#9e9bcb" stroke="#9e9bcb" stroke-width="1.51"/><path d="M1039,782L1069,545L868,697Z" fill="#7d75b6" stroke="#7d75b6" stroke-width="1.51"/><path d="M949,988L1039,782L868,697Z" fill="#7666ae" stroke="#7666ae" stroke-width="1.51"/><path d="M271,229L159,295L309,435Z" fill="#c4c4e0" stroke="#c4c4e0" stroke-width="1.51"/><path d="M166,554L68,647L135,703Z" fill="#b0acd4" stroke="#b0acd4" stroke-width="1.51"/><path d="M166,1002L281,1011L282,817Z" fill="#9981bf" stroke="#9981bf" stroke-width="1.51"/><path d="M51,383L68,647L166,554Z" fill="#bab7d8" stroke="#bab7d8" stroke-width="1.51"/><path d="M166,1002L282,817L54,858Z" fill="#a08ac3" stroke="#a08ac3" stroke-width="1.51"/><path d="M372,935L485,1114L631,910Z" fill="#886fb4" stroke="#886fb4" stroke-width="1.51"/><path d="M634,-56L380,75L624,153Z" fill="#c8c8e1" stroke="#c8c8e1" stroke-width="1.51"/><path d="M271,229L43,201L159,295Z" fill="#cfcfe6" stroke="#cfcfe6" stroke-width="1.51"/><path d="M745,941L949,988L868,697Z" fill="#7966ae" stroke="#7966ae" stroke-width="1.51"/><path d="M667,1145L906,1010L745,941Z" fill="#765aa8" stroke="#765aa8" stroke-width="1.51"/><path d="M906,1010L949,988L745,941Z" fill="#7359a8" stroke="#7359a8" stroke-width="1.51"/><path d="M363,1106L485,1114L372,935Z" fill="#8a6fb3" stroke="#8a6fb3" stroke-width="1.51"/><path d="M899,340L890,63L664,222Z" fill="#adabd2" stroke="#adabd2" stroke-width="1.51"/><path d="M646,139L634,-56L624,153Z" fill="#c2c0dd" stroke="#c2c0dd" stroke-width="1.51"/><path d="M1111,259L899,340L1043,515Z" fill="#948fc4" stroke="#948fc4" stroke-width="1.51"/><path d="M949,988L1053,897L1039,782Z" fill="#6f5ba8" stroke="#6f5ba8" stroke-width="1.51"/><path d="M1213,663L1206,474L1069,545Z" fill="#7e72b4" stroke="#7e72b4" stroke-width="1.51"/><path d="M159,295L51,383L166,554Z" fill="#c3c1dd" stroke="#c3c1dd" stroke-width="1.51"/><path d="M43,201L51,383L159,295Z" fill="#cecee5" stroke="#cecee5" stroke-width="1.51"/><path d="M485,1114L667,1145L631,910Z" fill="#7f63ad" stroke="#7f63ad" stroke-width="1.51"/><path d="M906,1010L998,1049L949,988Z" fill="#6b52a3" stroke="#6b52a3" stroke-width="1.51"/><path d="M687,1292L803,1217L667,1145Z" fill="#7253a2" stroke="#7253a2" stroke-width="1.51"/><path d="M281,1011L363,1106L372,935Z" fill="#9075b8" stroke="#9075b8" stroke-width="1.51"/><path d="M992,186L890,63L899,340Z" fill="#a8a5d0" stroke="#a8a5d0" stroke-width="1.51"/><path d="M380,75L273,69L271,229Z" fill="#d2d1e7" stroke="#d2d1e7" stroke-width="1.51"/><path d="M321,-19L273,69L380,75Z" fill="#d6d6e9" stroke="#d6d6e9" stroke-width="1.51"/><path d="M281,1011L181,1169L363,1106Z" fill="#9072b5" stroke="#9072b5" stroke-width="1.51"/><path d="M54,858L282,817L135,703Z" fill="#a697c9" stroke="#a697c9" stroke-width="1.51"/><path d="M1206,474L1043,515L1069,545Z" fill="#857bb9" stroke="#857bb9" stroke-width="1.51"/><path d="M1206,474L1111,259L1043,515Z" fill="#8c83bd" stroke="#8c83bd" stroke-width="1.51"/><path d="M992,186L969,28L890,63Z" fill="#afacd3" stroke="#afacd3" stroke-width="1.51"/><path d="M2,747L135,703L68,647Z" fill="#afa6d1" stroke="#afa6d1" stroke-width="1.51"/><path d="M2,747L54,858L135,703Z" fill="#ab9dcc" stroke="#ab9dcc" stroke-width="1.51"/><path d="M-134,551L2,747L68,647Z" fill="#b5b0d5" stroke="#b5b0d5" stroke-width="1.51"/><path d="M1213,663L1069,545L1039,782Z" fill="#796db1" stroke="#796db1" stroke-width="1.51"/><path d="M803,1217L998,1049L906,1010Z" fill="#6b4fa1" stroke="#6b4fa1" stroke-width="1.51"/><path d="M949,988L998,1049L1053,897Z" fill="#6b52a4" stroke="#6b52a4" stroke-width="1.51"/><path d="M714,-86L634,-56L646,139Z" fill="#c4c2de" stroke="#c4c2de" stroke-width="1.51"/><path d="M1188,772L1039,782L1053,897Z" fill="#705ca9" stroke="#705ca9" stroke-width="1.51"/><path d="M1188,772L1213,663L1039,782Z" fill="#7361ac" stroke="#7361ac" stroke-width="1.51"/><path d="M1145,978L1188,772L1053,897Z" fill="#6a52a3" stroke="#6a52a3" stroke-width="1.51"/><path d="M328,-72L321,-19L380,75Z" fill="#d8d7ea" stroke="#d8d7ea" stroke-width="1.51"/><path d="M273,69L43,201L271,229Z" fill="#d4d4e8" stroke="#d4d4e8" stroke-width="1.51"/><path d="M-48,168L43,201L76,5Z" fill="#dfdeed" stroke="#dfdeed" stroke-width="1.51"/><path d="M51,383L-86,441L68,647Z" fill="#c0bddc" stroke="#c0bddc" stroke-width="1.51"/><path d="M890,63L714,-86L646,139Z" fill="#bdbbda" stroke="#bdbbda" stroke-width="1.51"/><path d="M1159,-34L969,28L992,186Z" fill="#ada6d1" stroke="#ada6d1" stroke-width="1.51"/><path d="M634,-56L328,-72L380,75Z" fill="#d2d2e7" stroke="#d2d2e7" stroke-width="1.51"/><path d="M909,-42L714,-86L890,63Z" fill="#bcb8d9" stroke="#bcb8d9" stroke-width="1.51"/><path d="M54,858L95,1034L166,1002Z" fill="#9e84c0" stroke="#9e84c0" stroke-width="1.51"/><path d="M166,1002L181,1169L281,1011Z" fill="#9578b9" stroke="#9578b9" stroke-width="1.51"/><path d="M3,978L95,1034L54,858Z" fill="#a187c2" stroke="#a187c2" stroke-width="1.51"/><path d="M667,1145L803,1217L906,1010Z" fill="#7052a2" stroke="#7052a2" stroke-width="1.51"/><path d="M596,1311L667,1145L485,1114Z" fill="#7a5ca8" stroke="#7a5ca8" stroke-width="1.51"/><path d="M363,1106L425,1232L485,1114Z" fill="#8466ae" stroke="#8466ae" stroke-width="1.51"/><path d="M181,1169L425,1232L363,1106Z" fill="#896ab0" stroke="#896ab0" stroke-width="1.51"/><path d="M998,1049L1145,978L1053,897Z" fill="#684da1" stroke="#684da1" stroke-width="1.51"/><path d="M1188,772L1282,682L1213,663Z" fill="#715eaa" stroke="#715eaa" stroke-width="1.51"/><path d="M1144,1038L1145,978L998,1049Z" fill="#64469d" stroke="#64469d" stroke-width="1.51"/><path d="M-114,348L-86,441L51,383Z" fill="#cbc9e2" stroke="#cbc9e2" stroke-width="1.51"/><path d="M969,28L909,-42L890,63Z" fill="#b5b1d6" stroke="#b5b1d6" stroke-width="1.51"/><path d="M321,-19L76,5L273,69Z" fill="#dddded" stroke="#dddded" stroke-width="1.51"/><path d="M428,-212L328,-72L634,-56Z" fill="#d6d6e9" stroke="#d6d6e9" stroke-width="1.51"/><path d="M1425,834L1282,682L1188,772Z" fill="#6b52a3" stroke="#6b52a3" stroke-width="1.51"/><path d="M1213,663L1282,682L1206,474Z" fill="#7768af" stroke="#7768af" stroke-width="1.51"/><path d="M1206,474L1245,314L1111,259Z" fill="#8f83bd" stroke="#8f83bd" stroke-width="1.51"/><path d="M1111,259L1249,80L992,186Z" fill="#a098c9" stroke="#a098c9" stroke-width="1.51"/><path d="M969,28L1159,-34L909,-42Z" fill="#b2add4" stroke="#b2add4" stroke-width="1.51"/><path d="M1342,327L1245,314L1206,474Z" fill="#8a7ab9" stroke="#8a7ab9" stroke-width="1.51"/><path d="M-62,1047L3,978L-161,1021Z" fill="#a385c1" stroke="#a385c1" stroke-width="1.51"/><path d="M-175,890L3,978L54,858Z" fill="#a790c6" stroke="#a790c6" stroke-width="1.51"/><path d="M1374,970L1425,834L1188,772Z" fill="#63449d" stroke="#63449d" stroke-width="1.51"/><path d="M1040,1297L1144,1038L998,1049Z" fill="#604199" stroke="#604199" stroke-width="1.51"/><path d="M153,1178L181,1169L95,1034Z" fill="#9475b7" stroke="#9475b7" stroke-width="1.51"/><path d="M95,1034L181,1169L166,1002Z" fill="#977aba" stroke="#977aba" stroke-width="1.51"/><path d="M-86,441L-134,551L68,647Z" fill="#bebada" stroke="#bebada" stroke-width="1.51"/><path d="M803,1217L1040,1297L998,1049Z" fill="#64479c" stroke="#64479c" stroke-width="1.51"/><path d="M596,1311L687,1292L667,1145Z" fill="#7657a5" stroke="#7657a5" stroke-width="1.51"/><path d="M-86,441L-204,543L-134,551Z" fill="#c3c0dd" stroke="#c3c0dd" stroke-width="1.51"/><path d="M43,201L-114,348L51,383Z" fill="#d0cfe6" stroke="#d0cfe6" stroke-width="1.51"/><path d="M-48,168L-114,348L43,201Z" fill="#d8d7ea" stroke="#d8d7ea" stroke-width="1.51"/><path d="M-52,1300L596,1311L425,1232Z" fill="#896ab0" stroke="#896ab0" stroke-width="1.51"/><path d="M425,1232L596,1311L485,1114Z" fill="#7f61ab" stroke="#7f61ab" stroke-width="1.51"/><path d="M181,1169L153,1178L425,1232Z" fill="#8d6eb2" stroke="#8d6eb2" stroke-width="1.51"/><path d="M-62,1047L153,1178L95,1034Z" fill="#9a7bbb" stroke="#9a7bbb" stroke-width="1.51"/><path d="M76,5L43,201L273,69Z" fill="#dddcec" stroke="#dddcec" stroke-width="1.51"/><path d="M328,-72L76,5L321,-19Z" fill="#dfdeed" stroke="#dfdeed" stroke-width="1.51"/><path d="M714,-86L592,-237L634,-56Z" fill="#ccc9e2" stroke="#ccc9e2" stroke-width="1.51"/><path d="M909,-42L758,-181L714,-86Z" fill="#c2bfdd" stroke="#c2bfdd" stroke-width="1.51"/><path d="M1245,314L1249,80L1111,259Z" fill="#9a8dc3" stroke="#9a8dc3" stroke-width="1.51"/><path d="M909,-42L953,-204L758,-181Z" fill="#bfbcdc" stroke="#bfbcdc" stroke-width="1.51"/><path d="M1410,436L1342,327L1206,474Z" fill="#8472b4" stroke="#8472b4" stroke-width="1.51"/><path d="M-269,470L-204,543L-86,441Z" fill="#c7c3df" stroke="#c7c3df" stroke-width="1.51"/><path d="M-299,738L-175,890L2,747Z" fill="#b1a1cf" stroke="#b1a1cf" stroke-width="1.51"/><path d="M-269,470L-86,441L-114,348Z" fill="#cbc9e1" stroke="#cbc9e1" stroke-width="1.51"/><path d="M328,-72L254,-191L76,5Z" fill="#e3e2ef" stroke="#e3e2ef" stroke-width="1.51"/><path d="M592,-237L428,-212L634,-56Z" fill="#d3d2e7" stroke="#d3d2e7" stroke-width="1.51"/><path d="M3,978L-62,1047L95,1034Z" fill="#9f82bf" stroke="#9f82bf" stroke-width="1.51"/><path d="M-175,890L54,858L2,747Z" fill="#ab99ca" stroke="#ab99ca" stroke-width="1.51"/><path d="M758,-181L592,-237L714,-86Z" fill="#cbc8e1" stroke="#cbc8e1" stroke-width="1.51"/><path d="M1342,327L1249,80L1245,314Z" fill="#9484c0" stroke="#9484c0" stroke-width="1.51"/><path d="M-299,738L2,747L-134,551Z" fill="#b7afd5" stroke="#b7afd5" stroke-width="1.51"/><path d="M1249,80L1159,-34L992,186Z" fill="#a89dcc" stroke="#a89dcc" stroke-width="1.51"/><path d="M1342,327L1410,75L1249,80Z" fill="#9a86c0" stroke="#9a86c0" stroke-width="1.51"/><path d="M1282,682L1410,436L1206,474Z" fill="#7c6ab0" stroke="#7c6ab0" stroke-width="1.51"/><path d="M1538,486L1410,436L1541,626Z" fill="#755ba9" stroke="#755ba9" stroke-width="1.51"/><path d="M428,-212L254,-191L328,-72Z" fill="#dfdfed" stroke="#dfdfed" stroke-width="1.51"/><path d="M592,-237L254,-191L428,-212Z" fill="#dcdcec" stroke="#dcdcec" stroke-width="1.51"/><path d="M1374,970L1188,772L1145,978Z" fill="#64469e" stroke="#64469e" stroke-width="1.51"/><path d="M687,1292L1040,1297L803,1217Z" fill="#6a4c9f" stroke="#6a4c9f" stroke-width="1.51"/><path d="M596,1311L1040,1297L687,1292Z" fill="#6f50a1" stroke="#6f50a1" stroke-width="1.51"/><path d="M1159,-34L953,-204L909,-42Z" fill="#b7b1d6" stroke="#b7b1d6" stroke-width="1.51"/><path d="M758,-181L953,-204L592,-237Z" fill="#c8c5e0" stroke="#c8c5e0" stroke-width="1.51"/><path d="M-204,543L-299,738L-134,551Z" fill="#bdb9da" stroke="#bdb9da" stroke-width="1.51"/><path d="M-227,263L-269,470L-114,348Z" fill="#d2cfe6" stroke="#d2cfe6" stroke-width="1.51"/><path d="M-48,168L-227,263L-114,348Z" fill="#d8d8ea" stroke="#d8d8ea" stroke-width="1.51"/><path d="M76,5L-64,0L-48,168Z" fill="#e5e4f0" stroke="#e5e4f0" stroke-width="1.51"/><path d="M22,-113L-64,0L76,5Z" fill="#eae8f2" stroke="#eae8f2" stroke-width="1.51"/><path d="M-171,83L-227,263L-48,168Z" fill="#e0dfee" stroke="#e0dfee" stroke-width="1.51"/><path d="M1374,970L1145,978L1309,1104Z" fill="#5c3796" stroke="#5c3796" stroke-width="1.51"/><path d="M-62,1047L-52,1300L153,1178Z" fill="#9876b7" stroke="#9876b7" stroke-width="1.51"/><path d="M-175,890L-161,1021L3,978Z" fill="#a68bc4" stroke="#a68bc4" stroke-width="1.51"/><path d="M-299,738L-161,1021L-175,890Z" fill="#ad97ca" stroke="#ad97ca" stroke-width="1.51"/><path d="M1309,1104L1145,978L1144,1038Z" fill="#5e3b97" stroke="#5e3b97" stroke-width="1.51"/><path d="M1410,436L1453,363L1342,327Z" fill="#856fb3" stroke="#856fb3" stroke-width="1.51"/><path d="M1538,486L1453,363L1410,436Z" fill="#7e64ae" stroke="#7e64ae" stroke-width="1.51"/><path d="M254,-191L22,-113L76,5Z" fill="#e8e7f2" stroke="#e8e7f2" stroke-width="1.51"/><path d="M1288,1256L1309,1104L1144,1038Z" fill="#573091" stroke="#573091" stroke-width="1.51"/><path d="M-216,24L-171,83L-64,0Z" fill="#eae9f3" stroke="#eae9f3" stroke-width="1.51"/><path d="M-64,0L-171,83L-48,168Z" fill="#e6e5f1" stroke="#e6e5f1" stroke-width="1.51"/><path d="M-269,470L-299,738L-204,543Z" fill="#c0bcdc" stroke="#c0bcdc" stroke-width="1.51"/><path d="M1425,834L1541,626L1282,682Z" fill="#694ea2" stroke="#694ea2" stroke-width="1.51"/><path d="M1374,970L1460,881L1425,834Z" fill="#5d3897" stroke="#5d3897" stroke-width="1.51"/><path d="M1532,1116L1460,881L1374,970Z" fill="#562a91" stroke="#562a91" stroke-width="1.51"/><path d="M1159,-34L1069,-243L953,-204Z" fill="#b7afd6" stroke="#b7afd6" stroke-width="1.51"/><path d="M953,-204L1069,-243L592,-237Z" fill="#c2bfdd" stroke="#c2bfdd" stroke-width="1.51"/><path d="M1234,-149L1069,-243L1159,-34Z" fill="#b2a5d1" stroke="#b2a5d1" stroke-width="1.51"/><path d="M1312,-57L1159,-34L1249,80Z" fill="#a897ca" stroke="#a897ca" stroke-width="1.51"/><path d="M1460,881L1503,815L1425,834Z" fill="#5f3b98" stroke="#5f3b98" stroke-width="1.51"/><path d="M1410,75L1312,-57L1249,80Z" fill="#a38fc5" stroke="#a38fc5" stroke-width="1.51"/><path d="M1541,626L1410,436L1282,682Z" fill="#735da9" stroke="#735da9" stroke-width="1.51"/><path d="M1503,815L1541,626L1425,834Z" fill="#63439c" stroke="#63439c" stroke-width="1.51"/><path d="M1410,75L1342,327L1522,135Z" fill="#957ebc" stroke="#957ebc" stroke-width="1.51"/><path d="M1309,1104L1532,1116L1374,970Z" fill="#54288e" stroke="#54288e" stroke-width="1.51"/><path d="M1676,984L1628,780L1503,815Z" fill="#583092" stroke="#583092" stroke-width="1.51"/><path d="M1040,1297L1190,1317L1144,1038Z" fill="#5b3895" stroke="#5b3895" stroke-width="1.51"/><path d="M596,1311L1190,1317L1040,1297Z" fill="#64479c" stroke="#64479c" stroke-width="1.51"/><path d="M1522,135L1342,327L1453,363Z" fill="#8c75b7" stroke="#8c75b7" stroke-width="1.51"/><path d="M1312,-57L1234,-149L1159,-34Z" fill="#ad9ccc" stroke="#ad9ccc" stroke-width="1.51"/><path d="M-187,1257L-52,1300L-62,1047Z" fill="#9c7ab9" stroke="#9c7ab9" stroke-width="1.51"/><path d="M153,1178L-52,1300L425,1232Z" fill="#9171b4" stroke="#9171b4" stroke-width="1.51"/><path d="M-187,1257L-62,1047L-161,1021Z" fill="#9f7fbd" stroke="#9f7fbd" stroke-width="1.51"/><path d="M-73,-155L-216,24L-64,0Z" fill="#eeedf5" stroke="#eeedf5" stroke-width="1.51"/><path d="M-171,83L-216,24L-227,263Z" fill="#e6e5f1" stroke="#e6e5f1" stroke-width="1.51"/><path d="M-227,263L-253,-144L-269,470Z" fill="#e1e0ee" stroke="#e1e0ee" stroke-width="1.51"/><path d="M1190,1317L1288,1256L1144,1038Z" fill="#573191" stroke="#573191" stroke-width="1.51"/><path d="M22,-113L-73,-155L-64,0Z" fill="#eeecf4" stroke="#eeecf4" stroke-width="1.51"/><path d="M254,-191L-73,-155L22,-113Z" fill="#ecebf4" stroke="#ecebf4" stroke-width="1.51"/><path d="M-253,-144L-73,-155L254,-191Z" fill="#f1eff6" stroke="#f1eff6" stroke-width="1.51"/><path d="M1731,255L1522,135L1453,363Z" fill="#896eb4" stroke="#896eb4" stroke-width="1.51"/><path d="M1410,75L1345,-135L1312,-57Z" fill="#a690c6" stroke="#a690c6" stroke-width="1.51"/><path d="M1312,-57L1345,-135L1234,-149Z" fill="#ac98ca" stroke="#ac98ca" stroke-width="1.51"/><path d="M1546,25L1345,-135L1410,75Z" fill="#a188c3" stroke="#a188c3" stroke-width="1.51"/><path d="M1234,-149L1513,-248L1069,-243Z" fill="#b09ecd" stroke="#b09ecd" stroke-width="1.51"/><path d="M-299,738L-187,1257L-161,1021Z" fill="#a789c3" stroke="#a789c3" stroke-width="1.51"/><path d="M1503,815L1628,780L1541,626Z" fill="#61419b" stroke="#61419b" stroke-width="1.51"/><path d="M1698,548L1672,403L1538,486Z" fill="#7357a5" stroke="#7357a5" stroke-width="1.51"/><path d="M1538,486L1672,403L1453,363Z" fill="#7b60ac" stroke="#7b60ac" stroke-width="1.51"/><path d="M1676,984L1503,815L1460,881Z" fill="#582f92" stroke="#582f92" stroke-width="1.51"/><path d="M1288,1256L1532,1116L1309,1104Z" fill="#50238a" stroke="#50238a" stroke-width="1.51"/><path d="M1586,1219L1532,1116L1288,1256Z" fill="#4b1987" stroke="#4b1987" stroke-width="1.51"/><path d="M1698,548L1538,486L1541,626Z" fill="#6f53a4" stroke="#6f53a4" stroke-width="1.51"/><path d="M1680,115L1546,25L1522,135Z" fill="#967aba" stroke="#967aba" stroke-width="1.51"/><path d="M1522,135L1546,25L1410,75Z" fill="#9a7fbe" stroke="#9a7fbe" stroke-width="1.51"/><path d="M-73,-155L-253,-144L-216,24Z" fill="#f2f1f7" stroke="#f2f1f7" stroke-width="1.51"/><path d="M-216,24L-253,-144L-227,263Z" fill="#ebebf4" stroke="#ebebf4" stroke-width="1.51"/><path d="M-269,470L-253,-144L-299,738Z" fill="#d4d2e7" stroke="#d4d2e7" stroke-width="1.51"/><path d="M592,-237L-253,-144L254,-191Z" fill="#e9e8f2" stroke="#e9e8f2" stroke-width="1.51"/><path d="M1676,984L1698,548L1628,780Z" fill="#5c3895" stroke="#5c3895" stroke-width="1.51"/><path d="M1628,780L1698,548L1541,626Z" fill="#65499e" stroke="#65499e" stroke-width="1.51"/><path d="M1532,1116L1676,984L1460,881Z" fill="#51228c" stroke="#51228c" stroke-width="1.51"/><path d="M1731,255L1453,363L1672,403Z" fill="#8064ad" stroke="#8064ad" stroke-width="1.51"/><path d="M1731,255L1680,115L1522,135Z" fill="#8e71b4" stroke="#8e71b4" stroke-width="1.51"/><path d="M1546,25L1513,-248L1345,-135Z" fill="#a68ac4" stroke="#a68ac4" stroke-width="1.51"/><path d="M1698,548L1731,255L1672,403Z" fill="#785aa6" stroke="#785aa6" stroke-width="1.51"/><path d="M1702,1040L1731,255L1698,548Z" fill="#64489d" stroke="#64489d" stroke-width="1.51"/><path d="M1532,1116L1702,1040L1676,984Z" fill="#4b1887" stroke="#4b1887" stroke-width="1.51"/><path d="M1190,1317L1586,1219L1288,1256Z" fill="#50248b" stroke="#50248b" stroke-width="1.51"/><path d="M1676,984L1702,1040L1698,548Z" fill="#552b8f" stroke="#552b8f" stroke-width="1.51"/><path d="M1650,1228L1702,1040L1532,1116Z" fill="#461082" stroke="#461082" stroke-width="1.51"/><path d="M1731,255L1682,5L1680,115Z" fill="#8f71b4" stroke="#8f71b4" stroke-width="1.51"/><path d="M1680,115L1682,5L1546,25Z" fill="#9779b9" stroke="#9779b9" stroke-width="1.51"/><path d="M1635,-228L1513,-248L1546,25Z" fill="#a385c1" stroke="#a385c1" stroke-width="1.51"/><path d="M1345,-135L1513,-248L1234,-149Z" fill="#ac95c9" stroke="#ac95c9" stroke-width="1.51"/><path d="M1586,1219L1650,1228L1532,1116Z" fill="#460f82" stroke="#460f82" stroke-width="1.51"/><path d="M1190,1317L1650,1228L1586,1219Z" fill="#4b1886" stroke="#4b1886" stroke-width="1.51"/><path d="M1682,5L1635,-228L1546,25Z" fill="#9e7fbd" stroke="#9e7fbd" stroke-width="1.51"/></svg>