<svg xmlns="http://www.w3.org/2000/svg" width="1440" height="900"><path d="M775,515L831,552L854,300Z" fill="#f9fdb5" stroke="#f9fdb5" stroke-width="1.51"/><path d="M831,552L1029,504L854,300Z" fill="#f4fbad" stroke="#f4fbad" stroke-width="1.51"/><path d="M1029,504L1040,273L854,300Z" fill="#ecef9e" stroke="#ecef9e" stroke-width="1.51"/><path d="M831,552L902,680L1029,504Z" fill="#e9f69c" stroke="#e9f69c" stroke-width="1.51"/><path d="M567,686L902,680L831,552Z" fill="#eaf7a8" stroke="#eaf7a8" stroke-width="1.51"/><path d="M1029,504L1106,280L1040,273Z" fill="#e1e99f" stroke="#e1e99f" stroke-width="1.51"/><path d="M854,300L608,328L775,515Z" fill="#fef7b1" stroke="#fef7b1" stroke-width="1.51"/><path d="M775,515L567,686L831,552Z" fill="#f4fbae" stroke="#f4fbae" stroke-width="1.51"/><path d="M641,69L608,328L854,300Z" fill="#ffe49a" stroke="#ffe49a" stroke-width="1.51"/><path d="M608,328L589,449L775,515Z" fill="#fff8b4" stroke="#fff8b4" stroke-width="1.51"/><path d="M1040,273L885,100L854,300Z" fill="#f3e088" stroke="#f3e088" stroke-width="1.51"/><path d="M1024,81L885,100L1040,273Z" fill="#edd17f" stroke="#edd17f" stroke-width="1.51"/><path d="M1029,504L1220,383L1106,280Z" fill="#d8e9a7" stroke="#d8e9a7" stroke-width="1.51"/><path d="M1322,508L1220,383L1029,504Z" fill="#cdeaaf" stroke="#cdeaaf" stroke-width="1.51"/><path d="M608,328L538,292L589,449Z" fill="#ffeb9e" stroke="#ffeb9e" stroke-width="1.51"/><path d="M529,135L538,292L608,328Z" fill="#ffdc8a" stroke="#ffdc8a" stroke-width="1.51"/><path d="M902,680L997,775L1029,504Z" fill="#d7ef9c" stroke="#d7ef9c" stroke-width="1.51"/><path d="M721,865L997,775L902,680Z" fill="#caeaa3" stroke="#caeaa3" stroke-width="1.51"/><path d="M1106,280L1024,81L1040,273Z" fill="#e3d68a" stroke="#e3d68a" stroke-width="1.51"/><path d="M1206,28L1024,81L1106,280Z" fill="#dec681" stroke="#dec681" stroke-width="1.51"/><path d="M997,775L1169,676L1029,504Z" fill="#cbe99e" stroke="#cbe99e" stroke-width="1.51"/><path d="M589,449L567,686L775,515Z" fill="#f7f7a9" stroke="#f7f7a9" stroke-width="1.51"/><path d="M537,688L567,686L448,531Z" fill="#ede993" stroke="#ede993" stroke-width="1.51"/><path d="M567,686L721,865L902,680Z" fill="#d8f0b0" stroke="#d8f0b0" stroke-width="1.51"/><path d="M448,531L567,686L589,449Z" fill="#f6ee9b" stroke="#f6ee9b" stroke-width="1.51"/><path d="M885,100L641,69L854,300Z" fill="#fcd88b" stroke="#fcd88b" stroke-width="1.51"/><path d="M892,-62L641,69L885,100Z" fill="#fcc17d" stroke="#fcc17d" stroke-width="1.51"/><path d="M538,292L448,531L589,449Z" fill="#ffeea2" stroke="#ffeea2" stroke-width="1.51"/><path d="M641,69L529,135L608,328Z" fill="#ffd385" stroke="#ffd385" stroke-width="1.51"/><path d="M538,292L321,518L448,531Z" fill="#ffe69c" stroke="#ffe69c" stroke-width="1.51"/><path d="M1220,383L1307,240L1106,280Z" fill="#cdda99" stroke="#cdda99" stroke-width="1.51"/><path d="M1169,676L1322,508L1029,504Z" fill="#c7e8a4" stroke="#c7e8a4" stroke-width="1.51"/><path d="M688,871L721,865L567,686Z" fill="#cde6aa" stroke="#cde6aa" stroke-width="1.51"/><path d="M997,775L1155,797L1169,676Z" fill="#b2e0a3" stroke="#b2e0a3" stroke-width="1.51"/><path d="M1169,676L1365,586L1322,508Z" fill="#b5dfa1" stroke="#b5dfa1" stroke-width="1.51"/><path d="M1204,959L1155,797L997,775Z" fill="#9dd7a4" stroke="#9dd7a4" stroke-width="1.51"/><path d="M1457,298L1307,240L1220,383Z" fill="#bcd49b" stroke="#bcd49b" stroke-width="1.51"/><path d="M537,688L688,871L567,686Z" fill="#d9e6a2" stroke="#d9e6a2" stroke-width="1.51"/><path d="M1204,959L1259,791L1155,797Z" fill="#8ed1a5" stroke="#8ed1a5" stroke-width="1.51"/><path d="M1024,81L892,-62L885,100Z" fill="#f3bf72" stroke="#f3bf72" stroke-width="1.51"/><path d="M1076,-31L892,-62L1024,81Z" fill="#ecb36f" stroke="#ecb36f" stroke-width="1.51"/><path d="M1206,28L1076,-31L1024,81Z" fill="#dfb476" stroke="#dfb476" stroke-width="1.51"/><path d="M1259,791L1365,586L1169,676Z" fill="#a7daa2" stroke="#a7daa2" stroke-width="1.51"/><path d="M1322,508L1457,298L1220,383Z" fill="#badca9" stroke="#badca9" stroke-width="1.51"/><path d="M1307,240L1206,28L1106,280Z" fill="#d0c989" stroke="#d0c989" stroke-width="1.51"/><path d="M860,1018L997,775L721,865Z" fill="#b5dfa5" stroke="#b5dfa5" stroke-width="1.51"/><path d="M1155,797L1259,791L1169,676Z" fill="#a4d9a4" stroke="#a4d9a4" stroke-width="1.51"/><path d="M373,684L397,725L537,688Z" fill="#e3db8d" stroke="#e3db8d" stroke-width="1.51"/><path d="M537,688L451,1017L688,871Z" fill="#c5da9e" stroke="#c5da9e" stroke-width="1.51"/><path d="M237,241L321,518L538,292Z" fill="#ffd485" stroke="#ffd485" stroke-width="1.51"/><path d="M373,684L537,688L448,531Z" fill="#eee28c" stroke="#eee28c" stroke-width="1.51"/><path d="M940,-285L942,-127L1178,-224Z" fill="#d39673" stroke="#d39673" stroke-width="1.51"/><path d="M1076,-31L942,-127L892,-62Z" fill="#e9ab70" stroke="#e9ab70" stroke-width="1.51"/><path d="M563,-134L437,-40L641,69Z" fill="#fba96b" stroke="#fba96b" stroke-width="1.51"/><path d="M437,-40L367,41L529,135Z" fill="#fcad66" stroke="#fcad66" stroke-width="1.51"/><path d="M321,518L373,684L448,531Z" fill="#f6dc87" stroke="#f6dc87" stroke-width="1.51"/><path d="M702,1036L721,865L688,871Z" fill="#b7deb1" stroke="#b7deb1" stroke-width="1.51"/><path d="M702,1036L860,1018L721,865Z" fill="#b0d4b3" stroke="#b0d4b3" stroke-width="1.51"/><path d="M1405,128L1246,-52L1206,28Z" fill="#c8aa79" stroke="#c8aa79" stroke-width="1.51"/><path d="M1474,535L1457,298L1322,508Z" fill="#b2d4b7" stroke="#b2d4b7" stroke-width="1.51"/><path d="M1206,28L1246,-52L1076,-31Z" fill="#d6a772" stroke="#d6a772" stroke-width="1.51"/><path d="M1405,128L1206,28L1307,240Z" fill="#c5bb83" stroke="#c5bb83" stroke-width="1.51"/><path d="M1365,586L1474,535L1322,508Z" fill="#add7aa" stroke="#add7aa" stroke-width="1.51"/><path d="M1493,688L1474,535L1365,586Z" fill="#a5cca7" stroke="#a5cca7" stroke-width="1.51"/><path d="M1457,298L1405,128L1307,240Z" fill="#babf92" stroke="#babf92" stroke-width="1.51"/><path d="M860,1018L942,1049L997,775Z" fill="#a8d5a2" stroke="#a8d5a2" stroke-width="1.51"/><path d="M942,1049L1204,959L997,775Z" fill="#98d2a3" stroke="#98d2a3" stroke-width="1.51"/><path d="M1259,791L1417,751L1365,586Z" fill="#96d3a3" stroke="#96d3a3" stroke-width="1.51"/><path d="M860,1018L906,1106L942,1049Z" fill="#a0c0af" stroke="#a0c0af" stroke-width="1.51"/><path d="M451,1017L702,1036L688,871Z" fill="#b4cdab" stroke="#b4cdab" stroke-width="1.51"/><path d="M1305,937L1417,751L1259,791Z" fill="#7fcba5" stroke="#7fcba5" stroke-width="1.51"/><path d="M529,135L237,241L538,292Z" fill="#fecb79" stroke="#fecb79" stroke-width="1.51"/><path d="M437,-40L529,135L641,69Z" fill="#feb870" stroke="#feb870" stroke-width="1.51"/><path d="M563,-134L641,69L892,-62Z" fill="#fdb37d" stroke="#fdb37d" stroke-width="1.51"/><path d="M819,-303L563,-134L892,-62Z" fill="#efa481" stroke="#efa481" stroke-width="1.51"/><path d="M367,41L237,241L529,135Z" fill="#feb768" stroke="#feb768" stroke-width="1.51"/><path d="M1291,1117L1305,937L1204,959Z" fill="#6bb6ac" stroke="#6bb6ac" stroke-width="1.51"/><path d="M1204,959L1305,937L1259,791Z" fill="#7bc9a5" stroke="#7bc9a5" stroke-width="1.51"/><path d="M1589,647L1493,688L1633,857Z" fill="#84b0b0" stroke="#84b0b0" stroke-width="1.51"/><path d="M1417,751L1493,688L1365,586Z" fill="#98c9a8" stroke="#98c9a8" stroke-width="1.51"/><path d="M1622,147L1507,161L1702,272Z" fill="#b29a95" stroke="#b29a95" stroke-width="1.51"/><path d="M122,140L128,197L237,241Z" fill="#fca15d" stroke="#fca15d" stroke-width="1.51"/><path d="M437,-40L349,4L367,41Z" fill="#fb9c5b" stroke="#fb9c5b" stroke-width="1.51"/><path d="M258,-259L349,4L437,-40Z" fill="#f2895a" stroke="#f2895a" stroke-width="1.51"/><path d="M753,1152L906,1106L860,1018Z" fill="#a4bbb4" stroke="#a4bbb4" stroke-width="1.51"/><path d="M942,1049L1204,1125L1204,959Z" fill="#82b7af" stroke="#82b7af" stroke-width="1.51"/><path d="M1457,298L1507,161L1405,128Z" fill="#b7b193" stroke="#b7b193" stroke-width="1.51"/><path d="M1405,128L1465,-69L1246,-52Z" fill="#bf9c77" stroke="#bf9c77" stroke-width="1.51"/><path d="M1605,459L1457,298L1474,535Z" fill="#acc5bb" stroke="#acc5bb" stroke-width="1.51"/><path d="M942,-127L819,-303L892,-62Z" fill="#e8a276" stroke="#e8a276" stroke-width="1.51"/><path d="M1178,-224L942,-127L1076,-31Z" fill="#d99f74" stroke="#d99f74" stroke-width="1.51"/><path d="M1246,-52L1178,-224L1076,-31Z" fill="#cf9d75" stroke="#cf9d75" stroke-width="1.51"/><path d="M1337,-303L1178,-224L1246,-52Z" fill="#b98d77" stroke="#b98d77" stroke-width="1.51"/><path d="M397,725L451,1017L537,688Z" fill="#cfd593" stroke="#cfd593" stroke-width="1.51"/><path d="M702,1036L753,1152L860,1018Z" fill="#a6c1bb" stroke="#a6c1bb" stroke-width="1.51"/><path d="M373,984L451,1017L397,725Z" fill="#bfc68e" stroke="#bfc68e" stroke-width="1.51"/><path d="M206,726L397,725L373,684Z" fill="#e2cd82" stroke="#e2cd82" stroke-width="1.51"/><path d="M206,726L373,684L321,518Z" fill="#eece7d" stroke="#eece7d" stroke-width="1.51"/><path d="M237,241L148,496L321,518Z" fill="#ffc985" stroke="#ffc985" stroke-width="1.51"/><path d="M148,496L206,726L321,518Z" fill="#f6c879" stroke="#f6c879" stroke-width="1.51"/><path d="M610,1182L753,1152L702,1036Z" fill="#adb5b8" stroke="#adb5b8" stroke-width="1.51"/><path d="M1589,647L1605,459L1474,535Z" fill="#a2bdb4" stroke="#a2bdb4" stroke-width="1.51"/><path d="M940,-285L819,-303L942,-127Z" fill="#da9872" stroke="#da9872" stroke-width="1.51"/><path d="M563,-134L451,-270L437,-40Z" fill="#ef9469" stroke="#ef9469" stroke-width="1.51"/><path d="M451,1017L610,1182L702,1036Z" fill="#acb7b0" stroke="#acb7b0" stroke-width="1.51"/><path d="M206,726L373,984L397,725Z" fill="#d1c585" stroke="#d1c585" stroke-width="1.51"/><path d="M1493,688L1589,647L1474,535Z" fill="#9dbfac" stroke="#9dbfac" stroke-width="1.51"/><path d="M1633,857L1493,688L1417,751Z" fill="#7db6b0" stroke="#7db6b0" stroke-width="1.51"/><path d="M753,1152L1204,1125L906,1106Z" fill="#9eb0aa" stroke="#9eb0aa" stroke-width="1.51"/><path d="M906,1106L1204,1125L942,1049Z" fill="#91b3ad" stroke="#91b3ad" stroke-width="1.51"/><path d="M1305,937L1477,946L1417,751Z" fill="#6cbda9" stroke="#6cbda9" stroke-width="1.51"/><path d="M1507,161L1465,-69L1405,128Z" fill="#b99d85" stroke="#b99d85" stroke-width="1.51"/><path d="M1635,-54L1465,-69L1507,161Z" fill="#b48683" stroke="#b48683" stroke-width="1.51"/><path d="M237,241L128,197L148,496Z" fill="#feb56e" stroke="#feb56e" stroke-width="1.51"/><path d="M122,140L237,241L367,41Z" fill="#fca55c" stroke="#fca55c" stroke-width="1.51"/><path d="M1291,1117L1477,946L1305,937Z" fill="#5cb0ad" stroke="#5cb0ad" stroke-width="1.51"/><path d="M753,1152L1448,1213L1204,1125Z" fill="#85a0aa" stroke="#85a0aa" stroke-width="1.51"/><path d="M538,1190L610,1182L451,1017Z" fill="#b0a8a5" stroke="#b0a8a5" stroke-width="1.51"/><path d="M1702,272L1507,161L1457,298Z" fill="#afaaa0" stroke="#afaaa0" stroke-width="1.51"/><path d="M349,4L122,140L367,41Z" fill="#fb9b57" stroke="#fb9b57" stroke-width="1.51"/><path d="M819,-303L553,-306L563,-134Z" fill="#e29478" stroke="#e29478" stroke-width="1.51"/><path d="M-30,397L41,587L148,496Z" fill="#f9b27b" stroke="#f9b27b" stroke-width="1.51"/><path d="M124,-37L122,140L349,4Z" fill="#f9894f" stroke="#f9894f" stroke-width="1.51"/><path d="M1204,1125L1291,1117L1204,959Z" fill="#6aacb2" stroke="#6aacb2" stroke-width="1.51"/><path d="M1448,1213L1291,1117L1204,1125Z" fill="#6698ab" stroke="#6698ab" stroke-width="1.51"/><path d="M553,-306L451,-270L563,-134Z" fill="#e28c6b" stroke="#e28c6b" stroke-width="1.51"/><path d="M248,1143L538,1190L451,1017Z" fill="#b19e99" stroke="#b19e99" stroke-width="1.51"/><path d="M610,1182L1448,1213L753,1152Z" fill="#a4a7a5" stroke="#a4a7a5" stroke-width="1.51"/><path d="M1605,459L1702,272L1457,298Z" fill="#adb2ac" stroke="#adb2ac" stroke-width="1.51"/><path d="M1830,454L1702,272L1605,459Z" fill="#b2a4ad" stroke="#b2a4ad" stroke-width="1.51"/><path d="M206,726L183,1021L373,984Z" fill="#c1b47f" stroke="#c1b47f" stroke-width="1.51"/><path d="M373,984L248,1143L451,1017Z" fill="#b3a695" stroke="#b3a695" stroke-width="1.51"/><path d="M148,496L41,587L206,726Z" fill="#f4b96f" stroke="#f4b96f" stroke-width="1.51"/><path d="M-30,397L148,496L128,197Z" fill="#fdae71" stroke="#fdae71" stroke-width="1.51"/><path d="M1178,-224L1337,-303L940,-285Z" fill="#b98873" stroke="#b98873" stroke-width="1.51"/><path d="M940,-285L1337,-303L819,-303Z" fill="#c28b70" stroke="#c28b70" stroke-width="1.51"/><path d="M819,-303L1337,-303L553,-306Z" fill="#ce8f6f" stroke="#ce8f6f" stroke-width="1.51"/><path d="M1465,-69L1337,-303L1246,-52Z" fill="#b58d78" stroke="#b58d78" stroke-width="1.51"/><path d="M1559,-171L1337,-303L1465,-69Z" fill="#a9787f" stroke="#a9787f" stroke-width="1.51"/><path d="M1635,-54L1507,161L1622,147Z" fill="#b38b8a" stroke="#b38b8a" stroke-width="1.51"/><path d="M1589,647L1830,454L1605,459Z" fill="#abadb0" stroke="#abadb0" stroke-width="1.51"/><path d="M1477,946L1633,857L1417,751Z" fill="#69afb0" stroke="#69afb0" stroke-width="1.51"/><path d="M1687,936L1633,857L1477,946Z" fill="#5b9eaf" stroke="#5b9eaf" stroke-width="1.51"/><path d="M161,-194L124,-37L349,4Z" fill="#f1784e" stroke="#f1784e" stroke-width="1.51"/><path d="M-22,155L-30,397L128,197Z" fill="#f69a63" stroke="#f69a63" stroke-width="1.51"/><path d="M1788,154L1635,-54L1622,147Z" fill="#b57c84" stroke="#b57c84" stroke-width="1.51"/><path d="M-22,155L128,197L122,140Z" fill="#f99156" stroke="#f99156" stroke-width="1.51"/><path d="M41,587L76,857L206,726Z" fill="#e1ae71" stroke="#e1ae71" stroke-width="1.51"/><path d="M-42,873L76,857L41,587Z" fill="#d4a274" stroke="#d4a274" stroke-width="1.51"/><path d="M76,857L183,1021L206,726Z" fill="#c9a978" stroke="#c9a978" stroke-width="1.51"/><path d="M1635,-54L1559,-171L1465,-69Z" fill="#aa7383" stroke="#aa7383" stroke-width="1.51"/><path d="M553,-306L258,-259L451,-270Z" fill="#d97b5f" stroke="#d97b5f" stroke-width="1.51"/><path d="M451,-270L258,-259L437,-40Z" fill="#e8825f" stroke="#e8825f" stroke-width="1.51"/><path d="M11,-22L122,140L124,-37Z" fill="#f57547" stroke="#f57547" stroke-width="1.51"/><path d="M11,-22L-22,155L122,140Z" fill="#f37f4f" stroke="#f37f4f" stroke-width="1.51"/><path d="M258,-259L161,-194L349,4Z" fill="#eb7554" stroke="#eb7554" stroke-width="1.51"/><path d="M183,1021L248,1143L373,984Z" fill="#b49a8d" stroke="#b49a8d" stroke-width="1.51"/><path d="M138,1054L248,1143L183,1021Z" fill="#b28b89" stroke="#b28b89" stroke-width="1.51"/><path d="M1635,-54L1626,-253L1559,-171Z" fill="#a56481" stroke="#a56481" stroke-width="1.51"/><path d="M1702,272L1788,154L1622,147Z" fill="#b58c90" stroke="#b58c90" stroke-width="1.51"/><path d="M1832,316L1788,154L1702,272Z" fill="#b58d94" stroke="#b58d94" stroke-width="1.51"/><path d="M1924,600L1830,454L1589,647Z" fill="#ab9fa6" stroke="#ab9fa6" stroke-width="1.51"/><path d="M1633,857L1783,800L1589,647Z" fill="#84a0aa" stroke="#84a0aa" stroke-width="1.51"/><path d="M1605,1157L1687,936L1477,946Z" fill="#488db7" stroke="#488db7" stroke-width="1.51"/><path d="M76,857L138,1054L183,1021Z" fill="#bc967c" stroke="#bc967c" stroke-width="1.51"/><path d="M1830,454L1832,316L1702,272Z" fill="#b499a3" stroke="#b499a3" stroke-width="1.51"/><path d="M-33,-192L11,-22L124,-37Z" fill="#e95d48" stroke="#e95d48" stroke-width="1.51"/><path d="M1291,1117L1448,1213L1477,946Z" fill="#4f98b4" stroke="#4f98b4" stroke-width="1.51"/><path d="M538,1190L1448,1213L610,1182Z" fill="#aaa6a9" stroke="#aaa6a9" stroke-width="1.51"/><path d="M1687,936L1783,800L1633,857Z" fill="#7194a8" stroke="#7194a8" stroke-width="1.51"/><path d="M76,857L25,1097L138,1054Z" fill="#b88a7c" stroke="#b88a7c" stroke-width="1.51"/><path d="M-30,397L-111,590L41,587Z" fill="#f0a979" stroke="#f0a979" stroke-width="1.51"/><path d="M-270,468L-111,590L-30,397Z" fill="#eba17f" stroke="#eba17f" stroke-width="1.51"/><path d="M-120,281L-30,397L-22,155Z" fill="#f19769" stroke="#f19769" stroke-width="1.51"/><path d="M-289,133L-120,281L-22,155Z" fill="#e77f5e" stroke="#e77f5e" stroke-width="1.51"/><path d="M1885,-195L1626,-253L1635,-54Z" fill="#a5517b" stroke="#a5517b" stroke-width="1.51"/><path d="M1559,-171L1626,-253L1337,-303Z" fill="#99697f" stroke="#99697f" stroke-width="1.51"/><path d="M-111,590L-42,873L41,587Z" fill="#dea273" stroke="#dea273" stroke-width="1.51"/><path d="M1687,936L1822,979L1783,800Z" fill="#6c89a5" stroke="#6c89a5" stroke-width="1.51"/><path d="M1448,1213L1605,1157L1477,946Z" fill="#4287b8" stroke="#4287b8" stroke-width="1.51"/><path d="M1830,454L1924,600L1832,316Z" fill="#b2a3b2" stroke="#b2a3b2" stroke-width="1.51"/><path d="M1832,316L1885,-119L1788,154Z" fill="#b67784" stroke="#b67784" stroke-width="1.51"/><path d="M1783,800L1924,600L1589,647Z" fill="#9a99a3" stroke="#9a99a3" stroke-width="1.51"/><path d="M1822,979L1924,600L1783,800Z" fill="#8492a5" stroke="#8492a5" stroke-width="1.51"/><path d="M-42,873L25,1097L76,857Z" fill="#b99177" stroke="#b99177" stroke-width="1.51"/><path d="M138,1054L25,1097L248,1143Z" fill="#b37e82" stroke="#b37e82" stroke-width="1.51"/><path d="M161,-194L-33,-192L124,-37Z" fill="#e75949" stroke="#e75949" stroke-width="1.51"/><path d="M-289,133L-234,344L-120,281Z" fill="#de8364" stroke="#de8364" stroke-width="1.51"/><path d="M258,-259L-33,-192L161,-194Z" fill="#de564a" stroke="#de564a" stroke-width="1.51"/><path d="M1605,1157L1822,979L1687,936Z" fill="#547cb0" stroke="#547cb0" stroke-width="1.51"/><path d="M-205,16L-22,155L11,-22Z" fill="#ea6a4e" stroke="#ea6a4e" stroke-width="1.51"/><path d="M-120,281L-234,344L-30,397Z" fill="#ec9773" stroke="#ec9773" stroke-width="1.51"/><path d="M-231,919L-98,1029L-42,873Z" fill="#ae857a" stroke="#ae857a" stroke-width="1.51"/><path d="M-42,873L-98,1029L25,1097Z" fill="#b0807e" stroke="#b0807e" stroke-width="1.51"/><path d="M-235,760L-42,873L-111,590Z" fill="#cd9677" stroke="#cd9677" stroke-width="1.51"/><path d="M-234,344L-270,468L-30,397Z" fill="#e7997b" stroke="#e7997b" stroke-width="1.51"/><path d="M1788,154L1885,-119L1635,-54Z" fill="#b55f77" stroke="#b55f77" stroke-width="1.51"/><path d="M1924,600L1885,-119L1832,316Z" fill="#b59097" stroke="#b59097" stroke-width="1.51"/><path d="M-289,133L-299,541L-270,468Z" fill="#d78b74" stroke="#d78b74" stroke-width="1.51"/><path d="M-33,-192L-205,16L11,-22Z" fill="#e2534a" stroke="#e2534a" stroke-width="1.51"/><path d="M-299,541L-235,760L-111,590Z" fill="#d39470" stroke="#d39470" stroke-width="1.51"/><path d="M-270,468L-299,541L-111,590Z" fill="#db9777" stroke="#db9777" stroke-width="1.51"/><path d="M-289,133L-270,468L-234,344Z" fill="#d9876a" stroke="#d9876a" stroke-width="1.51"/><path d="M1885,-119L1885,-195L1635,-54Z" fill="#aa4f78" stroke="#aa4f78" stroke-width="1.51"/><path d="M1924,600L1885,-195L1885,-119Z" fill="#b67381" stroke="#b67381" stroke-width="1.51"/><path d="M-205,16L-289,133L-22,155Z" fill="#e06c53" stroke="#e06c53" stroke-width="1.51"/><path d="M-299,541L-231,919L-235,760Z" fill="#bc8972" stroke="#bc8972" stroke-width="1.51"/><path d="M-235,760L-231,919L-42,873Z" fill="#b68976" stroke="#b68976" stroke-width="1.51"/><path d="M1605,1157L1787,1219L1822,979Z" fill="#5466ac" stroke="#5466ac" stroke-width="1.51"/><path d="M1822,979L1787,1219L1924,600Z" fill="#6886a6" stroke="#6886a6" stroke-width="1.51"/><path d="M1448,1213L1787,1219L1605,1157Z" fill="#5269ae" stroke="#5269ae" stroke-width="1.51"/><path d="M-33,-192L-208,-248L-205,16Z" fill="#d23f4d" stroke="#d23f4d" stroke-width="1.51"/><path d="M-205,16L-208,-248L-289,133Z" fill="#d24747" stroke="#d24747" stroke-width="1.51"/><path d="M258,-259L-208,-248L-33,-192Z" fill="#d2434a" stroke="#d2434a" stroke-width="1.51"/><path d="M553,-306L-208,-248L258,-259Z" fill="#d65c4e" stroke="#d65c4e" stroke-width="1.51"/><path d="M-98,1029L-154,1202L25,1097Z" fill="#a66781" stroke="#a66781" stroke-width="1.51"/><path d="M25,1097L-154,1202L248,1143Z" fill="#af697d" stroke="#af697d" stroke-width="1.51"/><path d="M248,1143L-154,1202L538,1190Z" fill="#b57882" stroke="#b57882" stroke-width="1.51"/><path d="M538,1190L-154,1202L1448,1213Z" fill="#b2a0a8" stroke="#b2a0a8" stroke-width="1.51"/><path d="M1448,1213L-154,1202L1787,1219Z" fill="#999ca4" stroke="#999ca4" stroke-width="1.51"/><path d="M-231,919L-154,1202L-98,1029Z" fill="#9e6b81" stroke="#9e6b81" stroke-width="1.51"/></svg>