<svg xmlns="http://www.w3.org/2000/svg" width="1440" height="900"><path d="M805,532L681,558L834,687Z" fill="#f6553c" stroke="#f6553c" stroke-width="1.51"/><path d="M834,687L953,549L805,532Z" fill="#f44e36" stroke="#f44e36" stroke-width="1.51"/><path d="M953,549L932,499L805,532Z" fill="#f55339" stroke="#f55339" stroke-width="1.51"/><path d="M805,532L702,370L681,558Z" fill="#fa6646" stroke="#fa6646" stroke-width="1.51"/><path d="M681,558L757,835L834,687Z" fill="#f04e37" stroke="#f04e37" stroke-width="1.51"/><path d="M834,687L1141,729L953,549Z" fill="#ee3b2b" stroke="#ee3b2b" stroke-width="1.51"/><path d="M795,352L702,370L805,532Z" fill="#fa6a4a" stroke="#fa6a4a" stroke-width="1.51"/><path d="M681,558L583,824L757,835Z" fill="#ed533b" stroke="#ed533b" stroke-width="1.51"/><path d="M445,551L583,824L681,558Z" fill="#f66246" stroke="#f66246" stroke-width="1.51"/><path d="M932,499L795,352L805,532Z" fill="#f85f42" stroke="#f85f42" stroke-width="1.51"/><path d="M702,370L539,398L681,558Z" fill="#fc7251" stroke="#fc7251" stroke-width="1.51"/><path d="M526,357L539,398L702,370Z" fill="#fc7d5b" stroke="#fc7d5b" stroke-width="1.51"/><path d="M757,835L876,912L834,687Z" fill="#e43f2e" stroke="#e43f2e" stroke-width="1.51"/><path d="M896,971L876,912L757,835Z" fill="#da3a2b" stroke="#da3a2b" stroke-width="1.51"/><path d="M539,398L445,551L681,558Z" fill="#fa7252" stroke="#fa7252" stroke-width="1.51"/><path d="M932,499L1034,346L795,352Z" fill="#f75f43" stroke="#f75f43" stroke-width="1.51"/><path d="M953,549L1066,509L932,499Z" fill="#f34c35" stroke="#f34c35" stroke-width="1.51"/><path d="M1141,606L1066,509L953,549Z" fill="#ed4431" stroke="#ed4431" stroke-width="1.51"/><path d="M583,824L585,1058L757,835Z" fill="#dd4d37" stroke="#dd4d37" stroke-width="1.51"/><path d="M445,551L506,865L583,824Z" fill="#ed6046" stroke="#ed6046" stroke-width="1.51"/><path d="M539,398L335,456L445,551Z" fill="#fc7e5e" stroke="#fc7e5e" stroke-width="1.51"/><path d="M626,250L526,357L702,370Z" fill="#fc7f5e" stroke="#fc7f5e" stroke-width="1.51"/><path d="M876,912L1039,865L834,687Z" fill="#e03428" stroke="#e03428" stroke-width="1.51"/><path d="M876,912L896,971L1039,865Z" fill="#d62e25" stroke="#d62e25" stroke-width="1.51"/><path d="M585,1058L896,971L757,835Z" fill="#d7422f" stroke="#d7422f" stroke-width="1.51"/><path d="M1141,729L1141,606L953,549Z" fill="#e8382a" stroke="#e8382a" stroke-width="1.51"/><path d="M1066,509L1034,346L932,499Z" fill="#f3533a" stroke="#f3533a" stroke-width="1.51"/><path d="M795,352L626,250L702,370Z" fill="#fc7958" stroke="#fc7958" stroke-width="1.51"/><path d="M1117,285L1034,346L1261,428Z" fill="#eb5840" stroke="#eb5840" stroke-width="1.51"/><path d="M755,43L626,250L795,352Z" fill="#fd8362" stroke="#fd8362" stroke-width="1.51"/><path d="M1039,865L1141,729L834,687Z" fill="#e23026" stroke="#e23026" stroke-width="1.51"/><path d="M445,551L313,753L506,865Z" fill="#f0694f" stroke="#f0694f" stroke-width="1.51"/><path d="M526,357L335,456L539,398Z" fill="#fc8362" stroke="#fc8362" stroke-width="1.51"/><path d="M366,315L335,456L526,357Z" fill="#fc8a6a" stroke="#fc8a6a" stroke-width="1.51"/><path d="M228,557L313,753L445,551Z" fill="#fa795c" stroke="#fa795c" stroke-width="1.51"/><path d="M506,865L567,1048L583,824Z" fill="#dd553e" stroke="#dd553e" stroke-width="1.51"/><path d="M392,979L567,1048L506,865Z" fill="#d85841" stroke="#d85841" stroke-width="1.51"/><path d="M567,1048L585,1058L583,824Z" fill="#d7513a" stroke="#d7513a" stroke-width="1.51"/><path d="M1034,346L934,140L795,352Z" fill="#f86d50" stroke="#f86d50" stroke-width="1.51"/><path d="M1261,428L1034,346L1066,509Z" fill="#eb5039" stroke="#eb5039" stroke-width="1.51"/><path d="M626,250L366,315L526,357Z" fill="#fc8a69" stroke="#fc8a69" stroke-width="1.51"/><path d="M1117,285L934,140L1034,346Z" fill="#f4694d" stroke="#f4694d" stroke-width="1.51"/><path d="M626,250L516,32L366,315Z" fill="#fd9575" stroke="#fd9575" stroke-width="1.51"/><path d="M567,1048L527,1159L585,1058Z" fill="#c74d39" stroke="#c74d39" stroke-width="1.51"/><path d="M313,753L392,979L506,865Z" fill="#e4634a" stroke="#e4634a" stroke-width="1.51"/><path d="M896,971L1183,1028L1039,865Z" fill="#cd2520" stroke="#cd2520" stroke-width="1.51"/><path d="M1039,865L1279,855L1141,729Z" fill="#d32120" stroke="#d32120" stroke-width="1.51"/><path d="M585,1058L880,1123L896,971Z" fill="#cb3a2a" stroke="#cb3a2a" stroke-width="1.51"/><path d="M335,456L228,557L445,551Z" fill="#fc8263" stroke="#fc8263" stroke-width="1.51"/><path d="M313,753L287,962L392,979Z" fill="#e16850" stroke="#e16850" stroke-width="1.51"/><path d="M172,557L228,557L194,343Z" fill="#fe9172" stroke="#fe9172" stroke-width="1.51"/><path d="M1326,540L1261,428L1141,606Z" fill="#e13e2d" stroke="#e13e2d" stroke-width="1.51"/><path d="M1141,606L1261,428L1066,509Z" fill="#e74331" stroke="#e74331" stroke-width="1.51"/><path d="M1141,729L1326,540L1141,606Z" fill="#e03127" stroke="#e03127" stroke-width="1.51"/><path d="M1183,1028L1279,855L1039,865Z" fill="#c81c1d" stroke="#c81c1d" stroke-width="1.51"/><path d="M755,43L655,58L626,250Z" fill="#fe9171" stroke="#fe9171" stroke-width="1.51"/><path d="M1279,855L1326,540L1141,729Z" fill="#d62522" stroke="#d62522" stroke-width="1.51"/><path d="M934,140L755,43L795,352Z" fill="#fb8060" stroke="#fb8060" stroke-width="1.51"/><path d="M165,798L287,962L313,753Z" fill="#e87158" stroke="#e87158" stroke-width="1.51"/><path d="M392,979L527,1159L567,1048Z" fill="#cc543e" stroke="#cc543e" stroke-width="1.51"/><path d="M268,1087L527,1159L392,979Z" fill="#cb5b46" stroke="#cb5b46" stroke-width="1.51"/><path d="M585,1058L527,1159L880,1123Z" fill="#c34331" stroke="#c34331" stroke-width="1.51"/><path d="M1044,1173L1183,1028L896,971Z" fill="#c1221e" stroke="#c1221e" stroke-width="1.51"/><path d="M228,557L165,798L313,753Z" fill="#f47b5f" stroke="#f47b5f" stroke-width="1.51"/><path d="M194,343L228,557L335,456Z" fill="#fe9070" stroke="#fe9070" stroke-width="1.51"/><path d="M172,557L165,798L228,557Z" fill="#fa8366" stroke="#fa8366" stroke-width="1.51"/><path d="M880,1123L1044,1173L896,971Z" fill="#c12821" stroke="#c12821" stroke-width="1.51"/><path d="M527,1159L1044,1173L880,1123Z" fill="#b93327" stroke="#b93327" stroke-width="1.51"/><path d="M1183,1028L1297,946L1279,855Z" fill="#bf151b" stroke="#bf151b" stroke-width="1.51"/><path d="M1279,855L1445,615L1326,540Z" fill="#d22722" stroke="#d22722" stroke-width="1.51"/><path d="M1274,1155L1297,946L1183,1028Z" fill="#b51319" stroke="#b51319" stroke-width="1.51"/><path d="M239,184L194,343L366,315Z" fill="#fd9f81" stroke="#fd9f81" stroke-width="1.51"/><path d="M366,315L194,343L335,456Z" fill="#fd9474" stroke="#fd9474" stroke-width="1.51"/><path d="M655,58L516,32L626,250Z" fill="#fe9778" stroke="#fe9778" stroke-width="1.51"/><path d="M691,-60L516,32L655,58Z" fill="#ffa083" stroke="#ffa083" stroke-width="1.51"/><path d="M186,1118L268,1087L287,962Z" fill="#d06953" stroke="#d06953" stroke-width="1.51"/><path d="M287,962L268,1087L392,979Z" fill="#d6664e" stroke="#d6664e" stroke-width="1.51"/><path d="M516,32L239,184L366,315Z" fill="#fda283" stroke="#fda283" stroke-width="1.51"/><path d="M755,43L691,-60L655,58Z" fill="#ff9a7c" stroke="#ff9a7c" stroke-width="1.51"/><path d="M795,-106L691,-60L755,43Z" fill="#ff9c80" stroke="#ff9c80" stroke-width="1.51"/><path d="M992,-45L755,43L934,140Z" fill="#fc896c" stroke="#fc896c" stroke-width="1.51"/><path d="M1326,540L1462,532L1261,428Z" fill="#d93e2d" stroke="#d93e2d" stroke-width="1.51"/><path d="M1568,855L1445,615L1279,855Z" fill="#c31b1c" stroke="#c31b1c" stroke-width="1.51"/><path d="M1044,1173L1128,1208L1183,1028Z" fill="#ae181a" stroke="#ae181a" stroke-width="1.51"/><path d="M527,1159L1128,1208L1044,1173Z" fill="#b32922" stroke="#b32922" stroke-width="1.51"/><path d="M1199,65L992,-45L934,140Z" fill="#f67f64" stroke="#f67f64" stroke-width="1.51"/><path d="M1199,65L934,140L1117,285Z" fill="#f17156" stroke="#f17156" stroke-width="1.51"/><path d="M1199,65L1117,285L1347,176Z" fill="#e86950" stroke="#e86950" stroke-width="1.51"/><path d="M1445,615L1462,532L1326,540Z" fill="#d33528" stroke="#d33528" stroke-width="1.51"/><path d="M1347,176L1117,285L1261,428Z" fill="#e55a42" stroke="#e55a42" stroke-width="1.51"/><path d="M992,-45L795,-106L755,43Z" fill="#ff9578" stroke="#ff9578" stroke-width="1.51"/><path d="M1405,191L1347,176L1431,213Z" fill="#db624a" stroke="#db624a" stroke-width="1.51"/><path d="M1568,855L1598,608L1445,615Z" fill="#c0211e" stroke="#c0211e" stroke-width="1.51"/><path d="M1128,1208L1274,1155L1183,1028Z" fill="#aa1318" stroke="#aa1318" stroke-width="1.51"/><path d="M807,-258L712,-195L795,-106Z" fill="#ffa78d" stroke="#ffa78d" stroke-width="1.51"/><path d="M1199,65L1173,-7L992,-45Z" fill="#f28067" stroke="#f28067" stroke-width="1.51"/><path d="M1373,-111L1173,-7L1199,65Z" fill="#ea7d66" stroke="#ea7d66" stroke-width="1.51"/><path d="M194,343L30,430L172,557Z" fill="#ff9a7b" stroke="#ff9a7b" stroke-width="1.51"/><path d="M172,557L-36,649L165,798Z" fill="#fa886d" stroke="#fa886d" stroke-width="1.51"/><path d="M70,966L186,1118L287,962Z" fill="#d6705a" stroke="#d6705a" stroke-width="1.51"/><path d="M-47,233L30,430L194,343Z" fill="#ffa98e" stroke="#ffa98e" stroke-width="1.51"/><path d="M70,966L287,962L165,798Z" fill="#e2755d" stroke="#e2755d" stroke-width="1.51"/><path d="M268,1087L186,1118L527,1159Z" fill="#c45e4a" stroke="#c45e4a" stroke-width="1.51"/><path d="M-50,924L70,966L165,798Z" fill="#e67d67" stroke="#e67d67" stroke-width="1.51"/><path d="M1347,176L1457,109L1199,65Z" fill="#e16c54" stroke="#e16c54" stroke-width="1.51"/><path d="M1431,213L1347,176L1261,428Z" fill="#dd5a43" stroke="#dd5a43" stroke-width="1.51"/><path d="M1373,-111L1094,-173L1173,-7Z" fill="#ee866f" stroke="#ee866f" stroke-width="1.51"/><path d="M1462,532L1431,213L1261,428Z" fill="#d94c36" stroke="#d94c36" stroke-width="1.51"/><path d="M30,430L-36,649L172,557Z" fill="#ff967a" stroke="#ff967a" stroke-width="1.51"/><path d="M-36,649L-38,728L165,798Z" fill="#f68970" stroke="#f68970" stroke-width="1.51"/><path d="M239,184L92,161L194,343Z" fill="#fdac8f" stroke="#fdac8f" stroke-width="1.51"/><path d="M30,430L-79,384L-36,649Z" fill="#ffa286" stroke="#ffa286" stroke-width="1.51"/><path d="M39,-7L92,161L239,184Z" fill="#fdbba2" stroke="#fdbba2" stroke-width="1.51"/><path d="M260,-111L239,184L516,32Z" fill="#fdb397" stroke="#fdb397" stroke-width="1.51"/><path d="M459,-136L516,32L516,-173Z" fill="#ffb399" stroke="#ffb399" stroke-width="1.51"/><path d="M516,-173L516,32L691,-60Z" fill="#ffab90" stroke="#ffab90" stroke-width="1.51"/><path d="M795,-106L712,-195L691,-60Z" fill="#ffa58a" stroke="#ffa58a" stroke-width="1.51"/><path d="M895,-191L795,-106L992,-45Z" fill="#ff997f" stroke="#ff997f" stroke-width="1.51"/><path d="M1094,-173L895,-191L992,-45Z" fill="#ff947b" stroke="#ff947b" stroke-width="1.51"/><path d="M712,-195L516,-173L691,-60Z" fill="#ffad93" stroke="#ffad93" stroke-width="1.51"/><path d="M1462,532L1624,301L1431,213Z" fill="#d04e38" stroke="#d04e38" stroke-width="1.51"/><path d="M1445,615L1598,608L1462,532Z" fill="#cb3025" stroke="#cb3025" stroke-width="1.51"/><path d="M1568,855L1279,855L1297,946Z" fill="#bc141a" stroke="#bc141a" stroke-width="1.51"/><path d="M1578,931L1568,855L1297,946Z" fill="#b21218" stroke="#b21218" stroke-width="1.51"/><path d="M1173,-7L1094,-173L992,-45Z" fill="#f78a71" stroke="#f78a71" stroke-width="1.51"/><path d="M1457,109L1347,176L1405,191Z" fill="#db664e" stroke="#db664e" stroke-width="1.51"/><path d="M-185,742L-50,924L-38,728Z" fill="#f28c77" stroke="#f28c77" stroke-width="1.51"/><path d="M-38,728L-50,924L165,798Z" fill="#ee846d" stroke="#ee846d" stroke-width="1.51"/><path d="M70,966L-93,1226L186,1118Z" fill="#cb7462" stroke="#cb7462" stroke-width="1.51"/><path d="M1431,213L1457,109L1405,191Z" fill="#d8644c" stroke="#d8644c" stroke-width="1.51"/><path d="M1624,301L1457,109L1431,213Z" fill="#d15d47" stroke="#d15d47" stroke-width="1.51"/><path d="M-47,233L-79,384L30,430Z" fill="#ffae95" stroke="#ffae95" stroke-width="1.51"/><path d="M-36,649L-185,742L-38,728Z" fill="#fa927a" stroke="#fa927a" stroke-width="1.51"/><path d="M1597,999L1578,931L1297,946Z" fill="#ac1016" stroke="#ac1016" stroke-width="1.51"/><path d="M1568,855L1724,835L1598,608Z" fill="#ae171a" stroke="#ae171a" stroke-width="1.51"/><path d="M712,-195L807,-258L516,-173Z" fill="#ffae95" stroke="#ffae95" stroke-width="1.51"/><path d="M895,-191L807,-258L795,-106Z" fill="#ffa289" stroke="#ffa289" stroke-width="1.51"/><path d="M1094,-173L807,-258L895,-191Z" fill="#ff9c84" stroke="#ff9c84" stroke-width="1.51"/><path d="M92,161L-47,233L194,343Z" fill="#ffb096" stroke="#ffb096" stroke-width="1.51"/><path d="M459,-136L260,-111L516,32Z" fill="#ffb79e" stroke="#ffb79e" stroke-width="1.51"/><path d="M202,-247L260,-111L459,-136Z" fill="#ffc7b2" stroke="#ffc7b2" stroke-width="1.51"/><path d="M202,-247L459,-136L516,-173Z" fill="#ffc2ab" stroke="#ffc2ab" stroke-width="1.51"/><path d="M-48,64L-47,233L92,161Z" fill="#ffc0a9" stroke="#ffc0a9" stroke-width="1.51"/><path d="M1498,1187L1597,999L1297,946Z" fill="#a50f16" stroke="#a50f16" stroke-width="1.51"/><path d="M1578,931L1724,835L1568,855Z" fill="#a40e17" stroke="#a40e17" stroke-width="1.51"/><path d="M1724,368L1462,532L1598,608Z" fill="#c13829" stroke="#c13829" stroke-width="1.51"/><path d="M1724,368L1624,301L1462,532Z" fill="#c34431" stroke="#c34431" stroke-width="1.51"/><path d="M1128,1208L1498,1187L1274,1155Z" fill="#9b0b15" stroke="#9b0b15" stroke-width="1.51"/><path d="M1274,1155L1498,1187L1297,946Z" fill="#a50f16" stroke="#a50f16" stroke-width="1.51"/><path d="M-230,535L-36,649L-79,384Z" fill="#ffa389" stroke="#ffa389" stroke-width="1.51"/><path d="M-230,535L-185,742L-36,649Z" fill="#ff9981" stroke="#ff9981" stroke-width="1.51"/><path d="M260,-111L39,-7L239,184Z" fill="#fdc0a8" stroke="#fdc0a8" stroke-width="1.51"/><path d="M1544,-80L1373,-111L1457,109Z" fill="#da7862" stroke="#da7862" stroke-width="1.51"/><path d="M1457,109L1373,-111L1199,65Z" fill="#e1765f" stroke="#e1765f" stroke-width="1.51"/><path d="M1094,-173L1324,-300L807,-258Z" fill="#fb9680" stroke="#fb9680" stroke-width="1.51"/><path d="M39,-7L-48,64L92,161Z" fill="#fdc6b0" stroke="#fdc6b0" stroke-width="1.51"/><path d="M-225,197L-230,535L-79,384Z" fill="#ffb49b" stroke="#ffb49b" stroke-width="1.51"/><path d="M1884,994L1724,835L1597,999Z" fill="#910814" stroke="#910814" stroke-width="1.51"/><path d="M1597,999L1724,835L1578,931Z" fill="#9f0c15" stroke="#9f0c15" stroke-width="1.51"/><path d="M-225,197L-79,384L-47,233Z" fill="#ffbaa3" stroke="#ffbaa3" stroke-width="1.51"/><path d="M1624,301L1639,63L1457,109Z" fill="#c9604b" stroke="#c9604b" stroke-width="1.51"/><path d="M1827,371L1724,368L1598,608Z" fill="#b3392b" stroke="#b3392b" stroke-width="1.51"/><path d="M807,-258L202,-247L516,-173Z" fill="#ffbba4" stroke="#ffbba4" stroke-width="1.51"/><path d="M260,-111L29,-208L39,-7Z" fill="#fed1bf" stroke="#fed1bf" stroke-width="1.51"/><path d="M39,-7L-85,-38L-48,64Z" fill="#fed0be" stroke="#fed0be" stroke-width="1.51"/><path d="M1872,210L1639,63L1624,301Z" fill="#b75644" stroke="#b75644" stroke-width="1.51"/><path d="M186,1118L-93,1226L527,1159Z" fill="#bd6553" stroke="#bd6553" stroke-width="1.51"/><path d="M527,1159L-93,1226L1128,1208Z" fill="#b54a39" stroke="#b54a39" stroke-width="1.51"/><path d="M-50,924L-93,1226L70,966Z" fill="#d87e6b" stroke="#d87e6b" stroke-width="1.51"/><path d="M-251,1089L-93,1226L-50,924Z" fill="#d28170" stroke="#d28170" stroke-width="1.51"/><path d="M-241,987L-50,924L-185,742Z" fill="#eb8b77" stroke="#eb8b77" stroke-width="1.51"/><path d="M1639,63L1544,-80L1457,109Z" fill="#cf6f5a" stroke="#cf6f5a" stroke-width="1.51"/><path d="M1373,-111L1324,-300L1094,-173Z" fill="#ed8b76" stroke="#ed8b76" stroke-width="1.51"/><path d="M-230,535L-303,655L-185,742Z" fill="#ff9d86" stroke="#ff9d86" stroke-width="1.51"/><path d="M-310,136L-303,655L-230,535Z" fill="#ffb199" stroke="#ffb199" stroke-width="1.51"/><path d="M1498,1187L1666,1178L1597,999Z" fill="#8b0713" stroke="#8b0713" stroke-width="1.51"/><path d="M1128,1208L1666,1178L1498,1187Z" fill="#900813" stroke="#900813" stroke-width="1.51"/><path d="M-303,655L-241,987L-185,742Z" fill="#f4937e" stroke="#f4937e" stroke-width="1.51"/><path d="M-48,64L-225,197L-47,233Z" fill="#ffc5af" stroke="#ffc5af" stroke-width="1.51"/><path d="M29,-208L-85,-38L39,-7Z" fill="#fed8c7" stroke="#fed8c7" stroke-width="1.51"/><path d="M-310,136L-225,197L-48,64Z" fill="#ffccb8" stroke="#ffccb8" stroke-width="1.51"/><path d="M1455,-273L1324,-300L1373,-111Z" fill="#e48977" stroke="#e48977" stroke-width="1.51"/><path d="M807,-258L6,-320L202,-247Z" fill="#ffcbb7" stroke="#ffcbb7" stroke-width="1.51"/><path d="M1876,712L1598,608L1724,835Z" fill="#a5181a" stroke="#a5181a" stroke-width="1.51"/><path d="M1876,712L1827,371L1598,608Z" fill="#ab2a22" stroke="#ab2a22" stroke-width="1.51"/><path d="M1724,368L1872,210L1624,301Z" fill="#b24a39" stroke="#b24a39" stroke-width="1.51"/><path d="M202,-247L29,-208L260,-111Z" fill="#fed3c1" stroke="#fed3c1" stroke-width="1.51"/><path d="M-303,655L-251,1089L-241,987Z" fill="#e98e7c" stroke="#e98e7c" stroke-width="1.51"/><path d="M-241,987L-251,1089L-50,924Z" fill="#de8775" stroke="#de8775" stroke-width="1.51"/><path d="M1795,10L1605,-107L1639,63Z" fill="#be6c5b" stroke="#be6c5b" stroke-width="1.51"/><path d="M1639,63L1605,-107L1544,-80Z" fill="#ca7361" stroke="#ca7361" stroke-width="1.51"/><path d="M1544,-80L1455,-273L1373,-111Z" fill="#dd8370" stroke="#dd8370" stroke-width="1.51"/><path d="M1920,700L1876,712L1884,994Z" fill="#9b0e17" stroke="#9b0e17" stroke-width="1.51"/><path d="M1593,-272L1455,-273L1544,-80Z" fill="#d78372" stroke="#d78372" stroke-width="1.51"/><path d="M1876,712L1920,700L1827,371Z" fill="#aa2620" stroke="#aa2620" stroke-width="1.51"/><path d="M1884,994L1876,712L1724,835Z" fill="#970a15" stroke="#970a15" stroke-width="1.51"/><path d="M-225,197L-310,136L-230,535Z" fill="#ffbea8" stroke="#ffbea8" stroke-width="1.51"/><path d="M-85,-38L-310,136L-48,64Z" fill="#fed1bf" stroke="#fed1bf" stroke-width="1.51"/><path d="M-225,-95L-310,136L-85,-38Z" fill="#ffd9c9" stroke="#ffd9c9" stroke-width="1.51"/><path d="M1666,1178L1884,994L1597,999Z" fill="#860612" stroke="#860612" stroke-width="1.51"/><path d="M1920,700L1872,210L1827,371Z" fill="#ae3a2d" stroke="#ae3a2d" stroke-width="1.51"/><path d="M1827,371L1872,210L1724,368Z" fill="#af4737" stroke="#af4737" stroke-width="1.51"/><path d="M1872,210L1795,10L1639,63Z" fill="#b25e4e" stroke="#b25e4e" stroke-width="1.51"/><path d="M1605,-107L1593,-272L1544,-80Z" fill="#cf7e6d" stroke="#cf7e6d" stroke-width="1.51"/><path d="M29,-208L-225,-95L-85,-38Z" fill="#fedfd1" stroke="#fedfd1" stroke-width="1.51"/><path d="M202,-247L6,-320L29,-208Z" fill="#ffdcce" stroke="#ffdcce" stroke-width="1.51"/><path d="M1324,-300L6,-320L807,-258Z" fill="#ffb098" stroke="#ffb098" stroke-width="1.51"/><path d="M-274,-233L-225,-95L29,-208Z" fill="#ffe6db" stroke="#ffe6db" stroke-width="1.51"/><path d="M1785,-228L1593,-272L1605,-107Z" fill="#c47c6f" stroke="#c47c6f" stroke-width="1.51"/><path d="M1455,-273L1593,-272L1324,-300Z" fill="#df8a79" stroke="#df8a79" stroke-width="1.51"/><path d="M1666,1178L1899,1157L1884,994Z" fill="#790310" stroke="#790310" stroke-width="1.51"/><path d="M1884,994L1899,1157L1920,700Z" fill="#8d0713" stroke="#8d0713" stroke-width="1.51"/><path d="M1795,10L1785,-228L1605,-107Z" fill="#ba7365" stroke="#ba7365" stroke-width="1.51"/><path d="M1872,210L1887,47L1795,10Z" fill="#b25f4f" stroke="#b25f4f" stroke-width="1.51"/><path d="M1920,700L1887,47L1872,210Z" fill="#af4737" stroke="#af4737" stroke-width="1.51"/><path d="M1887,47L1785,-228L1795,10Z" fill="#b56c5f" stroke="#b56c5f" stroke-width="1.51"/><path d="M6,-320L-274,-233L29,-208Z" fill="#ffe7dd" stroke="#ffe7dd" stroke-width="1.51"/><path d="M-225,-95L-274,-233L-310,136Z" fill="#ffe2d5" stroke="#ffe2d5" stroke-width="1.51"/></svg>