<svg height="512pt" viewBox="0 -13 512 511" width="512pt" xmlns="http://www.w3.org/2000/svg"><path d="m512 88.777344v335.445312c0 19.503906-15.808594 35.3125-35.308594 35.3125h-441.382812c-19.5 0-35.308594-15.808594-35.308594-35.3125v-335.445312zm0 0" fill="#b0d3f0"/><path d="m512 35.808594v70.621094h-512v-70.621094c0-19.5 15.808594-35.308594 35.308594-35.308594h441.382812c19.5 0 35.308594 15.808594 35.308594 35.308594zm0 0" fill="#894b9d"/><path d="m70.621094 53.464844c0 9.75-7.90625 17.65625-17.65625 17.65625s-17.65625-7.90625-17.65625-17.65625 7.90625-17.65625 17.65625-17.65625 17.65625 7.90625 17.65625 17.65625zm0 0" fill="#e64c3c"/><path d="m141.242188 53.464844c0 9.75-7.90625 17.65625-17.65625 17.65625s-17.65625-7.90625-17.65625-17.65625 7.90625-17.65625 17.65625-17.65625 17.65625 7.90625 17.65625 17.65625zm0 0" fill="#f0c419"/><path d="m211.863281 53.464844c0 9.75-7.90625 17.65625-17.65625 17.65625s-17.65625-7.90625-17.65625-17.65625 7.90625-17.65625 17.65625-17.65625 17.65625 7.90625 17.65625 17.65625zm0 0" fill="#14a085"/><path d="m370.757812 62.292969h-88.273437c-4.878906 0-8.828125-3.953125-8.828125-8.828125s3.949219-8.828125 8.828125-8.828125h88.273437c4.875 0 8.828126 3.953125 8.828126 8.828125s-3.953126 8.828125-8.828126 8.828125zm0 0" fill="#955ba5"/><path d="m467.863281 62.292969h-61.792969c-4.875 0-8.828124-3.953125-8.828124-8.828125s3.953124-8.828125 8.828124-8.828125h61.792969c4.875 0 8.828125 3.953125 8.828125 8.828125s-3.953125 8.828125-8.828125 8.828125zm0 0" fill="#955ba5"/><path d="m76.863281 135.5c-3.449219-3.445312-9.035156-3.445312-12.484375 0l-26.480468 26.484375c-3.449219 3.445313-3.449219 9.035156 0 12.480469l26.480468 26.484375c3.464844 3.34375 8.96875 3.296875 12.375-.109375s3.453125-8.910156.109375-12.375l-20.242187-20.242188 20.242187-20.238281c3.445313-3.449219 3.445313-9.035156 0-12.484375zm0 0" fill="#2fa8cc"/><path d="m182.792969 161.984375-26.484375-26.484375c-3.460938-3.34375-8.96875-3.296875-12.375.109375-3.402344 3.402344-3.449219 8.910156-.105469 12.375l20.242187 20.238281-20.242187 20.242188c-2.296875 2.21875-3.214844 5.5-2.40625 8.585937.804687 3.085938 3.21875 5.496094 6.304687 6.304688 3.085938.808593 6.367188-.113281 8.582032-2.40625l26.484375-26.484375c3.445312-3.445313 3.445312-9.035156 0-12.480469zm0 0" fill="#2fa8cc"/><path d="m127.53125 133.839844c-2.09375-1.046875-4.519531-1.21875-6.742188-.476563-2.222656.742188-4.058593 2.335938-5.105468 4.433594l-26.480469 52.964844c-2.179687 4.363281-.410156 9.667969 3.953125 11.847656 4.363281 2.175781 9.667969.40625 11.847656-3.957031l26.484375-52.964844c1.046875-2.09375 1.21875-4.519531.476563-6.742188-.742188-2.222656-2.335938-4.058593-4.433594-5.105468zm0 0" fill="#2fa8cc"/><g fill="#3f5c6c"><path d="m211.863281 168.222656h44.136719c4.875 0 8.828125-3.949218 8.828125-8.824218 0-4.878907-3.953125-8.828126-8.828125-8.828126h-44.136719c-4.875 0-8.828125 3.949219-8.828125 8.828126 0 4.875 3.953125 8.824218 8.828125 8.824218zm0 0"/><path d="m291.308594 168.222656h8.828125c4.875 0 8.828125-3.949218 8.828125-8.824218 0-4.878907-3.953125-8.828126-8.828125-8.828126h-8.828125c-4.875 0-8.824219 3.949219-8.824219 8.828126 0 4.875 3.949219 8.824218 8.824219 8.824218zm0 0"/><path d="m211.863281 212.363281h17.652344c4.878906 0 8.828125-3.953125 8.828125-8.828125s-3.949219-8.828125-8.828125-8.828125h-17.652344c-4.875 0-8.828125 3.953125-8.828125 8.828125s3.953125 8.828125 8.828125 8.828125zm0 0"/><path d="m44.136719 256.5h26.484375c4.875 0 8.828125-3.953125 8.828125-8.828125s-3.953125-8.828125-8.828125-8.828125h-26.484375c-4.875 0-8.828125 3.953125-8.828125 8.828125s3.953125 8.828125 8.828125 8.828125zm0 0"/><path d="m105.929688 256.5h70.621093c4.875 0 8.828125-3.953125 8.828125-8.828125s-3.953125-8.828125-8.828125-8.828125h-70.621093c-4.875 0-8.828126 3.953125-8.828126 8.828125s3.953126 8.828125 8.828126 8.828125zm0 0"/><path d="m70.621094 327.121094h-26.484375c-4.875 0-8.828125 3.953125-8.828125 8.828125s3.953125 8.828125 8.828125 8.828125h26.484375c4.875 0 8.828125-3.953125 8.828125-8.828125s-3.953125-8.828125-8.828125-8.828125zm0 0"/><path d="m176.550781 327.121094h-70.621093c-4.875 0-8.828126 3.953125-8.828126 8.828125s3.953126 8.828125 8.828126 8.828125h70.621093c4.875 0 8.828125-3.953125 8.828125-8.828125s-3.953125-8.828125-8.828125-8.828125zm0 0"/><path d="m247.171875 327.121094h-35.308594c-4.875 0-8.828125 3.953125-8.828125 8.828125s3.953125 8.828125 8.828125 8.828125h35.308594c4.875 0 8.828125-3.953125 8.828125-8.828125s-3.953125-8.828125-8.828125-8.828125zm0 0"/><path d="m247.171875 282.984375h-70.621094c-4.875 0-8.828125 3.949219-8.828125 8.824219 0 4.878906 3.953125 8.828125 8.828125 8.828125h70.621094c4.875 0 8.828125-3.949219 8.828125-8.828125 0-4.875-3.953125-8.824219-8.828125-8.824219zm0 0"/><path d="m44.136719 300.636719h97.105469c4.875 0 8.828124-3.949219 8.828124-8.828125 0-4.875-3.953124-8.824219-8.828124-8.824219h-97.105469c-4.875 0-8.828125 3.949219-8.828125 8.824219 0 4.878906 3.953125 8.828125 8.828125 8.828125zm0 0"/><path d="m300.136719 194.707031h-44.136719c-4.875 0-8.828125 3.953125-8.828125 8.828125s3.953125 8.828125 8.828125 8.828125h44.136719c4.875 0 8.828125-3.953125 8.828125-8.828125s-3.953125-8.828125-8.828125-8.828125zm0 0"/><path d="m300.136719 238.84375h-88.273438c-4.875 0-8.828125 3.953125-8.828125 8.828125s3.953125 8.828125 8.828125 8.828125h88.273438c4.875 0 8.828125-3.953125 8.828125-8.828125s-3.953125-8.828125-8.828125-8.828125zm0 0"/></g><path d="m512 397.742188v52.964843c0 19.507813-43.433594 35.308594-97.101562 35.308594-53.671876 0-97.105469-15.800781-97.105469-35.308594v-52.964843zm0 0" fill="#c03a2b"/><path d="m512 344.777344v52.964844c0 19.507812-43.433594 35.308593-97.101562 35.308593-53.671876 0-97.105469-15.800781-97.105469-35.308593v-52.964844zm0 0" fill="#e64c3c"/><path d="m512 291.808594v52.96875c0 19.507812-43.433594 35.308594-97.101562 35.308594-53.671876 0-97.105469-15.800782-97.105469-35.308594v-52.96875zm0 0" fill="#c03a2b"/><path d="m512 291.808594c0-19.5-43.476562-35.308594-97.101562-35.308594-53.628907 0-97.105469 15.808594-97.105469 35.308594 0 19.503906 43.476562 35.3125 97.105469 35.3125 53.625 0 97.101562-15.808594 97.101562-35.3125zm0 0" fill="#e64c3c"/></svg>