<svg xmlns="http://www.w3.org/2000/svg" width="1440" height="900"><path d="M693,475L751,485L813,336Z" fill="#c0eba1" stroke="#c0eba1" stroke-width="1.51"/><path d="M813,336L675,317L693,475Z" fill="#c4eda0" stroke="#c4eda0" stroke-width="1.51"/><path d="M751,485L975,384L813,336Z" fill="#c4e9a5" stroke="#c4e9a5" stroke-width="1.51"/><path d="M813,336L731,117L675,317Z" fill="#ceefa0" stroke="#ceefa0" stroke-width="1.51"/><path d="M821,-11L731,117L1088,65Z" fill="#dff1a6" stroke="#dff1a6" stroke-width="1.51"/><path d="M675,317L383,492L693,475Z" fill="#c8ee9f" stroke="#c8ee9f" stroke-width="1.51"/><path d="M731,117L629,109L675,317Z" fill="#d5f39f" stroke="#d5f39f" stroke-width="1.51"/><path d="M751,485L1025,523L975,384Z" fill="#c2e7aa" stroke="#c2e7aa" stroke-width="1.51"/><path d="M751,485L768,711L1025,523Z" fill="#c3e5ad" stroke="#c3e5ad" stroke-width="1.51"/><path d="M693,475L768,711L751,485Z" fill="#c1e8a7" stroke="#c1e8a7" stroke-width="1.51"/><path d="M629,109L406,287L675,317Z" fill="#d8f39f" stroke="#d8f39f" stroke-width="1.51"/><path d="M693,475L559,731L768,711Z" fill="#c5e8aa" stroke="#c5e8aa" stroke-width="1.51"/><path d="M406,287L383,492L675,317Z" fill="#d3f29f" stroke="#d3f29f" stroke-width="1.51"/><path d="M383,492L559,731L693,475Z" fill="#cceba6" stroke="#cceba6" stroke-width="1.51"/><path d="M406,287L140,336L383,492Z" fill="#ddf59f" stroke="#ddf59f" stroke-width="1.51"/><path d="M629,109L387,203L406,287Z" fill="#e0f69e" stroke="#e0f69e" stroke-width="1.51"/><path d="M731,117L691,-95L629,109Z" fill="#dff59e" stroke="#dff59e" stroke-width="1.51"/><path d="M629,109L456,-95L387,203Z" fill="#e9f99e" stroke="#e9f99e" stroke-width="1.51"/><path d="M1088,65L731,117L813,336Z" fill="#d6eea6" stroke="#d6eea6" stroke-width="1.51"/><path d="M383,492L382,691L559,731Z" fill="#d3ebaa" stroke="#d3ebaa" stroke-width="1.51"/><path d="M796,892L1053,739L768,711Z" fill="#c7e0ba" stroke="#c7e0ba" stroke-width="1.51"/><path d="M768,711L1053,739L1025,523Z" fill="#c7e2b6" stroke="#c7e2b6" stroke-width="1.51"/><path d="M975,384L1088,65L813,336Z" fill="#d1ebaa" stroke="#d1ebaa" stroke-width="1.51"/><path d="M1267,375L1088,65L975,384Z" fill="#d2e7b1" stroke="#d2e7b1" stroke-width="1.51"/><path d="M1267,375L975,384L1025,523Z" fill="#c6e5b0" stroke="#c6e5b0" stroke-width="1.51"/><path d="M821,-11L691,-95L731,117Z" fill="#e0f49e" stroke="#e0f49e" stroke-width="1.51"/><path d="M973,-208L691,-95L821,-11Z" fill="#e2ed93" stroke="#e2ed93" stroke-width="1.51"/><path d="M559,731L796,892L768,711Z" fill="#c6e3b2" stroke="#c6e3b2" stroke-width="1.51"/><path d="M558,930L796,892L559,731Z" fill="#cbe3b7" stroke="#cbe3b7" stroke-width="1.51"/><path d="M1053,739L1233,514L1025,523Z" fill="#c7e0ba" stroke="#c7e0ba" stroke-width="1.51"/><path d="M1233,514L1267,375L1025,523Z" fill="#c6e2b5" stroke="#c6e2b5" stroke-width="1.51"/><path d="M387,203L242,140L406,287Z" fill="#e8f89e" stroke="#e8f89e" stroke-width="1.51"/><path d="M383,492L90,577L382,691Z" fill="#dcefa6" stroke="#dcefa6" stroke-width="1.51"/><path d="M456,-95L242,140L387,203Z" fill="#f0fa9e" stroke="#f0fa9e" stroke-width="1.51"/><path d="M691,-95L456,-95L629,109Z" fill="#e7f698" stroke="#e7f698" stroke-width="1.51"/><path d="M382,691L558,930L559,731Z" fill="#d3e7b2" stroke="#d3e7b2" stroke-width="1.51"/><path d="M1053,739L1341,681L1233,514Z" fill="#caddc1" stroke="#caddc1" stroke-width="1.51"/><path d="M796,892L1016,903L1053,739Z" fill="#caddc1" stroke="#caddc1" stroke-width="1.51"/><path d="M915,1203L1016,903L796,892Z" fill="#c5d6a8" stroke="#c5d6a8" stroke-width="1.51"/><path d="M242,140L140,336L406,287Z" fill="#e9f89e" stroke="#e9f89e" stroke-width="1.51"/><path d="M1088,65L1036,-148L821,-11Z" fill="#e4eda5" stroke="#e4eda5" stroke-width="1.51"/><path d="M691,-95L460,-225L456,-95Z" fill="#ebf189" stroke="#ebf189" stroke-width="1.51"/><path d="M1341,-149L1036,-148L1088,65Z" fill="#e8e8a8" stroke="#e8e8a8" stroke-width="1.51"/><path d="M1036,-148L973,-208L821,-11Z" fill="#e5e997" stroke="#e5e997" stroke-width="1.51"/><path d="M1345,1009L1341,681L1053,739Z" fill="#cdd9cd" stroke="#cdd9cd" stroke-width="1.51"/><path d="M1233,514L1504,426L1267,375Z" fill="#c5deac" stroke="#c5deac" stroke-width="1.51"/><path d="M558,930L521,1171L796,892Z" fill="#c7dba0" stroke="#c7dba0" stroke-width="1.51"/><path d="M382,691L478,1011L558,930Z" fill="#d6e5b8" stroke="#d6e5b8" stroke-width="1.51"/><path d="M235,854L478,1011L382,691Z" fill="#dce7b7" stroke="#dce7b7" stroke-width="1.51"/><path d="M1248,-241L916,-321L973,-208Z" fill="#e8e18c" stroke="#e8e18c" stroke-width="1.51"/><path d="M1267,375L1325,66L1088,65Z" fill="#dce7b7" stroke="#dce7b7" stroke-width="1.51"/><path d="M1463,103L1325,66L1267,375Z" fill="#d8e2a9" stroke="#d8e2a9" stroke-width="1.51"/><path d="M140,336L90,577L383,492Z" fill="#def49f" stroke="#def49f" stroke-width="1.51"/><path d="M456,-95L178,-89L242,140Z" fill="#f9fc99" stroke="#f9fc99" stroke-width="1.51"/><path d="M708,-329L460,-225L691,-95Z" fill="#e7ec80" stroke="#e7ec80" stroke-width="1.51"/><path d="M90,577L235,854L382,691Z" fill="#e2eeae" stroke="#e2eeae" stroke-width="1.51"/><path d="M140,336L44,369L90,577Z" fill="#e2f295" stroke="#e2f295" stroke-width="1.51"/><path d="M28,117L44,369L140,336Z" fill="#edf592" stroke="#edf592" stroke-width="1.51"/><path d="M28,117L140,336L242,140Z" fill="#f2fa99" stroke="#f2fa99" stroke-width="1.51"/><path d="M916,-321L708,-329L691,-95Z" fill="#e3e87e" stroke="#e3e87e" stroke-width="1.51"/><path d="M973,-208L916,-321L691,-95Z" fill="#e4e888" stroke="#e4e888" stroke-width="1.51"/><path d="M1248,-241L973,-208L1036,-148Z" fill="#e8e394" stroke="#e8e394" stroke-width="1.51"/><path d="M460,-225L178,-89L456,-95Z" fill="#f5f489" stroke="#f5f489" stroke-width="1.51"/><path d="M178,-89L28,117L242,140Z" fill="#fcfd9a" stroke="#fcfd9a" stroke-width="1.51"/><path d="M1341,681L1504,426L1233,514Z" fill="#c5daad" stroke="#c5daad" stroke-width="1.51"/><path d="M1341,681L1450,693L1504,426Z" fill="#c3d4a4" stroke="#c3d4a4" stroke-width="1.51"/><path d="M1345,1009L1450,693L1341,681Z" fill="#c9d2b8" stroke="#c9d2b8" stroke-width="1.51"/><path d="M1325,66L1341,-149L1088,65Z" fill="#e8e9b5" stroke="#e8e9b5" stroke-width="1.51"/><path d="M1504,426L1463,103L1267,375Z" fill="#ccdc9f" stroke="#ccdc9f" stroke-width="1.51"/><path d="M409,1147L521,1171L478,1011Z" fill="#cad788" stroke="#cad788" stroke-width="1.51"/><path d="M478,1011L521,1171L558,930Z" fill="#ccdb98" stroke="#ccdb98" stroke-width="1.51"/><path d="M1016,903L1345,1009L1053,739Z" fill="#cdd9cb" stroke="#cdd9cb" stroke-width="1.51"/><path d="M1519,-118L1341,-149L1325,66Z" fill="#e3e097" stroke="#e3e097" stroke-width="1.51"/><path d="M1341,-149L1248,-241L1036,-148Z" fill="#eae29d" stroke="#eae29d" stroke-width="1.51"/><path d="M90,577L-75,723L235,854Z" fill="#e6eba5" stroke="#e6eba5" stroke-width="1.51"/><path d="M156,1070L409,1147L478,1011Z" fill="#d3db8f" stroke="#d3db8f" stroke-width="1.51"/><path d="M44,369L-65,556L90,577Z" fill="#e1ee91" stroke="#e1ee91" stroke-width="1.51"/><path d="M-153,290L-65,556L44,369Z" fill="#e4ed86" stroke="#e4ed86" stroke-width="1.51"/><path d="M156,1070L478,1011L235,854Z" fill="#dce2a4" stroke="#dce2a4" stroke-width="1.51"/><path d="M521,1171L915,1203L796,892Z" fill="#bdd38e" stroke="#bdd38e" stroke-width="1.51"/><path d="M915,1203L1014,1197L1016,903Z" fill="#c1ce97" stroke="#c1ce97" stroke-width="1.51"/><path d="M1504,426L1596,385L1463,103Z" fill="#c7d78c" stroke="#c7d78c" stroke-width="1.51"/><path d="M1624,591L1596,385L1504,426Z" fill="#bad185" stroke="#bad185" stroke-width="1.51"/><path d="M1624,591L1575,605L1657,826Z" fill="#bdca8a" stroke="#bdca8a" stroke-width="1.51"/><path d="M1450,693L1575,605L1504,426Z" fill="#c0d196" stroke="#c0d196" stroke-width="1.51"/><path d="M1014,1197L1345,1009L1016,903Z" fill="#c6cfab" stroke="#c6cfab" stroke-width="1.51"/><path d="M178,-89L17,-152L28,117Z" fill="#fff88a" stroke="#fff88a" stroke-width="1.51"/><path d="M460,-225L102,-207L178,-89Z" fill="#fcf584" stroke="#fcf584" stroke-width="1.51"/><path d="M-78,-283L102,-207L460,-225Z" fill="#fff279" stroke="#fff279" stroke-width="1.51"/><path d="M-65,556L-75,723L90,577Z" fill="#e4e994" stroke="#e4e994" stroke-width="1.51"/><path d="M-76,918L156,1070L235,854Z" fill="#e5e3a3" stroke="#e5e3a3" stroke-width="1.51"/><path d="M28,117L-153,290L44,369Z" fill="#eef288" stroke="#eef288" stroke-width="1.51"/><path d="M-65,556L-245,654L-75,723Z" fill="#e6e48a" stroke="#e6e48a" stroke-width="1.51"/><path d="M-241,211L-153,290L28,117Z" fill="#f2ef7e" stroke="#f2ef7e" stroke-width="1.51"/><path d="M102,-207L17,-152L178,-89Z" fill="#fff47e" stroke="#fff47e" stroke-width="1.51"/><path d="M1575,605L1624,591L1504,426Z" fill="#bccf8a" stroke="#bccf8a" stroke-width="1.51"/><path d="M1657,826L1575,605L1450,693Z" fill="#c1cc95" stroke="#c1cc95" stroke-width="1.51"/><path d="M1341,-149L1443,-399L1248,-241Z" fill="#e7d987" stroke="#e7d987" stroke-width="1.51"/><path d="M1463,103L1519,-118L1325,66Z" fill="#e0e29a" stroke="#e0e29a" stroke-width="1.51"/><path d="M1614,43L1519,-118L1463,103Z" fill="#dbdd89" stroke="#dbdd89" stroke-width="1.51"/><path d="M156,1070L238,1181L409,1147Z" fill="#d5d983" stroke="#d5d983" stroke-width="1.51"/><path d="M409,1147L238,1181L521,1171Z" fill="#cbd57c" stroke="#cbd57c" stroke-width="1.51"/><path d="M521,1171L-86,1301L915,1203Z" fill="#c4d070" stroke="#c4d070" stroke-width="1.51"/><path d="M1345,1009L1468,1029L1450,693Z" fill="#c8ccb0" stroke="#c8ccb0" stroke-width="1.51"/><path d="M1014,1197L1352,1106L1345,1009Z" fill="#c4c9a2" stroke="#c4c9a2" stroke-width="1.51"/><path d="M1719,-130L1614,43L1596,385Z" fill="#d0d577" stroke="#d0d577" stroke-width="1.51"/><path d="M1596,385L1614,43L1463,103Z" fill="#cfd886" stroke="#cfd886" stroke-width="1.51"/><path d="M-75,723L-76,918L235,854Z" fill="#e9e6a6" stroke="#e9e6a6" stroke-width="1.51"/><path d="M156,1070L-86,1301L238,1181Z" fill="#d6d570" stroke="#d6d570" stroke-width="1.51"/><path d="M-211,849L-76,918L-75,723Z" fill="#eae097" stroke="#eae097" stroke-width="1.51"/><path d="M1352,1106L1468,1029L1345,1009Z" fill="#c2c599" stroke="#c2c599" stroke-width="1.51"/><path d="M-153,290L-245,654L-65,556Z" fill="#e3e77f" stroke="#e3e77f" stroke-width="1.51"/><path d="M-156,-56L-241,211L28,117Z" fill="#faf27d" stroke="#faf27d" stroke-width="1.51"/><path d="M17,-152L-156,-56L28,117Z" fill="#fff480" stroke="#fff480" stroke-width="1.51"/><path d="M-78,-283L-156,-56L17,-152Z" fill="#ffed6a" stroke="#ffed6a" stroke-width="1.51"/><path d="M-241,211L-245,654L-153,290Z" fill="#e7e875" stroke="#e7e875" stroke-width="1.51"/><path d="M1468,1029L1657,826L1450,693Z" fill="#c4caa3" stroke="#c4caa3" stroke-width="1.51"/><path d="M1624,591L1719,-130L1596,385Z" fill="#c3d177" stroke="#c3d177" stroke-width="1.51"/><path d="M-245,654L-211,849L-75,723Z" fill="#e9e08c" stroke="#e9e08c" stroke-width="1.51"/><path d="M-76,918L-86,1301L156,1070Z" fill="#dcd678" stroke="#dcd678" stroke-width="1.51"/><path d="M102,-207L-78,-283L17,-152Z" fill="#ffed6c" stroke="#ffed6c" stroke-width="1.51"/><path d="M708,-329L-78,-283L460,-225Z" fill="#f6ed76" stroke="#f6ed76" stroke-width="1.51"/><path d="M1699,-390L1443,-399L1519,-118Z" fill="#dccd5c" stroke="#dccd5c" stroke-width="1.51"/><path d="M1519,-118L1443,-399L1341,-149Z" fill="#e2d67c" stroke="#e2d67c" stroke-width="1.51"/><path d="M1248,-241L1443,-399L916,-321Z" fill="#ecdb8b" stroke="#ecdb8b" stroke-width="1.51"/><path d="M916,-321L1443,-399L708,-329Z" fill="#e9dd7e" stroke="#e9dd7e" stroke-width="1.51"/><path d="M708,-329L1443,-399L-78,-283Z" fill="#e5e570" stroke="#e5e570" stroke-width="1.51"/><path d="M1468,1029L1663,1081L1657,826Z" fill="#bdc086" stroke="#bdc086" stroke-width="1.51"/><path d="M1352,1106L1402,1227L1468,1029Z" fill="#bdc087" stroke="#bdc087" stroke-width="1.51"/><path d="M1014,1197L1402,1227L1352,1106Z" fill="#c1c494" stroke="#c1c494" stroke-width="1.51"/><path d="M915,1203L1402,1227L1014,1197Z" fill="#bcc586" stroke="#bcc586" stroke-width="1.51"/><path d="M1668,1295L1402,1227L915,1203Z" fill="#babd7c" stroke="#babd7c" stroke-width="1.51"/><path d="M1614,43L1719,-130L1519,-118Z" fill="#d7d570" stroke="#d7d570" stroke-width="1.51"/><path d="M1657,826L1719,-130L1624,591Z" fill="#b7cd74" stroke="#b7cd74" stroke-width="1.51"/><path d="M1657,826L1663,1081L1719,-130Z" fill="#b8c97b" stroke="#b8c97b" stroke-width="1.51"/><path d="M1402,1227L1663,1081L1468,1029Z" fill="#b9bc78" stroke="#b9bc78" stroke-width="1.51"/><path d="M-245,654L-289,983L-211,849Z" fill="#ebdb8a" stroke="#ebdb8a" stroke-width="1.51"/><path d="M-211,849L-289,983L-76,918Z" fill="#e9da8c" stroke="#e9da8c" stroke-width="1.51"/><path d="M-321,-235L-289,983L-245,654Z" fill="#e4e36f" stroke="#e4e36f" stroke-width="1.51"/><path d="M238,1181L-86,1301L521,1171Z" fill="#d1d570" stroke="#d1d570" stroke-width="1.51"/><path d="M-289,983L-86,1301L-76,918Z" fill="#dfd36f" stroke="#dfd36f" stroke-width="1.51"/><path d="M-241,211L-321,-235L-245,654Z" fill="#f4e96e" stroke="#f4e96e" stroke-width="1.51"/><path d="M-156,-56L-321,-235L-241,211Z" fill="#ffed6a" stroke="#ffed6a" stroke-width="1.51"/><path d="M-78,-283L-321,-235L-156,-56Z" fill="#ffe758" stroke="#ffe758" stroke-width="1.51"/><path d="M1719,-130L1699,-390L1519,-118Z" fill="#d6cd58" stroke="#d6cd58" stroke-width="1.51"/><path d="M1402,1227L1668,1295L1663,1081Z" fill="#b0b35a" stroke="#b0b35a" stroke-width="1.51"/><path d="M1663,1081L1668,1295L1719,-130Z" fill="#bcc583" stroke="#bcc583" stroke-width="1.51"/><path d="M-86,1301L1668,1295L915,1203Z" fill="#b4c76d" stroke="#b4c76d" stroke-width="1.51"/><path d="M-289,983L-280,1258L-86,1301Z" fill="#d6c94d" stroke="#d6c94d" stroke-width="1.51"/></svg>